SplineFontDB: 3.0
FontName: Almendra-BoldItalic
FullName: Almendra Bold Italic
FamilyName: Almendra
Weight: Bold
Copyright: Copyright (c) 2011-2012, Ana Sanfelippo (anasanfe@gmail.com), with Reserved Font Name 'Almendra'
Version: 1.003
ItalicAngle: -12
UnderlinePosition: -50
UnderlineWidth: 50
Ascent: 800
Descent: 200
sfntRevision: 0x000100c5
LayerCount: 2
Layer: 0 1 "Back"  1
Layer: 1 1 "Fore"  0
XUID: [1021 882 956941068 14500095]
FSType: 0
OS2Version: 3
OS2_WeightWidthSlopeOnly: 0
OS2_UseTypoMetrics: 1
CreationTime: 1273876560
ModificationTime: 1352830811
PfmFamily: 17
TTFWeight: 700
TTFWidth: 5
LineGap: 0
VLineGap: 0
Panose: 2 0 0 0 0 0 0 0 0 0
OS2TypoAscent: 951
OS2TypoAOffset: 0
OS2TypoDescent: -345
OS2TypoDOffset: 0
OS2TypoLinegap: 0
OS2WinAscent: 951
OS2WinAOffset: 0
OS2WinDescent: 345
OS2WinDOffset: 0
HheadAscent: 951
HheadAOffset: 0
HheadDescent: -345
HheadDOffset: 0
OS2SubXSize: 650
OS2SubYSize: 600
OS2SubXOff: -16
OS2SubYOff: 75
OS2SupXSize: 650
OS2SupYSize: 600
OS2SupXOff: 74
OS2SupYOff: 350
OS2StrikeYSize: 50
OS2StrikeYPos: 318
OS2Vendor: 'pyrs'
OS2CodePages: 20000001.00000000
OS2UnicodeRanges: 8000006f.00000002.00000000.00000000
Lookup: 4 0 1 "'liga' Standard Ligatures lookup 0"  {"'liga' Standard Ligatures lookup 0 subtable"  } ['liga' ('DFLT' <'dflt' > ) ]
Lookup: 258 0 0 "'kern' Horizontal Kerning lookup 0"  {"'kern' Horizontal Kerning lookup 0 subtable"  } ['kern' ('DFLT' <'dflt' > ) ]
DEI: 91125
TtTable: prep
PUSHW_1
 511
SCANCTRL
PUSHB_1
 4
SCANTYPE
EndTTInstrs
ShortTable: maxp 16
  1
  0
  247
  93
  4
  0
  0
  2
  0
  1
  1
  0
  64
  0
  0
  0
EndShort
LangName: 1033 "" "" "Bold Italic" "AnaSanfelippo: Almendra Bold Italic: 2011" "" "Version 1.003" "" "Almendra is a trademark of Ana Sanfelippo." "Ana Sanfelippo" "Ana Sanfelippo" "" "" "www.anasanfelippo.com.ar" "This Font Software is licensed under the SIL Open Font License, Version 1.1. This license is available with a FAQ at: http://scripts.sil.org/OFL" "http://scripts.sil.org/OFL" 

StartChar: exclam
Encoding: 33 33 4
Width: 259
GlyphClass: 2
Flags: W
LayerCount: 2
Fore
SplineSet
199 93 m 1,0,1
 184 69 184 69 153.5 35 c 128,-1,2
 123 1 123 1 100 -15 c 1,3,4
 79 0 79 0 56 33 c 128,-1,5
 33 66 33 66 21 93 c 1,6,7
 32 114 32 114 62.5 140 c 128,-1,8
 93 166 93 166 118 179 c 1,9,10
 161 152 161 152 199 93 c 1,0,1
225 711 m 0,11,12
 229 711 229 711 233 711 c 1,13,14
 258 687 258 687 280 642 c 1,15,16
 183 431 183 431 142 243 c 1,17,-1
 96 238 l 1,18,-1
 112 681 l 1,19,20
 179 711 179 711 225 711 c 0,11,12
EndSplineSet
EndChar

StartChar: quotedbl
Encoding: 34 34 5
Width: 334
GlyphClass: 2
Flags: W
LayerCount: 2
Fore
SplineSet
66 652 m 1,0,1
 83 660 83 660 116 667 c 128,-1,2
 149 674 149 674 158.5 674 c 128,-1,3
 168 674 168 674 170 674 c 1,4,-1
 186 657 l 1,5,6
 125 543 125 543 86 376 c 1,7,-1
 48 371 l 1,8,-1
 66 652 l 1,0,1
214 652 m 1,9,10
 231 660 231 660 264 667 c 128,-1,11
 297 674 297 674 306.5 674 c 128,-1,12
 316 674 316 674 318 674 c 1,13,-1
 334 657 l 1,14,15
 273 543 273 543 234 376 c 1,16,-1
 196 371 l 1,17,-1
 214 652 l 1,9,10
EndSplineSet
EndChar

StartChar: numbersign
Encoding: 35 35 6
Width: 572
GlyphClass: 2
Flags: W
LayerCount: 2
Fore
SplineSet
413 372 m 1,0,1
 427 372 427 372 453.5 372 c 128,-1,2
 480 372 480 372 532 373 c 1,3,-1
 538 368 l 1,4,-1
 509 309 l 1,5,-1
 402 312 l 1,6,-1
 379 189 l 1,7,8
 392 189 392 189 417.5 189 c 128,-1,9
 443 189 443 189 494 190 c 1,10,-1
 500 185 l 1,11,-1
 471 126 l 1,12,-1
 368 129 l 1,13,-1
 326 -96 l 1,14,-1
 321 -96 l 1,15,16
 286 -88 286 -88 266 -71 c 1,17,18
 299 60 299 60 312 131 c 1,19,-1
 218 133 l 1,20,-1
 175 -96 l 1,21,-1
 170 -96 l 1,22,23
 135 -88 135 -88 115 -71 c 1,24,25
 150 75 150 75 162 134 c 1,26,-1
 45 137 l 1,27,-1
 37 144 l 1,28,-1
 66 206 l 1,29,-1
 111 202 l 2,30,31
 150 198 150 198 173 197 c 1,32,-1
 196 317 l 1,33,-1
 83 320 l 1,34,-1
 75 327 l 1,35,-1
 104 389 l 1,36,-1
 149 385 l 2,37,38
 186 381 186 381 208 380 c 1,39,-1
 247 587 l 1,40,41
 284 587 284 587 307 594 c 1,42,-1
 311 591 l 1,43,44
 285 494 285 494 263 377 c 1,45,46
 294 375 294 375 358 373 c 1,47,-1
 398 587 l 1,48,49
 435 587 435 587 458 594 c 1,50,-1
 462 591 l 1,51,52
 436 493 436 493 414 376 c 1,53,-1
 413 372 l 1,0,1
229 194 m 1,54,55
 259 192 259 192 323 190 c 1,56,-1
 347 314 l 1,57,-1
 252 316 l 1,58,-1
 229 194 l 1,54,55
EndSplineSet
EndChar

StartChar: dollar
Encoding: 36 36 7
Width: 387
GlyphClass: 2
Flags: W
LayerCount: 2
Fore
SplineSet
121 168 m 0,0,1
 121 122 121 122 162 79 c 1,2,-1
 173 217 l 1,3,4
 115 252 115 252 88 272 c 0,5,6
 39 307 39 307 39 347 c 128,-1,7
 39 387 39 387 99 435 c 128,-1,8
 159 483 159 483 226 512 c 1,9,-1
 232 588 l 1,10,11
 255 591 255 591 264 594 c 1,12,-1
 268 591 l 1,13,14
 262 562 262 562 257 515 c 1,15,16
 295 504 295 504 329 504 c 128,-1,17
 363 504 363 504 376 513 c 1,18,-1
 386 502 l 1,19,20
 340 448 340 448 320 388 c 1,21,-1
 310 385 l 1,22,-1
 284 404 l 1,23,-1
 249 427 l 1,24,-1
 243 347 l 1,25,26
 332 294 332 294 348 266 c 0,27,28
 357 251 357 251 357 235 c 0,29,30
 357 178 357 178 305 112 c 128,-1,31
 253 46 253 46 187 -2 c 1,32,-1
 182 -91 l 1,33,-1
 177 -92 l 1,34,35
 154 -85 154 -85 146 -77 c 1,36,-1
 153 -13 l 1,37,38
 112 -6 112 -6 72.5 17.5 c 128,-1,39
 33 41 33 41 13 68 c 2,40,-1
 4 80 l 1,41,42
 79 147 79 147 111 205 c 1,43,-1
 125 197 l 1,44,45
 121 184 121 184 121 168 c 0,0,1
241 157 m 0,46,47
 241 172 241 172 202 199 c 1,48,-1
 191 57 l 1,49,50
 210 74 210 74 225.5 104 c 128,-1,51
 241 134 241 134 241 157 c 0,46,47
193 451 m 1,52,53
 167 434 167 434 167 412.5 c 128,-1,54
 167 391 167 391 214 363 c 1,55,-1
 221 442 l 1,56,57
 201 450 201 450 193 451 c 1,52,53
EndSplineSet
EndChar

StartChar: percent
Encoding: 37 37 8
Width: 759
GlyphClass: 2
Flags: W
LayerCount: 2
Fore
SplineSet
208 570 m 2,0,-1
 212 570 l 1,1,2
 233 569 233 569 318 554.5 c 128,-1,3
 403 540 403 540 450 540 c 128,-1,4
 497 540 497 540 517.5 547 c 128,-1,5
 538 554 538 554 555 578 c 2,6,-1
 562 588 l 1,7,8
 612 590 612 590 643 600 c 1,9,-1
 646 597 l 1,10,11
 557 481 557 481 483 377 c 2,12,-1
 145 -104 l 1,13,-1
 140 -104 l 1,14,15
 108 -93 108 -93 91 -65 c 1,16,17
 104 -49 104 -49 132 -14 c 0,18,19
 207 77 207 77 224 102 c 2,20,-1
 418 376 l 2,21,22
 423 384 423 384 461.5 437.5 c 128,-1,23
 500 491 500 491 520 521 c 1,24,-1
 516 522 l 1,25,26
 484 492 484 492 444.5 492 c 128,-1,27
 405 492 405 492 289 534 c 1,28,-1
 286 531 l 1,29,30
 340 477 340 477 349 408 c 1,31,32
 332 326 332 326 281 276.5 c 128,-1,33
 230 227 230 227 185.5 227 c 128,-1,34
 141 227 141 227 97 277.5 c 128,-1,35
 53 328 53 328 46 390 c 1,36,37
 63 470 63 470 113.5 520 c 128,-1,38
 164 570 164 570 208 570 c 2,0,-1
572 328 m 128,-1,40
 616 328 616 328 660.5 278 c 128,-1,41
 705 228 705 228 713 166 c 1,42,43
 696 84 696 84 645 34.5 c 128,-1,44
 594 -15 594 -15 549.5 -15 c 128,-1,45
 505 -15 505 -15 461 35.5 c 128,-1,46
 417 86 417 86 410 148 c 1,47,48
 427 228 427 228 477.5 278 c 128,-1,39
 528 328 528 328 572 328 c 128,-1,40
165 384 m 0,49,50
 165 282 165 282 192 268 c 1,51,52
 229 279 229 279 229 397 c 128,-1,53
 229 515 229 515 202 529 c 1,54,55
 165 518 165 518 165 384 c 0,49,50
529 142 m 0,56,57
 529 40 529 40 556 26 c 1,58,59
 593 37 593 37 593 155 c 128,-1,60
 593 273 593 273 566 287 c 1,61,62
 529 276 529 276 529 142 c 0,56,57
EndSplineSet
EndChar

StartChar: ampersand
Encoding: 38 38 9
Width: 682
GlyphClass: 2
Flags: W
LayerCount: 2
Fore
SplineSet
569 383 m 0,0,1
 681 383 681 383 702 414 c 1,2,3
 704 422 704 422 704 430 c 0,4,5
 704 462 704 462 690 483 c 1,6,-1
 690 491 l 1,7,8
 732 526 732 526 758 576 c 1,9,10
 775 576 775 576 783.5 561 c 128,-1,11
 792 546 792 546 792 526 c 0,12,13
 792 451 792 451 753.5 398 c 128,-1,14
 715 345 715 345 641 298 c 1,15,16
 617 306 617 306 592 308 c 1,17,18
 586 200 586 200 511 108.5 c 128,-1,19
 436 17 436 17 330 -15 c 1,20,21
 180 -15 180 -15 100 62 c 128,-1,22
 20 139 20 139 20 286 c 0,23,24
 20 385 20 385 92.5 472 c 128,-1,25
 165 559 165 559 264 585 c 1,26,-1
 272 584 l 1,27,28
 278 570 278 570 286.5 545.5 c 128,-1,29
 295 521 295 521 300 506 c 0,30,31
 316 466 316 466 338 442 c 1,32,33
 365 476 365 476 385 528 c 128,-1,34
 405 580 405 580 405 622 c 0,35,36
 405 628 405 628 403 652 c 1,37,-1
 407 657 l 1,38,39
 494 657 494 657 536 666 c 1,40,41
 515 587 515 587 484.5 527 c 128,-1,42
 454 467 454 467 405.5 416.5 c 128,-1,43
 357 366 357 366 308 328.5 c 128,-1,44
 259 291 259 291 178 239 c 1,45,46
 209 66 209 66 337 66 c 0,47,48
 376 66 376 66 404 80 c 1,49,50
 443 132 443 132 443 259 c 0,51,52
 443 286 443 286 440 308 c 1,53,54
 395 305 395 305 367 277 c 1,55,56
 365 269 365 269 365 261 c 0,57,58
 365 229 365 229 379 208 c 1,59,-1
 379 200 l 1,60,61
 337 165 337 165 311 115 c 1,62,63
 294 115 294 115 285.5 130 c 128,-1,64
 277 145 277 145 277 165 c 0,65,66
 277 239 277 239 326 301.5 c 128,-1,67
 375 364 375 364 450 395 c 1,68,69
 510 383 510 383 569 383 c 0,0,1
177 453.5 m 128,-1,71
 170 397 170 397 170 349.5 c 128,-1,72
 170 302 170 302 173 278 c 1,73,74
 221 315 221 315 237 331 c 1,75,76
 213 424 213 424 201 519 c 1,77,70
 184 510 184 510 177 453.5 c 128,-1,71
EndSplineSet
EndChar

StartChar: quotesingle
Encoding: 39 39 10
Width: 186
GlyphClass: 2
Flags: W
LayerCount: 2
Fore
SplineSet
66 652 m 1,0,1
 83 660 83 660 116 667 c 128,-1,2
 149 674 149 674 158.5 674 c 128,-1,3
 168 674 168 674 170 674 c 1,4,-1
 186 657 l 1,5,6
 125 543 125 543 86 376 c 1,7,-1
 48 371 l 1,8,-1
 66 652 l 1,0,1
EndSplineSet
EndChar

StartChar: parenleft
Encoding: 40 40 11
Width: 296
GlyphClass: 2
Flags: W
LayerCount: 2
Fore
SplineSet
303 695 m 1,0,1
 132 482 132 482 132 199 c 0,2,3
 132 106 132 106 155.5 -0.5 c 128,-1,4
 179 -107 179 -107 241 -200 c 1,5,-1
 217 -215 l 1,6,7
 128 -134 128 -134 84.5 -16 c 128,-1,8
 41 102 41 102 41 214 c 0,9,10
 41 373 41 373 110.5 501 c 128,-1,11
 180 629 180 629 282 711 c 1,12,-1
 303 695 l 1,0,1
EndSplineSet
EndChar

StartChar: parenright
Encoding: 41 41 12
Width: 296
GlyphClass: 2
Flags: W
LayerCount: 2
Fore
SplineSet
-7 -199 m 1,0,1
 164 14 164 14 164 297 c 0,2,3
 164 390 164 390 140.5 496.5 c 128,-1,4
 117 603 117 603 55 696 c 1,5,-1
 79 711 l 1,6,7
 168 630 168 630 211.5 512 c 128,-1,8
 255 394 255 394 255 282 c 0,9,10
 255 123 255 123 185.5 -5 c 128,-1,11
 116 -133 116 -133 14 -215 c 1,12,-1
 -7 -199 l 1,0,1
EndSplineSet
EndChar

StartChar: asterisk
Encoding: 42 42 13
Width: 371
GlyphClass: 2
Flags: W
LayerCount: 2
Fore
SplineSet
211 677 m 1,0,-1
 244 683 l 1,1,-1
 246 681 l 1,2,3
 211 628 211 628 203 576 c 1,4,5
 248 609 248 609 277 661 c 1,6,-1
 280 661 l 1,7,8
 284 654 284 654 288 628 c 1,9,10
 304 631 304 631 313 631 c 128,-1,11
 322 631 322 631 326 629 c 1,12,13
 326 621 326 621 303 595 c 1,14,15
 304 593 304 593 309 588 c 0,16,17
 322 576 322 576 323 571 c 1,18,-1
 322 569 l 1,19,20
 318 569 318 569 314 569 c 0,21,22
 268 569 268 569 215 547 c 1,23,24
 261 525 261 525 311 525 c 0,25,26
 315 525 315 525 319 525 c 1,27,-1
 320 523 l 1,28,29
 318 520 318 520 297 499 c 1,30,31
 316 475 316 475 316 465 c 1,32,33
 312 462 312 462 302 462 c 128,-1,34
 292 462 292 462 277 465 c 1,35,36
 271 447 271 447 265 435 c 1,37,-1
 262 435 l 1,38,39
 241 482 241 482 199 518 c 1,40,41
 200 463 200 463 227 412 c 1,42,-1
 226 410 l 1,43,-1
 195 418 l 1,44,45
 181 387 181 387 173 383 c 1,46,47
 164 388 164 388 156 419 c 1,48,-1
 125 412 l 1,49,-1
 123 414 l 1,50,51
 157 469 157 469 166 518 c 1,52,53
 125 488 125 488 92 434 c 1,54,-1
 89 434 l 1,55,-1
 82 466 l 1,56,57
 66 463 66 463 56.5 463 c 128,-1,58
 47 463 47 463 43 465 c 1,59,60
 44 474 44 474 65 501 c 1,61,-1
 46 525 l 1,62,-1
 47 527 l 1,63,64
 52 527 52 527 57 527 c 0,65,66
 109 527 109 527 154 547 c 1,67,68
 107 568 107 568 59 568 c 0,69,70
 55 568 55 568 51 568 c 1,71,-1
 51 570 l 1,72,73
 54 576 54 576 72 594 c 1,74,75
 53 622 53 622 53 629 c 1,76,77
 57 631 57 631 66.5 631 c 128,-1,78
 76 631 76 631 93 628 c 1,79,80
 103 659 103 659 104 660 c 1,81,-1
 107 660 l 1,82,83
 131 608 131 608 170 576 c 1,84,85
 167 633 167 633 142 681 c 1,86,-1
 144 683 l 1,87,88
 151 683 151 683 175 677 c 1,89,90
 189 707 189 707 196 711 c 1,91,92
 203 707 203 707 211 677 c 1,0,-1
EndSplineSet
EndChar

StartChar: plus
Encoding: 43 43 14
Width: 576
GlyphClass: 2
Flags: W
LayerCount: 2
Fore
SplineSet
320 212 m 1,0,1
 320 85 320 85 329 -10 c 1,2,-1
 259 -19 l 1,3,-1
 249 -12 l 1,4,-1
 249 212 l 1,5,-1
 65 212 l 1,6,-1
 57 219 l 1,7,-1
 66 290 l 1,8,9
 188 284 188 284 249 283 c 1,10,-1
 249 486 l 1,11,-1
 320 495 l 1,12,-1
 325 489 l 1,13,14
 320 356 320 356 320 283 c 2,15,-1
 320 282 l 1,16,17
 357 281 357 281 416 281 c 128,-1,18
 475 281 475 281 514 284 c 1,19,-1
 520 278 l 1,20,-1
 511 212 l 1,21,-1
 320 212 l 1,0,1
EndSplineSet
EndChar

StartChar: comma
Encoding: 44 44 15
Width: 220
GlyphClass: 2
Flags: W
LayerCount: 2
Fore
SplineSet
199 93 m 1,0,1
 187 21 187 21 132.5 -51 c 128,-1,2
 78 -123 78 -123 10 -169 c 1,3,-1
 -5 -152 l 1,4,5
 68 -75 68 -75 84 -1 c 1,6,7
 44 39 44 39 21 93 c 1,8,9
 32 114 32 114 62.5 140 c 128,-1,10
 93 166 93 166 118 179 c 1,11,12
 161 152 161 152 199 93 c 1,0,1
EndSplineSet
EndChar

StartChar: hyphen
Encoding: 45 45 16
Width: 300
GlyphClass: 2
Flags: W
LayerCount: 2
Fore
SplineSet
76 298 m 2,0,1
 184 298 184 298 268 308 c 1,2,-1
 276 303 l 1,3,-1
 270 241 l 1,4,-1
 33 226 l 1,5,-1
 24 232 l 1,6,-1
 30 298 l 1,7,-1
 76 298 l 2,0,1
EndSplineSet
EndChar

StartChar: period
Encoding: 46 46 17
Width: 220
GlyphClass: 2
Flags: W
LayerCount: 2
Fore
SplineSet
199 93 m 1,0,1
 184 69 184 69 153.5 35 c 128,-1,2
 123 1 123 1 100 -15 c 1,3,4
 79 0 79 0 56 33 c 128,-1,5
 33 66 33 66 21 93 c 1,6,7
 32 114 32 114 62.5 140 c 128,-1,8
 93 166 93 166 118 179 c 1,9,10
 161 152 161 152 199 93 c 1,0,1
EndSplineSet
EndChar

StartChar: slash
Encoding: 47 47 18
Width: 408
GlyphClass: 2
Flags: W
LayerCount: 2
Fore
SplineSet
64 -47 m 1,0,-1
 57 -47 l 1,1,2
 30 -36 30 -36 7 -7 c 1,3,4
 55 85 55 85 93 171 c 2,5,-1
 240 495 l 2,6,7
 286 597 286 597 322 695 c 1,8,9
 360 697 360 697 396 706 c 1,10,-1
 401 702 l 1,11,12
 357 615 357 615 324 543 c 1,13,-1
 64 -47 l 1,0,-1
EndSplineSet
EndChar

StartChar: zero
Encoding: 48 48 19
Width: 457
GlyphClass: 2
Flags: W
LayerCount: 2
Fore
SplineSet
178 221 m 0,0,1
 178 159 178 159 189 105 c 128,-1,2
 200 51 200 51 222 38 c 1,3,4
 279 58 279 58 279 260 c 0,5,6
 279 426 279 426 234 452 c 1,7,8
 178 432 178 432 178 221 c 0,0,1
106 429.5 m 128,-1,10
 180 505 180 505 245 505 c 128,-1,11
 310 505 310 505 374 428.5 c 128,-1,12
 438 352 438 352 450 258 c 1,13,14
 425 135 425 135 350.5 60 c 128,-1,15
 276 -15 276 -15 211 -15 c 128,-1,16
 146 -15 146 -15 82.5 61 c 128,-1,17
 19 137 19 137 7 231 c 1,18,9
 32 354 32 354 106 429.5 c 128,-1,10
EndSplineSet
EndChar

StartChar: one
Encoding: 49 49 20
Width: 343
GlyphClass: 2
Flags: W
LayerCount: 2
Fore
SplineSet
302 -13 m 1,0,1
 248 0 248 0 155 0 c 128,-1,2
 62 0 62 0 17 -9 c 1,3,-1
 14 9 l 1,4,5
 42 25 42 25 82 36 c 1,6,7
 100 134 100 134 100 372 c 0,8,9
 100 422 100 422 96 458 c 1,10,11
 64 467 64 467 32 485 c 1,12,-1
 35 502 l 1,13,14
 92 490 92 490 184 490 c 128,-1,15
 276 490 276 490 320 500 c 1,16,-1
 325 485 l 1,17,18
 292 469 292 469 276 437 c 128,-1,19
 260 405 260 405 253.5 340.5 c 128,-1,20
 247 276 247 276 247 181 c 128,-1,21
 247 86 247 86 253 42 c 1,22,23
 277 18 277 18 308 5 c 1,24,-1
 302 -13 l 1,0,1
EndSplineSet
EndChar

StartChar: two
Encoding: 50 50 21
Width: 392
GlyphClass: 2
Flags: W
LayerCount: 2
Fore
SplineSet
172.5 265.5 m 128,-1,1
 201 316 201 316 201 369 c 128,-1,2
 201 422 201 422 164 422 c 0,3,4
 148 422 148 422 135 417 c 1,5,6
 126 399 126 399 126 374.5 c 128,-1,7
 126 350 126 350 140 338 c 1,8,-1
 138 330 l 1,9,10
 82 305 82 305 49 272 c 1,11,12
 24 272 24 272 24 302 c 0,13,14
 24 371 24 371 79 425.5 c 128,-1,15
 134 480 134 480 211 505 c 1,16,17
 282 505 282 505 326.5 465 c 128,-1,18
 371 425 371 425 371 356 c 1,19,20
 353 320 353 320 305.5 277.5 c 128,-1,21
 258 235 258 235 201 191.5 c 128,-1,22
 144 148 144 148 121 123 c 1,23,24
 162 115 162 115 227 115 c 128,-1,25
 292 115 292 115 315 128 c 1,26,27
 335 175 335 175 355 203 c 1,28,-1
 371 195 l 1,29,30
 348 138 348 138 348 75.5 c 128,-1,31
 348 13 348 13 362 -7 c 1,32,-1
 353 -21 l 1,33,34
 222 8 222 8 93 8 c 0,35,36
 20 8 20 8 -11 -13 c 1,37,-1
 -21 -3 l 1,38,39
 3 64 3 64 108 177 c 0,40,0
 144 215 144 215 172.5 265.5 c 128,-1,1
EndSplineSet
EndChar

StartChar: three
Encoding: 51 51 22
Width: 388
GlyphClass: 2
Flags: W
LayerCount: 2
Fore
SplineSet
238 383 m 1,0,1
 211 386 211 386 164.5 386 c 128,-1,2
 118 386 118 386 95 373 c 1,3,4
 77 337 77 337 55 308 c 1,5,-1
 39 316 l 1,6,7
 62 374 62 374 62 427 c 128,-1,8
 62 480 62 480 49 501 c 1,9,-1
 60 513 l 1,10,11
 115 488 115 488 271 488 c 0,12,13
 329 488 329 488 371 495 c 1,14,-1
 381 479 l 1,15,16
 329 365 329 365 222 282 c 1,17,-1
 222 278 l 1,18,19
 371 278 371 278 371 148 c 0,20,21
 371 97 371 97 330.5 42 c 128,-1,22
 290 -13 290 -13 242.5 -49.5 c 128,-1,23
 195 -86 195 -86 143 -115 c 1,24,25
 98 -111 98 -111 48.5 -86 c 128,-1,26
 -1 -61 -1 -61 -23 -32 c 2,27,-1
 -32 -20 l 1,28,29
 43 47 43 47 75 105 c 1,30,-1
 89 97 l 1,31,32
 85 84 85 84 85 61.5 c 128,-1,33
 85 39 85 39 110.5 5.5 c 128,-1,34
 136 -28 136 -28 165 -43 c 1,35,36
 188 -18 188 -18 202 26 c 128,-1,37
 216 70 216 70 216 108 c 0,38,39
 216 205 216 205 138 205 c 0,40,41
 120 205 120 205 105 200 c 1,42,-1
 98 220 l 1,43,44
 191 290 191 290 238 383 c 1,0,1
EndSplineSet
EndChar

StartChar: four
Encoding: 52 52 23
Width: 470
GlyphClass: 2
Flags: W
LayerCount: 2
Fore
SplineSet
356 55 m 1,0,1
 356 -15 356 -15 362 -58 c 1,2,3
 388 -80 388 -80 418 -91 c 1,4,-1
 413 -112 l 1,5,6
 355 -100 355 -100 268.5 -100 c 128,-1,7
 182 -100 182 -100 127 -113 c 1,8,-1
 122 -93 l 1,9,10
 146 -79 146 -79 191 -64 c 1,11,12
 201 -13 201 -13 204 55 c 1,13,-1
 -17 55 l 1,14,-1
 -21 69 l 1,15,16
 88 204 88 204 228 480 c 1,17,18
 331 486 331 486 388 505 c 1,19,-1
 396 501 l 1,20,21
 362 393 362 393 357 131 c 1,22,23
 402 131 402 131 444 149 c 1,24,-1
 449 143 l 1,25,26
 442 126 442 126 432 49 c 1,27,28
 388 55 388 55 356 55 c 1,0,1
222 382 m 1,29,30
 176 253 176 253 112 137 c 1,31,32
 150 132 150 132 213 132 c 1,33,-1
 229 382 l 1,34,-1
 222 382 l 1,29,30
EndSplineSet
EndChar

StartChar: five
Encoding: 53 53 24
Width: 378
GlyphClass: 2
Flags: W
LayerCount: 2
Fore
SplineSet
109 282 m 1,0,1
 153 293 153 293 219 293 c 128,-1,2
 285 293 285 293 328 257 c 128,-1,3
 371 221 371 221 371 148 c 0,4,5
 371 97 371 97 330.5 42 c 128,-1,6
 290 -13 290 -13 242.5 -49.5 c 128,-1,7
 195 -86 195 -86 143 -115 c 1,8,9
 98 -111 98 -111 48.5 -86 c 128,-1,10
 -1 -61 -1 -61 -23 -32 c 2,11,-1
 -32 -20 l 1,12,13
 43 47 43 47 75 105 c 1,14,-1
 89 97 l 1,15,16
 85 84 85 84 85 61.5 c 128,-1,17
 85 39 85 39 110.5 5.5 c 128,-1,18
 136 -28 136 -28 165 -43 c 1,19,20
 188 -18 188 -18 202 26 c 128,-1,21
 216 70 216 70 216 113 c 128,-1,22
 216 156 216 156 196.5 178 c 128,-1,23
 177 200 177 200 137.5 200 c 128,-1,24
 98 200 98 200 57 188 c 1,25,-1
 44 196 l 1,26,-1
 58 381 l 2,27,28
 58 390 58 390 58 398 c 0,29,30
 58 444 58 444 45 479 c 1,31,-1
 55 495 l 1,32,33
 85 488 85 488 140 488 c 0,34,35
 256 488 256 488 311 513 c 1,36,-1
 322 501 l 1,37,38
 309 480 309 480 309 432 c 128,-1,39
 309 384 309 384 332 326 c 1,40,-1
 316 318 l 1,41,42
 300 335 300 335 281 373 c 1,43,44
 258 386 258 386 202 386 c 128,-1,45
 146 386 146 386 114 381 c 1,46,-1
 96 271 l 1,47,-1
 100 270 l 1,48,-1
 109 282 l 1,0,1
EndSplineSet
EndChar

StartChar: six
Encoding: 54 54 25
Width: 430
GlyphClass: 2
Flags: W
LayerCount: 2
Fore
SplineSet
176 198 m 0,0,1
 176 87 176 87 196 66 c 1,2,3
 205 55 205 55 223 55 c 128,-1,4
 241 55 241 55 252 66 c 1,5,6
 260 103 260 103 260 142 c 128,-1,7
 260 181 260 181 259.5 197 c 128,-1,8
 259 213 259 213 256 235 c 128,-1,9
 253 257 253 257 247 268 c 0,10,11
 232 296 232 296 200 296 c 1,12,-1
 200 305 l 1,13,14
 240 349 240 349 267 387 c 1,15,16
 358 387 358 387 390.5 329.5 c 128,-1,17
 423 272 423 272 423 161 c 1,18,19
 382 102 382 102 321.5 54.5 c 128,-1,20
 261 7 261 7 196 -15 c 1,21,22
 20 -15 20 -15 20 181 c 0,23,24
 20 321 20 321 124.5 435.5 c 128,-1,25
 229 550 229 550 380 609 c 1,26,-1
 394 588 l 1,27,28
 176 459 176 459 176 198 c 0,0,1
EndSplineSet
EndChar

StartChar: seven
Encoding: 55 55 26
Width: 361
GlyphClass: 2
Flags: W
LayerCount: 2
Fore
SplineSet
269 380 m 1,0,1
 221 386 221 386 164.5 386 c 128,-1,2
 108 386 108 386 85 373 c 1,3,4
 67 337 67 337 45 308 c 1,5,-1
 29 316 l 1,6,7
 52 374 52 374 52 427 c 128,-1,8
 52 480 52 480 39 501 c 1,9,-1
 50 513 l 1,10,11
 105 488 105 488 251 488 c 0,12,13
 324 488 324 488 364 497 c 1,14,-1
 375 487 l 1,15,16
 220 201 220 201 217 -66 c 1,17,18
 253 -79 253 -79 276 -94 c 1,19,-1
 271 -114 l 1,20,21
 214 -100 214 -100 142.5 -100 c 128,-1,22
 71 -100 71 -100 13 -112 c 1,23,-1
 7 -92 l 1,24,25
 36 -82 36 -82 63 -58 c 1,26,27
 79 53 79 53 127.5 153.5 c 128,-1,28
 176 254 176 254 269 380 c 1,0,1
EndSplineSet
EndChar

StartChar: eight
Encoding: 56 56 27
Width: 364
GlyphClass: 2
Flags: W
LayerCount: 2
Fore
SplineSet
335 499 m 0,0,1
 335 414 335 414 251 335 c 1,2,3
 282 308 282 308 300 289 c 128,-1,4
 318 270 318 270 334 236.5 c 128,-1,5
 350 203 350 203 350 166 c 1,6,7
 327 98 327 98 277 56 c 128,-1,8
 227 14 227 14 150 -15 c 1,9,10
 14 -15 14 -15 14 116 c 0,11,12
 14 165 14 165 44.5 212.5 c 128,-1,13
 75 260 75 260 120 289 c 1,14,15
 81 331 81 331 59 370 c 128,-1,16
 37 409 37 409 37 457 c 1,17,18
 71 503 71 503 125 539.5 c 128,-1,19
 179 576 179 576 230 585 c 1,20,21
 283 585 283 585 309 566 c 128,-1,22
 335 547 335 547 335 499 c 0,0,1
219 73 m 1,23,24
 227 94 227 94 227 127 c 128,-1,25
 227 160 227 160 207 189.5 c 128,-1,26
 187 219 187 219 147 260 c 1,27,28
 119 221 119 221 119 144 c 0,29,30
 119 109 119 109 132 84 c 128,-1,31
 145 59 145 59 173.5 59 c 128,-1,32
 202 59 202 59 219 73 c 1,23,24
160 476 m 0,33,34
 160 423 160 423 218 365 c 1,35,36
 231 413 231 413 231 462.5 c 128,-1,37
 231 512 231 512 193 512 c 0,38,39
 179 512 179 512 167 507 c 1,40,41
 160 496 160 496 160 476 c 0,33,34
EndSplineSet
EndChar

StartChar: nine
Encoding: 57 57 28
Width: 430
GlyphClass: 2
Flags: W
LayerCount: 2
Fore
SplineSet
254 292 m 0,0,1
 254 403 254 403 234 424 c 1,2,3
 225 435 225 435 207 435 c 128,-1,4
 189 435 189 435 178 424 c 1,5,6
 170 387 170 387 170 348 c 128,-1,7
 170 309 170 309 170.5 293 c 128,-1,8
 171 277 171 277 174 255 c 128,-1,9
 177 233 177 233 183 222 c 0,10,11
 198 194 198 194 230 194 c 1,12,-1
 230 185 l 1,13,14
 190 141 190 141 163 103 c 1,15,16
 72 103 72 103 39.5 160.5 c 128,-1,17
 7 218 7 218 7 329 c 1,18,19
 48 388 48 388 108.5 435.5 c 128,-1,20
 169 483 169 483 234 505 c 1,21,22
 410 505 410 505 410 309 c 0,23,24
 410 169 410 169 305.5 54.5 c 128,-1,25
 201 -60 201 -60 50 -119 c 1,26,-1
 36 -98 l 1,27,28
 254 31 254 31 254 292 c 0,0,1
EndSplineSet
EndChar

StartChar: colon
Encoding: 58 58 29
Width: 232
GlyphClass: 2
Flags: W
LayerCount: 2
Fore
SplineSet
211 419 m 1,0,1
 196 395 196 395 165.5 361 c 128,-1,2
 135 327 135 327 112 311 c 1,3,4
 91 326 91 326 68 359 c 128,-1,5
 45 392 45 392 33 419 c 1,6,7
 44 440 44 440 74.5 466 c 128,-1,8
 105 492 105 492 130 505 c 1,9,10
 173 478 173 478 211 419 c 1,0,1
199 93 m 1,11,12
 184 69 184 69 153.5 35 c 128,-1,13
 123 1 123 1 100 -15 c 1,14,15
 79 0 79 0 56 33 c 128,-1,16
 33 66 33 66 21 93 c 1,17,18
 32 114 32 114 62.5 140 c 128,-1,19
 93 166 93 166 118 179 c 1,20,21
 161 152 161 152 199 93 c 1,11,12
EndSplineSet
EndChar

StartChar: semicolon
Encoding: 59 59 30
Width: 232
GlyphClass: 2
Flags: W
LayerCount: 2
Fore
SplineSet
199 93 m 1,0,1
 187 21 187 21 132.5 -51 c 128,-1,2
 78 -123 78 -123 10 -169 c 1,3,-1
 -5 -152 l 1,4,5
 68 -75 68 -75 84 -1 c 1,6,7
 44 39 44 39 21 93 c 1,8,9
 32 114 32 114 62.5 140 c 128,-1,10
 93 166 93 166 118 179 c 1,11,12
 161 152 161 152 199 93 c 1,0,1
211 419 m 1,13,14
 196 395 196 395 165.5 361 c 128,-1,15
 135 327 135 327 112 311 c 1,16,17
 91 326 91 326 68 359 c 128,-1,18
 45 392 45 392 33 419 c 1,19,20
 44 440 44 440 74.5 466 c 128,-1,21
 105 492 105 492 130 505 c 1,22,23
 173 478 173 478 211 419 c 1,13,14
EndSplineSet
EndChar

StartChar: less
Encoding: 60 60 31
Width: 576
GlyphClass: 2
Flags: W
LayerCount: 2
Fore
SplineSet
495 45 m 1,0,1
 264 160 264 160 55 222 c 1,2,-1
 69 286 l 1,3,4
 125 303 125 303 253 351.5 c 128,-1,5
 381 400 381 400 497 459 c 1,6,-1
 521 393 l 1,7,-1
 516 383 l 1,8,-1
 167 254 l 1,9,-1
 167 250 l 1,10,-1
 516 122 l 1,11,-1
 521 112 l 1,12,-1
 495 45 l 1,0,1
EndSplineSet
EndChar

StartChar: equal
Encoding: 61 61 32
Width: 576
GlyphClass: 2
Flags: W
LayerCount: 2
Fore
SplineSet
65 208 m 1,0,1
 234 199 234 199 354 199 c 128,-1,2
 474 199 474 199 513 202 c 1,3,-1
 519 196 l 1,4,-1
 510 135 l 1,5,-1
 64 135 l 1,6,-1
 56 142 l 1,7,-1
 65 208 l 1,0,1
65 367 m 1,8,9
 234 358 234 358 354 358 c 128,-1,10
 474 358 474 358 513 361 c 1,11,-1
 519 355 l 1,12,-1
 510 294 l 1,13,-1
 64 294 l 1,14,-1
 56 301 l 1,15,-1
 65 367 l 1,8,9
EndSplineSet
EndChar

StartChar: greater
Encoding: 62 62 33
Width: 576
GlyphClass: 2
Flags: W
LayerCount: 2
Fore
SplineSet
521 222 m 1,0,1
 312 160 312 160 81 45 c 1,2,-1
 55 112 l 1,3,-1
 60 122 l 1,4,-1
 409 250 l 1,5,-1
 409 254 l 1,6,-1
 60 383 l 1,7,-1
 55 393 l 1,8,-1
 79 459 l 1,9,10
 195 400 195 400 323 351.5 c 128,-1,11
 451 303 451 303 507 286 c 1,12,-1
 521 222 l 1,0,1
EndSplineSet
EndChar

StartChar: question
Encoding: 63 63 34
Width: 315
GlyphClass: 2
Flags: W
LayerCount: 2
Fore
SplineSet
156.5 487 m 128,-1,1
 183 533 183 533 183 580.5 c 128,-1,2
 183 628 183 628 146 628 c 0,3,4
 130 628 130 628 117 623 c 1,5,6
 108 605 108 605 108 580.5 c 128,-1,7
 108 556 108 556 122 544 c 1,8,-1
 120 536 l 1,9,10
 64 511 64 511 31 478 c 1,11,12
 6 478 6 478 6 508 c 0,13,14
 6 577 6 577 61 631.5 c 128,-1,15
 116 686 116 686 193 711 c 1,16,17
 264 711 264 711 308.5 671 c 128,-1,18
 353 631 353 631 353 562 c 1,19,20
 334 538 334 538 322 527 c 128,-1,21
 310 516 310 516 303 509 c 128,-1,22
 296 502 296 502 283.5 492 c 128,-1,23
 271 482 271 482 264.5 477 c 128,-1,24
 258 472 258 472 243 462 c 2,25,-1
 223 448 l 2,26,27
 218 444 218 444 201.5 432 c 128,-1,28
 185 420 185 420 181 418 c 1,29,30
 171 389 171 389 161 330.5 c 128,-1,31
 151 272 151 272 148 260 c 1,32,-1
 86 250 l 1,33,-1
 91 410 l 1,34,0
 130 441 130 441 156.5 487 c 128,-1,1
199 93 m 1,35,36
 184 69 184 69 153.5 35 c 128,-1,37
 123 1 123 1 100 -15 c 1,38,39
 79 0 79 0 56 33 c 128,-1,40
 33 66 33 66 21 93 c 1,41,42
 33 115 33 115 64 146 c 128,-1,43
 95 177 95 177 118 189 c 1,44,45
 151 169 151 169 199 93 c 1,35,36
EndSplineSet
EndChar

StartChar: at
Encoding: 64 64 35
Width: 853
GlyphClass: 2
Flags: W
LayerCount: 2
Fore
SplineSet
210 159 m 0,0,1
 210 270 210 270 279 363 c 128,-1,2
 348 456 348 456 457 505 c 1,3,4
 515 505 515 505 588 470 c 1,5,6
 613 515 613 515 630 537 c 1,7,-1
 646 532 l 1,8,9
 612 443 612 443 612 250 c 0,10,11
 612 139 612 139 624 58 c 1,12,13
 683 110 683 110 714.5 200 c 128,-1,14
 746 290 746 290 746 375 c 0,15,16
 746 501 746 501 676 562.5 c 128,-1,17
 606 624 606 624 486 624 c 128,-1,18
 366 624 366 624 296 586 c 1,19,20
 209 510 209 510 159.5 380.5 c 128,-1,21
 110 251 110 251 110 129.5 c 128,-1,22
 110 8 110 8 174.5 -60.5 c 128,-1,23
 239 -129 239 -129 353 -129 c 0,24,25
 418 -129 418 -129 476 -106 c 1,26,-1
 482 -120 l 1,27,28
 394 -178 394 -178 341 -190 c 1,29,30
 193 -190 193 -190 111.5 -116 c 128,-1,31
 30 -42 30 -42 30 102 c 0,32,33
 30 330 30 330 147.5 490.5 c 128,-1,34
 265 651 265 651 477 685 c 1,35,36
 633 685 633 685 728 616.5 c 128,-1,37
 823 548 823 548 823 406.5 c 128,-1,38
 823 265 823 265 749 145.5 c 128,-1,39
 675 26 675 26 550 -15 c 1,40,41
 474 -3 474 -3 474 159 c 1,42,-1
 490 240 l 1,43,-1
 473 242 l 1,44,45
 455 153 455 153 428.5 87 c 128,-1,46
 402 21 402 21 352 -15 c 1,47,48
 286 -15 286 -15 248 35.5 c 128,-1,49
 210 86 210 86 210 159 c 0,0,1
394 422 m 1,50,51
 365 304 365 304 365 203 c 128,-1,52
 365 102 365 102 382 88 c 1,53,54
 417 135 417 135 442 235 c 128,-1,55
 467 335 467 335 467 402 c 1,56,57
 448 429 448 429 426 429 c 128,-1,58
 404 429 404 429 394 422 c 1,50,51
EndSplineSet
EndChar

StartChar: A
Encoding: 65 65 36
Width: 563
GlyphClass: 2
Flags: W
LayerCount: 2
Fore
SplineSet
318 213 m 1,0,1
 297 219 297 219 275 219 c 128,-1,2
 253 219 253 219 235 219 c 128,-1,3
 217 219 217 219 192 213 c 1,4,5
 171 128 171 128 171 81 c 128,-1,6
 171 34 171 34 178 -1 c 1,7,8
 71 -1 71 -1 -9 -15 c 1,9,-1
 -21 -7 l 1,10,-1
 191 615 l 1,11,12
 161 625 161 625 126 643 c 1,13,-1
 130 662 l 1,14,15
 207 651 207 651 322 651 c 128,-1,16
 437 651 437 651 501 662 c 1,17,-1
 507 657 l 1,18,19
 493 598 493 598 483 459.5 c 128,-1,20
 473 321 473 321 473 189.5 c 128,-1,21
 473 58 473 58 484 0 c 1,22,23
 350 -4 350 -4 297 -15 c 1,24,-1
 291 -10 l 1,25,26
 309 69 309 69 318 213 c 1,0,1
206 289 m 1,27,28
 224 282 224 282 263 282 c 128,-1,29
 302 282 302 282 321 290 c 1,30,31
 326 398 326 398 326 470 c 128,-1,32
 326 542 326 542 322 591 c 1,33,34
 317 594 317 594 304 594 c 128,-1,35
 291 594 291 594 285 591 c 1,36,37
 267 564 267 564 255 503 c 1,38,-1
 206 289 l 1,27,28
EndSplineSet
EndChar

StartChar: B
Encoding: 66 66 37
Width: 552
GlyphClass: 2
Flags: W
LayerCount: 2
Fore
SplineSet
29 651 m 1,0,-1
 333 662 l 1,1,2
 498 662 498 662 498 544 c 0,3,4
 498 487 498 487 463 443 c 128,-1,5
 428 399 428 399 370 373 c 1,6,-1
 370 369 l 1,7,8
 445 369 445 369 488 337 c 128,-1,9
 531 305 531 305 531 237 c 0,10,11
 531 193 531 193 503.5 151 c 128,-1,12
 476 109 476 109 431 78 c 0,13,14
 343 16 343 16 242 -15 c 1,15,-1
 210 -7 l 2,16,17
 141 11 141 11 107 11 c 128,-1,18
 73 11 73 11 53 7 c 1,19,-1
 47 20 l 1,20,21
 68 42 68 42 75 99 c 0,22,23
 93 267 93 267 93 414.5 c 128,-1,24
 93 562 93 562 85 616 c 1,25,26
 51 622 51 622 28 633 c 1,27,-1
 29 651 l 1,0,-1
311 596 m 0,28,29
 301 604 301 604 283.5 604 c 128,-1,30
 266 604 266 604 253 598 c 1,31,32
 239 421 239 421 239 192 c 0,33,34
 239 170 239 170 241 86 c 1,35,36
 263 73 263 73 294.5 73 c 128,-1,37
 326 73 326 73 346 89 c 1,38,39
 362 137 362 137 362 206.5 c 128,-1,40
 362 276 362 276 343 310.5 c 128,-1,41
 324 345 324 345 260 345 c 1,42,-1
 264 382 l 1,43,44
 289 384 289 384 304 391 c 1,45,46
 331 439 331 439 331 514 c 0,47,48
 331 582 331 582 311 596 c 0,28,29
EndSplineSet
EndChar

StartChar: C
Encoding: 67 67 38
Width: 466
GlyphClass: 2
Flags: W
LayerCount: 2
Fore
SplineSet
30 234 m 0,0,1
 30 506 30 506 309 666 c 1,2,3
 350 651 350 651 402 651 c 128,-1,4
 454 651 454 651 473 657 c 1,5,-1
 480 643 l 1,6,7
 453 607 453 607 437.5 540 c 128,-1,8
 422 473 422 473 422 420 c 1,9,-1
 405 420 l 1,10,11
 395 446 395 446 386 496 c 1,12,-1
 365 512 l 2,13,14
 288 570 288 570 252 570 c 1,15,16
 227 512 227 512 212 428 c 128,-1,17
 197 344 197 344 197 290 c 128,-1,18
 197 236 197 236 202 203 c 128,-1,19
 207 170 207 170 218.5 138.5 c 128,-1,20
 230 107 230 107 253.5 89 c 128,-1,21
 277 71 277 71 310 71 c 1,22,23
 337 119 337 119 337 196 c 0,24,25
 337 214 337 214 334 227 c 1,26,-1
 341 232 l 1,27,28
 406 233 406 233 466 243 c 1,29,30
 451 166 451 166 395.5 93.5 c 128,-1,31
 340 21 340 21 270 -15 c 1,32,33
 158 -15 158 -15 94 52.5 c 128,-1,34
 30 120 30 120 30 234 c 0,0,1
EndSplineSet
EndChar

StartChar: D
Encoding: 68 68 39
Width: 596
GlyphClass: 2
Flags: W
LayerCount: 2
Fore
SplineSet
29 651 m 1,0,-1
 303 662 l 1,1,2
 442 662 442 662 504 595.5 c 128,-1,3
 566 529 566 529 566 384.5 c 128,-1,4
 566 240 566 240 477 132 c 128,-1,5
 388 24 388 24 243 -15 c 1,6,-1
 212 -7 l 2,7,8
 143 11 143 11 108 11 c 128,-1,9
 73 11 73 11 53 7 c 1,10,-1
 47 20 l 1,11,12
 68 42 68 42 75 99 c 0,13,14
 93 267 93 267 93 414.5 c 128,-1,15
 93 562 93 562 85 616 c 1,16,17
 51 622 51 622 28 633 c 1,18,-1
 29 651 l 1,0,-1
245 82 m 1,19,20
 260 73 260 73 298 73 c 128,-1,21
 336 73 336 73 360 94 c 1,22,23
 380 136 380 136 391 205.5 c 128,-1,24
 402 275 402 275 402 320.5 c 128,-1,25
 402 366 402 366 401.5 383.5 c 128,-1,26
 401 401 401 401 399 433.5 c 128,-1,27
 397 466 397 466 393.5 486 c 128,-1,28
 390 506 390 506 382 531 c 128,-1,29
 374 556 374 556 363 570 c 128,-1,30
 352 584 352 584 334.5 594 c 128,-1,31
 317 604 317 604 295 604 c 128,-1,32
 273 604 273 604 258 598 c 1,33,34
 240 410 240 410 240 192 c 0,35,36
 240 132 240 132 245 82 c 1,19,20
EndSplineSet
EndChar

StartChar: E
Encoding: 69 69 40
Width: 469
GlyphClass: 2
Flags: W
LayerCount: 2
Fore
SplineSet
266 567 m 0,0,1
 252 567 252 567 237 564 c 1,2,3
 231 549 231 549 231 524 c 0,4,5
 231 447 231 447 261.5 412.5 c 128,-1,6
 292 378 292 378 367 371 c 1,7,-1
 361 333 l 1,8,9
 280 333 280 333 234.5 295 c 128,-1,10
 189 257 189 257 189 180 c 0,11,12
 189 130 189 130 212.5 101.5 c 128,-1,13
 236 73 236 73 279.5 73 c 128,-1,14
 323 73 323 73 344 89 c 1,15,16
 353 113 353 113 353 140 c 128,-1,17
 353 167 353 167 337 187 c 1,18,-1
 339 195 l 1,19,20
 393 214 393 214 424 246 c 1,21,22
 454 241 454 241 454 200 c 0,23,24
 454 130 454 130 393 69.5 c 128,-1,25
 332 9 332 9 255 -15 c 1,26,27
 154 -15 154 -15 87.5 34 c 128,-1,28
 21 83 21 83 21 161 c 128,-1,29
 21 239 21 239 78.5 290 c 128,-1,30
 136 341 136 341 219 350 c 1,31,-1
 219 354 l 1,32,33
 157 362 157 362 114 393 c 128,-1,34
 71 424 71 424 71 476 c 1,35,36
 121 541 121 541 186 593.5 c 128,-1,37
 251 646 251 646 318 666 c 1,38,39
 409 666 409 666 470 630 c 1,40,41
 427 566 427 566 412 489 c 1,42,-1
 403 489 l 1,43,44
 367 526 367 526 335.5 546.5 c 128,-1,45
 304 567 304 567 266 567 c 0,0,1
EndSplineSet
EndChar

StartChar: F
Encoding: 70 70 41
Width: 481
GlyphClass: 2
Flags: W
LayerCount: 2
Fore
SplineSet
35 661 m 1,0,1
 118 651 118 651 260 651 c 128,-1,2
 402 651 402 651 489 666 c 1,3,-1
 495 655 l 1,4,5
 453 607 453 607 448 497 c 1,6,-1
 431 497 l 1,7,8
 422 525 422 525 415 573 c 1,9,10
 369 594 369 594 309 594 c 0,11,12
 290 594 290 594 265 589 c 1,13,14
 253 507 253 507 245 383 c 1,15,16
 264 379 264 379 311.5 379 c 128,-1,17
 359 379 359 379 410 396 c 1,18,-1
 415 390 l 1,19,20
 409 373 409 373 400 306 c 1,21,22
 330 316 330 316 291.5 316 c 128,-1,23
 253 316 253 316 242 314 c 1,24,25
 239 246 239 246 239 157 c 128,-1,26
 239 68 239 68 254 0 c 1,27,28
 121 -4 121 -4 67 -15 c 1,29,-1
 61 -10 l 1,30,31
 75 49 75 49 85.5 190 c 128,-1,32
 96 331 96 331 96 443.5 c 128,-1,33
 96 556 96 556 91 615 c 1,34,35
 49 629 49 629 31 641 c 1,36,-1
 35 661 l 1,0,1
EndSplineSet
EndChar

StartChar: G
Encoding: 71 71 42
Width: 544
GlyphClass: 2
Flags: W
LayerCount: 2
Fore
SplineSet
30 234 m 0,0,1
 30 506 30 506 309 666 c 1,2,3
 350 651 350 651 412 651 c 128,-1,4
 474 651 474 651 493 657 c 1,5,-1
 500 643 l 1,6,7
 473 607 473 607 457.5 540 c 128,-1,8
 442 473 442 473 442 420 c 1,9,-1
 425 420 l 1,10,11
 415 446 415 446 406 496 c 1,12,-1
 385 512 l 2,13,14
 308 570 308 570 252 570 c 1,15,16
 227 512 227 512 212 428 c 128,-1,17
 197 344 197 344 197 290 c 128,-1,18
 197 236 197 236 202 203 c 128,-1,19
 207 170 207 170 218.5 138.5 c 128,-1,20
 230 107 230 107 253.5 89 c 128,-1,21
 277 71 277 71 310 71 c 1,22,23
 323 77 323 77 340 94 c 1,24,-1
 342 181 l 2,25,26
 342 215 342 215 336 248 c 1,27,28
 304 256 304 256 265 274 c 1,29,-1
 267 295 l 1,30,31
 304 289 304 289 338 289 c 0,32,33
 417 289 417 289 483 321 c 1,34,-1
 493 314 l 1,35,36
 481 288 481 288 478 256 c 0,37,38
 461 113 461 113 459 -49 c 1,39,40
 411 -105 411 -105 328 -152.5 c 128,-1,41
 245 -200 245 -200 179.5 -200 c 128,-1,42
 114 -200 114 -200 114 -161 c 1,43,44
 172 -132 172 -132 199 -86 c 1,45,-1
 207 -86 l 1,46,47
 236 -115 236 -115 267 -115 c 128,-1,48
 298 -115 298 -115 309 -109 c 1,49,50
 336 -62 336 -62 339 33 c 1,51,52
 306 4 306 4 270 -15 c 1,53,54
 158 -15 158 -15 94 52.5 c 128,-1,55
 30 120 30 120 30 234 c 0,0,1
EndSplineSet
EndChar

StartChar: H
Encoding: 72 72 43
Width: 656
GlyphClass: 2
Flags: W
LayerCount: 2
Fore
SplineSet
242 315 m 1,0,1
 236 260 236 260 236 164 c 128,-1,2
 236 68 236 68 251 0 c 1,3,4
 118 -4 118 -4 64 -15 c 1,5,-1
 58 -10 l 1,6,7
 72 49 72 49 82.5 190 c 128,-1,8
 93 331 93 331 93 444 c 128,-1,9
 93 557 93 557 88 616 c 1,10,11
 54 622 54 622 31 633 c 1,12,-1
 32 651 l 1,13,14
 183 651 183 651 269 664 c 1,15,-1
 275 659 l 1,16,17
 256 575 256 575 245 395 c 1,18,19
 288 385 288 385 335.5 385 c 128,-1,20
 383 385 383 385 422 394 c 1,21,22
 424 444 424 444 424 465 c 0,23,24
 424 596 424 596 412 649 c 1,25,26
 545 653 545 653 599 664 c 1,27,-1
 605 659 l 1,28,29
 589 587 589 587 579.5 447 c 128,-1,30
 570 307 570 307 570 179 c 128,-1,31
 570 51 570 51 581 0 c 1,32,33
 453 -4 453 -4 394 -15 c 1,34,-1
 388 -10 l 1,35,36
 413 102 413 102 420 315 c 1,37,38
 378 322 378 322 331 322 c 128,-1,39
 284 322 284 322 242 315 c 1,0,1
EndSplineSet
EndChar

StartChar: I
Encoding: 73 73 44
Width: 327
GlyphClass: 2
Flags: W
LayerCount: 2
Fore
SplineSet
248 453 m 128,-1,1
 236 308 236 308 236 188 c 128,-1,2
 236 68 236 68 251 0 c 1,3,4
 118 -4 118 -4 64 -15 c 1,5,-1
 58 -10 l 1,6,7
 72 49 72 49 82.5 190 c 128,-1,8
 93 331 93 331 93 444 c 128,-1,9
 93 557 93 557 88 616 c 1,10,11
 54 622 54 622 31 633 c 1,12,-1
 32 651 l 1,13,14
 183 651 183 651 269 664 c 1,15,-1
 275 659 l 1,16,0
 260 598 260 598 248 453 c 128,-1,1
EndSplineSet
EndChar

StartChar: J
Encoding: 74 74 45
Width: 325
GlyphClass: 2
Flags: W
LayerCount: 2
Fore
SplineSet
245.5 443 m 128,-1,1
 234 301 234 301 234 195.5 c 128,-1,2
 234 90 234 90 254 13 c 1,3,4
 202 -49 202 -49 125 -106 c 128,-1,5
 48 -163 48 -163 -33 -201 c 1,6,-1
 -45 -185 l 1,7,8
 21 -122 21 -122 47 -42 c 0,9,10
 91 95 91 95 91 457 c 0,11,12
 91 557 91 557 86 616 c 1,13,14
 51 622 51 622 29 633 c 1,15,-1
 30 651 l 1,16,17
 181 651 181 651 267 664 c 1,18,-1
 273 659 l 1,19,0
 257 585 257 585 245.5 443 c 128,-1,1
EndSplineSet
EndChar

StartChar: K
Encoding: 75 75 46
Width: 581
GlyphClass: 2
Flags: W
LayerCount: 2
Fore
SplineSet
378 616 m 0,0,1
 378 622 378 622 376 646 c 1,2,-1
 383 651 l 1,3,4
 498 651 498 651 573 660 c 1,5,6
 547 586 547 586 496 513 c 128,-1,7
 445 440 445 440 382 385 c 1,8,9
 502 116 502 116 588 0 c 1,10,11
 481 -2 481 -2 394 -15 c 1,12,-1
 387 -13 l 1,13,14
 351 157 351 157 272 305 c 1,15,-1
 237 279 l 1,16,17
 236 247 236 247 236 157.5 c 128,-1,18
 236 68 236 68 251 0 c 1,19,20
 118 -4 118 -4 64 -15 c 1,21,-1
 58 -10 l 1,22,23
 72 49 72 49 82.5 190 c 128,-1,24
 93 331 93 331 93 444 c 128,-1,25
 93 557 93 557 88 616 c 1,26,27
 54 622 54 622 31 633 c 1,28,-1
 32 651 l 1,29,30
 183 651 183 651 269 664 c 1,31,-1
 275 659 l 1,32,33
 251 559 251 559 239 335 c 1,34,-1
 302 408 l 1,35,36
 378 494 378 494 378 616 c 0,0,1
EndSplineSet
EndChar

StartChar: L
Encoding: 76 76 47
Width: 427
GlyphClass: 2
Flags: W
LayerCount: 2
Fore
SplineSet
248 457 m 128,-1,1
 236 317 236 317 236 219.5 c 128,-1,2
 236 122 236 122 244 66 c 1,3,4
 270 62 270 62 323.5 62 c 128,-1,5
 377 62 377 62 429 81 c 1,6,-1
 434 75 l 1,7,8
 420 32 420 32 417 -13 c 1,9,10
 342 0 342 0 239 0 c 128,-1,11
 136 0 136 0 64 -15 c 1,12,-1
 58 -10 l 1,13,14
 72 49 72 49 82.5 190 c 128,-1,15
 93 331 93 331 93 444 c 128,-1,16
 93 557 93 557 88 616 c 1,17,18
 54 622 54 622 31 633 c 1,19,-1
 32 651 l 1,20,21
 183 651 183 651 269 664 c 1,22,-1
 275 659 l 1,23,0
 260 597 260 597 248 457 c 128,-1,1
EndSplineSet
EndChar

StartChar: M
Encoding: 77 77 48
Width: 741
GlyphClass: 2
Flags: W
LayerCount: 2
Fore
SplineSet
317 614 m 0,0,1
 317 543 317 543 351 387 c 2,2,-1
 372 289 l 1,3,-1
 379 291 l 1,4,5
 378 302 378 302 378 322 c 128,-1,6
 378 342 378 342 386 372 c 2,7,-1
 451 596 l 2,8,9
 457 615 457 615 457 628 c 128,-1,10
 457 641 457 641 454 647 c 1,11,-1
 457 654 l 1,12,13
 476 651 476 651 550 651 c 128,-1,14
 624 651 624 651 671 665 c 1,15,-1
 678 660 l 1,16,17
 656 544 656 544 656 316 c 128,-1,18
 656 88 656 88 677 0 c 1,19,20
 524 -9 524 -9 496 -15 c 1,21,-1
 489 -10 l 1,22,23
 512 113 512 113 512 324 c 0,24,25
 512 409 512 409 501 503 c 1,26,-1
 497 503 l 1,27,28
 423 274 423 274 414 195 c 0,29,30
 411 163 411 163 411 122 c 1,31,32
 402 119 402 119 370 111 c 0,33,34
 292 91 292 91 274 79 c 1,35,-1
 262 87 l 1,36,37
 264 109 264 109 264 120 c 0,38,39
 264 232 264 232 194 496 c 1,40,-1
 190 495 l 1,41,42
 146 231 146 231 144 0 c 1,43,44
 56 -2 56 -2 7 -14 c 1,45,-1
 1 -9 l 1,46,47
 34 90 34 90 78.5 301.5 c 128,-1,48
 123 513 123 513 132 616 c 1,49,50
 99 622 99 622 76 633 c 1,51,-1
 77 651 l 1,52,53
 232 651 232 651 318 664 c 1,54,-1
 323 659 l 1,55,56
 317 638 317 638 317 614 c 0,0,1
EndSplineSet
EndChar

StartChar: N
Encoding: 78 78 49
Width: 639
GlyphClass: 2
Flags: W
LayerCount: 2
Fore
SplineSet
560 466.5 m 128,-1,1
 549 333 549 333 549 210.5 c 128,-1,2
 549 88 549 88 564 0 c 1,3,4
 558 -1 558 -1 514 -3 c 0,5,6
 391 -9 391 -9 378 -13 c 1,7,-1
 371 -10 l 1,8,9
 319 170 319 170 210 407 c 0,10,11
 185 461 185 461 167 485 c 1,12,-1
 163 483 l 1,13,14
 163 306 163 306 172 172 c 128,-1,15
 181 38 181 38 189 0 c 1,16,17
 105 -5 105 -5 65 -15 c 1,18,-1
 59 -10 l 1,19,20
 73 49 73 49 83 188.5 c 128,-1,21
 93 328 93 328 93 437 c 128,-1,22
 93 546 93 546 83 616 c 1,23,24
 48 622 48 622 26 633 c 1,25,-1
 27 651 l 1,26,27
 203 651 203 651 289 664 c 1,28,29
 306 574 306 574 351.5 447 c 128,-1,30
 397 320 397 320 444 239 c 2,31,-1
 478 179 l 1,32,-1
 481 180 l 1,33,34
 481 357 481 357 472 484.5 c 128,-1,35
 463 612 463 612 455 651 c 1,36,37
 540 656 540 656 579 666 c 1,38,-1
 585 661 l 1,39,0
 571 600 571 600 560 466.5 c 128,-1,1
EndSplineSet
EndChar

StartChar: O
Encoding: 79 79 50
Width: 588
GlyphClass: 2
Flags: W
LayerCount: 2
Fore
SplineSet
391 396 m 0,0,1
 391 582 391 582 300 582 c 0,2,3
 269 582 269 582 250 571 c 1,4,5
 197 436 197 436 197 255 c 0,6,7
 197 177 197 177 219.5 122.5 c 128,-1,8
 242 68 242 68 288 68 c 0,9,10
 318 68 318 68 337 79 c 1,11,12
 364 133 364 133 377.5 225.5 c 128,-1,13
 391 318 391 318 391 396 c 0,0,1
30 238 m 0,14,15
 30 377 30 377 112 497 c 128,-1,16
 194 617 194 617 324 666 c 1,17,18
 558 666 558 666 558 413 c 0,19,20
 558 277 558 277 474 152 c 128,-1,21
 390 27 390 27 265 -15 c 1,22,23
 154 -15 154 -15 92 54 c 128,-1,24
 30 123 30 123 30 238 c 0,14,15
EndSplineSet
EndChar

StartChar: P
Encoding: 80 80 51
Width: 538
GlyphClass: 2
Flags: W
LayerCount: 2
Fore
SplineSet
32 651 m 1,0,-1
 324 662 l 1,1,2
 481 662 481 662 521 588 c 0,3,4
 537 558 537 558 537 514 c 0,5,6
 537 413 537 413 456 359 c 128,-1,7
 375 305 375 305 260 305 c 1,8,-1
 263 342 l 1,9,10
 368 342 368 342 368 484 c 0,11,12
 368 604 368 604 300 604 c 0,13,14
 277 604 277 604 256 598 c 1,15,16
 236 458 236 458 236 185 c 0,17,18
 236 68 236 68 251 0 c 1,19,20
 118 -4 118 -4 64 -15 c 1,21,-1
 58 -10 l 1,22,23
 72 49 72 49 82.5 190 c 128,-1,24
 93 331 93 331 93 444 c 128,-1,25
 93 557 93 557 88 616 c 1,26,27
 54 622 54 622 31 633 c 1,28,-1
 32 651 l 1,0,-1
EndSplineSet
EndChar

StartChar: Q
Encoding: 81 81 52
Width: 588
GlyphClass: 2
Flags: W
LayerCount: 2
Fore
SplineSet
30 238 m 0,0,1
 30 377 30 377 112 497 c 128,-1,2
 194 617 194 617 324 666 c 1,3,4
 558 666 558 666 558 413 c 0,5,6
 558 287 558 287 485 169 c 128,-1,7
 412 51 412 51 300 -1 c 1,8,9
 328 -10 328 -10 421.5 -69 c 128,-1,10
 515 -128 515 -128 563 -128 c 0,11,12
 583 -128 583 -128 593 -104.5 c 128,-1,13
 603 -81 603 -81 603 -53 c 1,14,-1
 607 -46 l 1,15,16
 660 -43 660 -43 712 -16 c 1,17,18
 724 -25 724 -25 724 -38 c 0,19,20
 724 -79 724 -79 659 -120.5 c 128,-1,21
 594 -162 594 -162 517 -186 c 128,-1,22
 440 -210 440 -210 393 -210 c 1,23,24
 350 -171 350 -171 321.5 -147.5 c 128,-1,25
 293 -124 293 -124 246 -100 c 128,-1,26
 199 -76 199 -76 156.5 -76 c 128,-1,27
 114 -76 114 -76 83 -100 c 1,28,-1
 65 -82 l 1,29,30
 90 -56 90 -56 129 -35.5 c 128,-1,31
 168 -15 168 -15 203 -9 c 1,32,33
 120 9 120 9 75 74.5 c 128,-1,34
 30 140 30 140 30 238 c 0,0,1
391 396 m 0,35,36
 391 582 391 582 300 582 c 0,37,38
 269 582 269 582 250 571 c 1,39,40
 197 436 197 436 197 255 c 0,41,42
 197 177 197 177 219.5 122.5 c 128,-1,43
 242 68 242 68 288 68 c 0,44,45
 318 68 318 68 337 79 c 1,46,47
 364 133 364 133 377.5 225.5 c 128,-1,48
 391 318 391 318 391 396 c 0,35,36
EndSplineSet
EndChar

StartChar: R
Encoding: 82 82 53
Width: 591
GlyphClass: 2
Flags: W
LayerCount: 2
Fore
SplineSet
32 651 m 1,0,-1
 324 662 l 1,1,2
 481 662 481 662 521 588 c 0,3,4
 537 558 537 558 537 514 c 0,5,6
 537 396 537 396 412 337 c 1,7,8
 526 106 526 106 605 0 c 1,9,10
 498 -2 498 -2 411 -15 c 1,11,-1
 404 -13 l 1,12,13
 393 39 393 39 358.5 130.5 c 128,-1,14
 324 222 324 222 281 305 c 1,15,-1
 256 305 l 1,16,-1
 259 342 l 1,17,18
 310 342 310 342 339 378.5 c 128,-1,19
 368 415 368 415 368 484 c 0,20,21
 368 604 368 604 300 604 c 0,22,23
 277 604 277 604 256 598 c 1,24,25
 236 458 236 458 236 185 c 0,26,27
 236 68 236 68 251 0 c 1,28,29
 118 -4 118 -4 64 -15 c 1,30,-1
 58 -10 l 1,31,32
 72 49 72 49 82.5 190 c 128,-1,33
 93 331 93 331 93 444 c 128,-1,34
 93 557 93 557 88 616 c 1,35,36
 54 622 54 622 31 633 c 1,37,-1
 32 651 l 1,0,-1
EndSplineSet
EndChar

StartChar: S
Encoding: 83 83 54
Width: 462
GlyphClass: 2
Flags: W
LayerCount: 2
Fore
SplineSet
185 577 m 1,0,1
 174 566 174 566 174 537.5 c 128,-1,2
 174 509 174 509 212.5 479 c 128,-1,3
 251 449 251 449 296.5 429 c 128,-1,4
 342 409 342 409 380.5 378.5 c 128,-1,5
 419 348 419 348 419 315 c 0,6,7
 419 239 419 239 347 139.5 c 128,-1,8
 275 40 275 40 198 -15 c 1,9,10
 144 -15 144 -15 96 13 c 128,-1,11
 48 41 48 41 18 88 c 2,12,-1
 1 115 l 1,13,14
 67 173 67 173 114 264 c 1,15,-1
 129 258 l 1,16,17
 123 238 123 238 123 205.5 c 128,-1,18
 123 173 123 173 153.5 133 c 128,-1,19
 184 93 184 93 224 78 c 1,20,21
 247 97 247 97 266 134.5 c 128,-1,22
 285 172 285 172 285 199 c 128,-1,23
 285 226 285 226 260.5 250 c 128,-1,24
 236 274 236 274 201 292.5 c 128,-1,25
 166 311 166 311 130.5 330 c 128,-1,26
 95 349 95 349 70.5 373.5 c 128,-1,27
 46 398 46 398 46 425 c 0,28,29
 46 487 46 487 107 563.5 c 128,-1,30
 168 640 168 640 231 666 c 1,31,32
 286 651 286 651 349.5 651 c 128,-1,33
 413 651 413 651 438 659 c 1,34,-1
 444 646 l 1,35,36
 417 610 417 610 402 551 c 128,-1,37
 387 492 387 492 387 441 c 1,38,-1
 370 441 l 1,39,40
 358 471 358 471 350 517 c 1,41,-1
 320 535 l 1,42,43
 252 577 252 577 185 577 c 1,0,1
EndSplineSet
EndChar

StartChar: T
Encoding: 84 84 55
Width: 528
GlyphClass: 2
Flags: W
LayerCount: 2
Fore
SplineSet
304 656 m 2,0,1
 416 647 416 647 450.5 647 c 128,-1,2
 485 647 485 647 497 651 c 1,3,4
 529 684 529 684 553 704 c 1,5,-1
 566 698 l 1,6,7
 532 634 532 634 519 550 c 1,8,-1
 496 557 l 2,9,10
 460 567 460 567 390 573 c 1,11,12
 365 385 365 385 365 226.5 c 128,-1,13
 365 68 365 68 380 0 c 1,14,15
 247 -4 247 -4 193 -15 c 1,16,-1
 187 -10 l 1,17,18
 201 49 201 49 211.5 190 c 128,-1,19
 222 331 222 331 222 426.5 c 128,-1,20
 222 522 222 522 219 584 c 1,21,22
 213 584 213 584 207 584 c 0,23,24
 136 584 136 584 104 552 c 1,25,26
 102 544 102 544 102 536 c 0,27,28
 102 504 102 504 116 483 c 1,29,-1
 116 475 l 1,30,31
 74 440 74 440 48 390 c 1,32,33
 31 390 31 390 22.5 405 c 128,-1,34
 14 420 14 420 14 440 c 0,35,36
 14 517 14 517 63.5 577 c 128,-1,37
 113 637 113 637 191 666 c 1,38,-1
 304 656 l 2,0,1
EndSplineSet
EndChar

StartChar: U
Encoding: 85 85 56
Width: 641
GlyphClass: 2
Flags: W
LayerCount: 2
Fore
SplineSet
85 205 m 1,0,-1
 100 457 l 1,1,2
 100 565 100 565 88 616 c 1,3,4
 54 622 54 622 31 633 c 1,5,-1
 32 651 l 1,6,7
 186 651 186 651 272 664 c 1,8,-1
 278 659 l 1,9,10
 263 594 263 594 252.5 481.5 c 128,-1,11
 242 369 242 369 242 298 c 128,-1,12
 242 227 242 227 243 202.5 c 128,-1,13
 244 178 244 178 249 147 c 0,14,15
 259 88 259 88 298 80 c 1,16,17
 361 125 361 125 396 200 c 1,18,19
 403 316 403 316 403 457 c 128,-1,20
 403 598 403 598 392 649 c 1,21,22
 526 653 526 653 579 664 c 1,23,-1
 585 659 l 1,24,25
 569 587 569 587 559.5 447 c 128,-1,26
 550 307 550 307 550 179 c 128,-1,27
 550 51 550 51 561 0 c 1,28,29
 430 -6 430 -6 387 -15 c 1,30,-1
 380 -10 l 1,31,32
 399 62 399 62 406 125 c 1,33,-1
 402 126 l 1,34,35
 346 22 346 22 263 -15 c 1,36,37
 165 -13 165 -13 125 42 c 128,-1,38
 85 97 85 97 85 205 c 1,0,-1
EndSplineSet
EndChar

StartChar: V
Encoding: 86 86 57
Width: 542
GlyphClass: 2
Flags: W
LayerCount: 2
Fore
SplineSet
370 514 m 0,0,1
 370 598 370 598 339 626 c 1,2,-1
 339 635 l 1,3,4
 424 658 424 658 475 690 c 1,5,6
 538 658 538 658 538 554 c 0,7,8
 538 294 538 294 285 -13 c 1,9,-1
 276 -15 l 1,10,-1
 242 1 l 2,11,12
 233 5 233 5 206 18.5 c 128,-1,13
 179 32 179 32 164 38 c 0,14,15
 119 57 119 57 91 57 c 128,-1,16
 63 57 63 57 50 53 c 1,17,-1
 45 67 l 1,18,19
 72 89 72 89 77 144 c 0,20,21
 91 315 91 315 91 436 c 128,-1,22
 91 557 91 557 86 616 c 1,23,24
 51 622 51 622 29 633 c 1,25,-1
 30 651 l 1,26,27
 181 651 181 651 267 664 c 1,28,-1
 273 659 l 1,29,30
 238 504 238 504 234 192 c 0,31,32
 234 155 234 155 235 133 c 1,33,34
 254 101 254 101 295 84 c 1,35,36
 370 296 370 296 370 514 c 0,0,1
EndSplineSet
EndChar

StartChar: W
Encoding: 87 87 58
Width: 778
GlyphClass: 2
Flags: W
LayerCount: 2
Fore
SplineSet
370 514 m 0,0,1
 370 624 370 624 318 642 c 1,2,-1
 320 656 l 1,3,4
 397 651 397 651 493.5 651 c 128,-1,5
 590 651 590 651 676.5 664 c 128,-1,6
 763 677 763 677 810 703 c 1,7,-1
 819 692 l 1,8,9
 800 669 800 669 758 642 c 1,10,11
 774 611 774 611 774 554 c 0,12,13
 774 405 774 405 702.5 252 c 128,-1,14
 631 99 631 99 517 -13 c 1,15,-1
 508 -15 l 1,16,-1
 474 1 l 1,17,18
 401 34 401 34 356 82 c 1,19,20
 323 33 323 33 285 -13 c 1,21,-1
 276 -15 l 1,22,-1
 242 1 l 2,23,24
 233 5 233 5 206 18.5 c 128,-1,25
 179 32 179 32 164 38 c 0,26,27
 119 57 119 57 91 57 c 128,-1,28
 63 57 63 57 50 53 c 1,29,-1
 45 67 l 1,30,31
 72 89 72 89 77 144 c 0,32,33
 91 315 91 315 91 436 c 128,-1,34
 91 557 91 557 86 616 c 1,35,36
 51 622 51 622 29 633 c 1,37,-1
 30 651 l 1,38,39
 181 651 181 651 267 664 c 1,40,-1
 273 659 l 1,41,42
 238 504 238 504 234 192 c 0,43,44
 234 155 234 155 235 133 c 1,45,46
 254 101 254 101 295 84 c 1,47,48
 370 296 370 296 370 514 c 0,0,1
606 514 m 0,49,50
 606 570 606 570 590 596 c 128,-1,51
 574 622 574 622 534 622 c 0,52,53
 532 622 532 622 510 620 c 1,54,55
 518 607 518 607 518 554 c 0,56,57
 518 389 518 389 431 212 c 1,58,59
 442 177 442 177 475.5 133.5 c 128,-1,60
 509 90 509 90 537 84 c 1,61,62
 606 279 606 279 606 514 c 0,49,50
EndSplineSet
EndChar

StartChar: X
Encoding: 88 88 59
Width: 526
GlyphClass: 2
Flags: W
LayerCount: 2
Fore
SplineSet
355 511.5 m 128,-1,1
 374 573 374 573 374 602.5 c 128,-1,2
 374 632 374 632 369 646 c 1,3,-1
 373 651 l 1,4,5
 468 651 468 651 527 666 c 1,6,7
 524 609 524 609 481 540 c 0,8,9
 439 473 439 473 412 441.5 c 128,-1,10
 385 410 385 410 361 382 c 128,-1,11
 337 354 337 354 333 349 c 1,12,13
 368 262 368 262 419 173 c 1,14,15
 475 70 475 70 527 0 c 1,16,17
 398 -2 398 -2 313 -15 c 1,18,-1
 306 -13 l 1,19,20
 249 183 249 183 221 262 c 1,21,22
 197 209 197 209 177.5 141.5 c 128,-1,23
 158 74 158 74 158 47 c 128,-1,24
 158 20 158 20 163 6 c 1,25,-1
 159 1 l 1,26,27
 64 1 64 1 5 -14 c 1,28,29
 8 32 8 32 45.5 100 c 128,-1,30
 83 168 83 168 116.5 212 c 128,-1,31
 150 256 150 256 201 316 c 1,32,33
 168 397 168 397 126 478 c 1,34,35
 92 538 92 538 42 616 c 1,36,37
 9 622 9 622 -14 633 c 1,38,-1
 -13 651 l 1,39,40
 142 651 142 651 235 665 c 1,41,-1
 240 659 l 1,42,43
 291 468 291 468 313 405 c 1,44,0
 336 450 336 450 355 511.5 c 128,-1,1
EndSplineSet
EndChar

StartChar: Y
Encoding: 89 89 60
Width: 526
GlyphClass: 2
Flags: W
LayerCount: 2
Fore
SplineSet
354 491.5 m 128,-1,1
 374 571 374 571 374 601.5 c 128,-1,2
 374 632 374 632 369 646 c 1,3,-1
 373 651 l 1,4,5
 468 651 468 651 527 666 c 1,6,7
 523 597 523 597 467.5 503.5 c 128,-1,8
 412 410 412 410 343 327 c 1,9,10
 338 258 338 258 338 163 c 128,-1,11
 338 68 338 68 353 0 c 1,12,13
 220 -4 220 -4 166 -15 c 1,14,-1
 160 -10 l 1,15,16
 187 101 187 101 194 294 c 1,17,18
 103 535 103 535 42 616 c 1,19,20
 9 622 9 622 -14 633 c 1,21,-1
 -13 651 l 1,22,23
 142 651 142 651 235 665 c 1,24,-1
 240 659 l 1,25,26
 249 555 249 555 313 371 c 1,27,0
 334 412 334 412 354 491.5 c 128,-1,1
EndSplineSet
EndChar

StartChar: Z
Encoding: 90 90 61
Width: 487
GlyphClass: 2
Flags: W
LayerCount: 2
Fore
SplineSet
260 683 m 1,0,1
 310 651 310 651 373.5 651 c 128,-1,2
 437 651 437 651 470 680 c 1,3,-1
 486 670 l 1,4,5
 470 649 470 649 413.5 556 c 128,-1,6
 357 463 357 463 309 375 c 1,7,-1
 191 153 l 1,8,-1
 195 150 l 1,9,10
 213 158 213 158 218 159 c 1,11,12
 289 113 289 113 341 113 c 0,13,14
 369 113 369 113 369 168 c 0,15,16
 369 178 369 178 367 194 c 1,17,-1
 370 201 l 1,18,19
 424 215 424 215 468 249 c 1,20,21
 484 241 484 241 484 221 c 0,22,23
 484 160 484 160 387.5 65.5 c 128,-1,24
 291 -29 291 -29 225 -44 c 1,25,26
 121 17 121 17 67 17 c 128,-1,27
 13 17 13 17 -13 -14 c 1,28,-1
 -28 -1 l 1,29,30
 2 35 2 35 115 220 c 2,31,-1
 284 497 l 1,32,-1
 281 500 l 1,33,34
 274 496 274 496 258 492 c 1,35,36
 240 501 240 501 227 508 c 128,-1,37
 214 515 214 515 204 519 c 0,38,39
 187 526 187 526 168 526 c 0,40,41
 140 526 140 526 140 471 c 0,42,43
 140 461 140 461 142 445 c 1,44,-1
 139 438 l 1,45,46
 85 424 85 424 41 390 c 1,47,48
 25 398 25 398 25 418 c 0,49,50
 25 474 25 474 110.5 563.5 c 128,-1,51
 196 653 196 653 260 683 c 1,0,1
EndSplineSet
EndChar

StartChar: bracketleft
Encoding: 91 91 62
Width: 320
GlyphClass: 2
Flags: W
LayerCount: 2
Fore
SplineSet
243 -193 m 0,0,1
 134 -193 134 -193 71 -208 c 1,2,-1
 64 -203 l 1,3,4
 80 -133 80 -133 104 220.5 c 128,-1,5
 128 574 128 574 128 631.5 c 128,-1,6
 128 689 128 689 127 699 c 1,7,-1
 135 704 l 1,8,9
 195 689 195 689 305 689 c 0,10,11
 318 689 318 689 332 689 c 1,12,-1
 330 664 l 1,13,14
 277 662 277 662 207 644 c 1,15,-1
 151 -147 l 1,16,17
 220 -166 220 -166 271 -168 c 1,18,-1
 270 -193 l 1,19,20
 256 -193 256 -193 243 -193 c 0,0,1
EndSplineSet
EndChar

StartChar: backslash
Encoding: 92 92 63
Width: 284
GlyphClass: 2
Flags: W
LayerCount: 2
Fore
SplineSet
219 -48 m 1,0,-1
 212 -48 l 1,1,-1
 75 460 l 2,2,3
 35 606 35 606 7 694 c 1,4,5
 50 708 50 708 74 722 c 1,6,-1
 80 722 l 1,7,8
 104 594 104 594 134 480 c 1,9,-1
 219 179 l 1,10,11
 242 93 242 93 277 -11 c 1,12,13
 256 -33 256 -33 219 -48 c 1,0,-1
EndSplineSet
EndChar

StartChar: bracketright
Encoding: 93 93 64
Width: 320
GlyphClass: 2
Flags: W
LayerCount: 2
Fore
SplineSet
77 689 m 0,0,1
 186 689 186 689 249 704 c 1,2,-1
 256 699 l 1,3,4
 240 629 240 629 216 275.5 c 128,-1,5
 192 -78 192 -78 192 -135.5 c 128,-1,6
 192 -193 192 -193 193 -203 c 1,7,-1
 185 -208 l 1,8,9
 125 -193 125 -193 15 -193 c 0,10,11
 2 -193 2 -193 -12 -193 c 1,12,-1
 -10 -168 l 1,13,14
 43 -166 43 -166 113 -148 c 1,15,-1
 169 643 l 1,16,17
 100 662 100 662 49 664 c 1,18,-1
 50 689 l 1,19,20
 64 689 64 689 77 689 c 0,0,1
EndSplineSet
EndChar

StartChar: asciicircum
Encoding: 94 94 65
Width: 518
GlyphClass: 2
Flags: W
LayerCount: 2
Fore
SplineSet
259 550 m 1,0,-1
 79 278 l 1,1,-1
 45 296 l 1,2,3
 103 399 103 399 139.5 474 c 128,-1,4
 176 549 176 549 231 686 c 1,5,-1
 284 696 l 1,6,7
 341 556 341 556 379 475.5 c 128,-1,8
 417 395 417 395 473 296 c 1,9,-1
 439 278 l 1,10,-1
 259 550 l 1,0,-1
EndSplineSet
EndChar

StartChar: underscore
Encoding: 95 95 66
Width: 663
GlyphClass: 2
Flags: W
LayerCount: 2
Fore
SplineSet
47 -125 m 1,0,1
 200 -137 200 -137 388.5 -137 c 128,-1,2
 577 -137 577 -137 647 -131 c 1,3,-1
 656 -139 l 1,4,-1
 616 -194 l 1,5,-1
 18 -194 l 1,6,-1
 7 -184 l 1,7,-1
 47 -125 l 1,0,1
EndSplineSet
EndChar

StartChar: grave
Encoding: 96 96 67
Width: 278
GlyphClass: 2
Flags: W
LayerCount: 2
Fore
SplineSet
-6 745 m 1,0,1
 5 747 5 747 19.5 747 c 128,-1,2
 34 747 34 747 48 746 c 1,3,4
 93 663 93 663 238 567 c 1,5,-1
 224 543 l 1,6,-1
 -40 648 l 1,7,8
 -39 664 -39 664 -27.5 699.5 c 128,-1,9
 -16 735 -16 735 -6 745 c 1,0,1
EndSplineSet
EndChar

StartChar: a
Encoding: 97 97 68
Width: 522
GlyphClass: 2
Flags: W
LayerCount: 2
Fore
SplineSet
22 159 m 0,0,1
 22 270 22 270 91 363 c 128,-1,2
 160 456 160 456 269 505 c 1,3,4
 327 505 327 505 400 470 c 1,5,6
 425 515 425 515 442 537 c 1,7,-1
 458 532 l 1,8,9
 424 443 424 443 424 250 c 0,10,11
 424 141 424 141 432 87 c 1,12,13
 467 131 467 131 503 248 c 1,14,-1
 519 244 l 1,15,16
 483 42 483 42 400 -15 c 1,17,18
 332 -15 332 -15 309 29 c 128,-1,19
 286 73 286 73 286 159 c 1,20,-1
 302 240 l 1,21,-1
 285 242 l 1,22,23
 267 153 267 153 240.5 87 c 128,-1,24
 214 21 214 21 164 -15 c 1,25,26
 98 -15 98 -15 60 35.5 c 128,-1,27
 22 86 22 86 22 159 c 0,0,1
206 422 m 1,28,29
 177 304 177 304 177 203 c 128,-1,30
 177 102 177 102 194 88 c 1,31,32
 229 135 229 135 254 235 c 128,-1,33
 279 335 279 335 279 402 c 1,34,35
 260 429 260 429 238 429 c 128,-1,36
 216 429 216 429 206 422 c 1,28,29
EndSplineSet
EndChar

StartChar: b
Encoding: 98 98 69
Width: 499
GlyphClass: 2
Flags: W
LayerCount: 2
Fore
SplineSet
479 357 m 0,0,1
 479 236 479 236 412.5 139.5 c 128,-1,2
 346 43 346 43 231 -15 c 1,3,-1
 199 -7 l 2,4,5
 124 11 124 11 89.5 11 c 128,-1,6
 55 11 55 11 35 7 c 1,7,-1
 29 20 l 1,8,9
 51 43 51 43 59.5 106.5 c 128,-1,10
 68 170 68 170 68 303 c 2,11,-1
 68 412 l 2,12,13
 68 544 68 544 56 621 c 1,14,15
 23 627 23 627 -4 638 c 1,16,-1
 -4 656 l 1,17,18
 147 656 147 656 257 703 c 1,19,-1
 265 690 l 1,20,21
 221 620 221 620 217 489 c 2,22,-1
 213 334 l 1,23,24
 207 300 207 300 195 254 c 1,25,-1
 211 253 l 1,26,27
 231 345 231 345 261 409 c 128,-1,28
 291 473 291 473 349 505 c 1,29,30
 479 493 479 493 479 357 c 0,0,1
213 86 m 1,31,32
 242 61 242 61 260.5 61 c 128,-1,33
 279 61 279 61 284 65 c 1,34,35
 299 112 299 112 310 192 c 128,-1,36
 321 272 321 272 321 329.5 c 128,-1,37
 321 387 321 387 302 402 c 1,38,39
 267 355 267 355 244 268.5 c 128,-1,40
 221 182 221 182 213 100 c 1,41,-1
 213 86 l 1,31,32
EndSplineSet
EndChar

StartChar: c
Encoding: 99 99 70
Width: 348
GlyphClass: 2
Flags: W
LayerCount: 2
Fore
SplineSet
20 167 m 0,0,1
 20 269 20 269 83.5 357.5 c 128,-1,2
 147 446 147 446 246 505 c 1,3,4
 293 490 293 490 317 490 c 128,-1,5
 341 490 341 490 352 494 c 1,6,-1
 358 479 l 1,7,8
 313 429 313 429 306 307 c 1,9,-1
 288 307 l 1,10,11
 283 326 283 326 277 357 c 1,12,-1
 263 378 l 2,13,14
 254 393 254 393 235 408 c 128,-1,15
 216 423 216 423 202 424 c 1,16,17
 175 326 175 326 175 215 c 128,-1,18
 175 104 175 104 221 88 c 1,19,20
 266 131 266 131 298 215 c 1,21,-1
 322 210 l 1,22,23
 285 54 285 54 187 -15 c 1,24,25
 110 -13 110 -13 65 37.5 c 128,-1,26
 20 88 20 88 20 167 c 0,0,1
EndSplineSet
EndChar

StartChar: d
Encoding: 100 100 71
Width: 432
GlyphClass: 2
Flags: W
LayerCount: 2
Fore
SplineSet
429 418 m 0,0,1
 429 286 429 286 363.5 166 c 128,-1,2
 298 46 298 46 187 -15 c 1,3,4
 110 -8 110 -8 70 46 c 128,-1,5
 30 100 30 100 30 183 c 0,6,7
 30 347 30 347 197 461 c 1,8,9
 107 518 107 518 34 536 c 2,10,-1
 -2 545 l 1,11,12
 17 592 17 592 17 637 c 128,-1,13
 17 682 17 682 13 707 c 1,14,-1
 31 710 l 1,15,16
 43 683 43 683 86.5 658.5 c 128,-1,17
 130 634 130 634 206 597 c 1,18,-1
 419 490 l 1,19,20
 429 462 429 462 429 418 c 0,0,1
185 215 m 0,21,22
 185 178 185 178 186.5 155.5 c 128,-1,23
 188 133 188 133 198 103 c 128,-1,24
 208 73 208 73 228 63 c 1,25,26
 253 109 253 109 268 200 c 128,-1,27
 283 291 283 291 283 333.5 c 128,-1,28
 283 376 283 376 280 396 c 1,29,30
 267 414 267 414 229 439 c 1,31,-1
 211 416 l 1,32,33
 185 332 185 332 185 215 c 0,21,22
EndSplineSet
EndChar

StartChar: e
Encoding: 101 101 72
Width: 380
GlyphClass: 2
Flags: W
LayerCount: 2
Fore
SplineSet
176 257 m 1,0,1
 176 244 176 244 176 210 c 128,-1,2
 176 176 176 176 184.5 136.5 c 128,-1,3
 193 97 193 97 225 88 c 1,4,5
 255 108 255 108 284 143 c 128,-1,6
 313 178 313 178 327 213 c 1,7,-1
 350 205 l 1,8,9
 332 145 332 145 288.5 82.5 c 128,-1,10
 245 20 245 20 196 -15 c 1,11,12
 112 -15 112 -15 66 37.5 c 128,-1,13
 20 90 20 90 20 172 c 128,-1,14
 20 254 20 254 60.5 328 c 128,-1,15
 101 402 101 402 169.5 451 c 128,-1,16
 238 500 238 500 314 505 c 1,17,-1
 328 498 l 1,18,19
 330 483 330 483 334 440 c 0,20,21
 342 358 342 358 355 313 c 1,22,23
 376 309 376 309 394 301 c 1,24,-1
 394 285 l 1,25,26
 274 285 274 285 176 257 c 1,0,1
229 303 m 1,27,-1
 229 444 l 1,28,29
 205 440 205 440 191.5 385 c 128,-1,30
 178 330 178 330 177 287 c 1,31,32
 202 297 202 297 229 303 c 1,27,-1
EndSplineSet
EndChar

StartChar: f
Encoding: 102 102 73
Width: 300
GlyphClass: 2
Flags: W
LayerCount: 2
Fore
SplineSet
218 275 m 0,0,1
 218 62 218 62 234 0 c 1,2,3
 94 -79 94 -79 77 -202 c 1,4,-1
 55 -200 l 1,5,6
 53 -187 53 -187 53 -166.5 c 128,-1,7
 53 -146 53 -146 64 -2 c 0,8,9
 77 158 77 158 77 251.5 c 128,-1,10
 77 345 77 345 69 440 c 1,11,-1
 28 443 l 1,12,-1
 25 462 l 1,13,14
 45 475 45 475 70 484 c 1,15,16
 84 554 84 554 137.5 607.5 c 128,-1,17
 191 661 191 661 273 711 c 1,18,-1
 296 700 l 2,19,20
 338 680 338 680 383 680 c 1,21,-1
 389 665 l 1,22,23
 346 620 346 620 323 552 c 1,24,-1
 307 551 l 1,25,-1
 292 578 l 2,26,27
 281 598 281 598 262 614 c 128,-1,28
 243 630 243 630 226 632 c 1,29,30
 181 596 181 596 181 548 c 128,-1,31
 181 500 181 500 228 492 c 1,32,33
 239 493 239 493 305 509 c 1,34,-1
 311 502 l 1,35,36
 297 462 297 462 293 423 c 1,37,38
 247 431 247 431 229 432 c 1,39,40
 218 353 218 353 218 275 c 0,0,1
EndSplineSet
EndChar

StartChar: g
Encoding: 103 103 74
Width: 501
GlyphClass: 2
Flags: W
LayerCount: 2
Fore
SplineSet
23 159 m 0,0,1
 23 270 23 270 92 363 c 128,-1,2
 161 456 161 456 270 505 c 1,3,4
 341 490 341 490 402 490 c 128,-1,5
 463 490 463 490 483 501 c 1,6,-1
 493 488 l 1,7,8
 478 472 478 472 452 451 c 1,9,10
 430 313 430 313 430 176.5 c 128,-1,11
 430 40 430 40 468 -65 c 1,12,13
 402 -111 402 -111 337 -215 c 1,14,-1
 306 -200 l 2,15,16
 254 -175 254 -175 183.5 -155.5 c 128,-1,17
 113 -136 113 -136 61 -136 c 0,18,19
 -20 -136 -20 -136 -76 -195 c 1,20,-1
 -92 -184 l 1,21,22
 -21 -91 -21 -91 136 -12 c 1,23,24
 82 -1 82 -1 52.5 47 c 128,-1,25
 23 95 23 95 23 159 c 0,0,1
254.5 -50 m 128,-1,27
 332 -68 332 -68 363.5 -68 c 128,-1,28
 395 -68 395 -68 408 -57 c 1,29,30
 355 -25 355 -25 321 35 c 128,-1,31
 287 95 287 95 287 159 c 1,32,33
 291 180 291 180 303 240 c 1,34,-1
 286 242 l 1,35,36
 262 124 262 124 231.5 65.5 c 128,-1,37
 201 7 201 7 144 -32 c 1,38,26
 177 -32 177 -32 254.5 -50 c 128,-1,27
207 422 m 1,39,40
 178 304 178 304 178 203 c 128,-1,41
 178 102 178 102 195 88 c 1,42,43
 230 135 230 135 255 235 c 128,-1,44
 280 335 280 335 280 402 c 1,45,46
 260 429 260 429 238.5 429 c 128,-1,47
 217 429 217 429 207 422 c 1,39,40
EndSplineSet
EndChar

StartChar: h
Encoding: 104 104 75
Width: 534
GlyphClass: 2
Flags: W
LayerCount: 2
Fore
SplineSet
466 387 m 0,0,1
 466 334 466 334 447.5 235 c 128,-1,2
 429 136 429 136 429 82 c 1,3,4
 477 136 477 136 513 248 c 1,5,-1
 529 244 l 1,6,7
 493 50 493 50 395 -15 c 1,8,9
 285 -15 285 -15 285 76 c 0,10,11
 285 113 285 113 300.5 207.5 c 128,-1,12
 316 302 316 302 316 347 c 128,-1,13
 316 392 316 392 306 402 c 1,14,15
 269 361 269 361 239 253 c 128,-1,16
 209 145 209 145 209 93.5 c 128,-1,17
 209 42 209 42 217 0 c 1,18,19
 132 0 132 0 53 -15 c 1,20,-1
 47 -10 l 1,21,22
 67 59 67 59 67 274.5 c 128,-1,23
 67 490 67 490 60.5 571 c 128,-1,24
 54 652 54 652 36 700 c 1,25,-1
 55 707 l 1,26,27
 71 691 71 691 126 616 c 1,28,29
 160 659 160 659 212 695 c 128,-1,30
 264 731 264 731 317 750 c 1,31,-1
 326 734 l 1,32,33
 265 696 265 696 240.5 633.5 c 128,-1,34
 216 571 216 571 214 475 c 2,35,-1
 210 334 l 1,36,37
 204 300 204 300 192 254 c 1,38,-1
 208 253 l 1,39,40
 251 449 251 449 353 505 c 1,41,42
 466 505 466 505 466 387 c 0,0,1
EndSplineSet
EndChar

StartChar: i
Encoding: 105 105 76
Width: 299
GlyphClass: 2
Flags: W
LayerCount: 2
Fore
SplineSet
7 490 m 1,0,1
 161 490 161 490 242 505 c 1,2,-1
 249 492 l 1,3,4
 230 450 230 450 218 347 c 128,-1,5
 206 244 206 244 206 178 c 128,-1,6
 206 112 206 112 207 87 c 1,7,8
 242 131 242 131 278 248 c 1,9,-1
 294 244 l 1,10,11
 258 42 258 42 175 -15 c 1,12,13
 111 -15 111 -15 84 14.5 c 128,-1,14
 57 44 57 44 57 110 c 0,15,16
 57 136 57 136 64 238.5 c 128,-1,17
 71 341 71 341 71 385.5 c 128,-1,18
 71 430 71 430 68 455 c 1,19,20
 25 464 25 464 7 472 c 1,21,-1
 7 490 l 1,0,1
245 645 m 1,22,23
 230 622 230 622 200.5 590 c 128,-1,24
 171 558 171 558 150 543 c 1,25,26
 110 573 110 573 75 645 c 1,27,28
 86 665 86 665 115 690 c 128,-1,29
 144 715 144 715 168 727 c 1,30,31
 207 702 207 702 245 645 c 1,22,23
EndSplineSet
EndChar

StartChar: j
Encoding: 106 106 77
Width: 285
GlyphClass: 2
Flags: W
LayerCount: 2
Fore
SplineSet
245 645 m 1,0,1
 230 622 230 622 200.5 590 c 128,-1,2
 171 558 171 558 150 543 c 1,3,4
 110 573 110 573 75 645 c 1,5,6
 86 665 86 665 115 690 c 128,-1,7
 144 715 144 715 168 727 c 1,8,9
 207 702 207 702 245 645 c 1,0,1
218 275 m 0,10,11
 218 62 218 62 234 0 c 1,12,13
 94 -79 94 -79 77 -202 c 1,14,-1
 55 -200 l 1,15,16
 53 -187 53 -187 53 -166.5 c 128,-1,17
 53 -146 53 -146 64 -2 c 0,18,19
 77 157 77 157 77 265.5 c 128,-1,20
 77 374 77 374 68 455 c 1,21,22
 25 464 25 464 7 472 c 1,23,-1
 7 490 l 1,24,25
 156 490 156 490 237 505 c 1,26,-1
 244 492 l 1,27,28
 233 468 233 468 225.5 399 c 128,-1,29
 218 330 218 330 218 275 c 0,10,11
EndSplineSet
EndChar

StartChar: k
Encoding: 107 107 78
Width: 532
GlyphClass: 2
Flags: W
LayerCount: 2
Fore
SplineSet
67 303 m 2,0,-1
 67 412 l 2,1,2
 67 544 67 544 55 621 c 1,3,4
 22 627 22 627 -5 638 c 1,5,-1
 -5 656 l 1,6,7
 146 656 146 656 256 703 c 1,8,-1
 264 690 l 1,9,10
 220 620 220 620 216 489 c 2,11,-1
 212 334 l 1,12,-1
 194 254 l 1,13,-1
 210 253 l 1,14,15
 253 449 253 449 355 505 c 1,16,17
 468 505 468 505 468 391 c 0,18,19
 468 302 468 302 378 254 c 1,20,21
 408 108 408 108 435 92 c 1,22,23
 482 145 482 145 515 248 c 1,24,-1
 531 244 l 1,25,26
 495 50 495 50 397 -15 c 1,27,28
 347 -15 347 -15 320.5 6.5 c 128,-1,29
 294 28 294 28 286 76 c 0,30,31
 273 154 273 154 267 228 c 1,32,-1
 267 238 l 1,33,34
 292 240 292 240 304.5 256 c 128,-1,35
 317 272 317 272 319.5 290 c 128,-1,36
 322 308 322 308 322 348 c 128,-1,37
 322 388 322 388 308 402 c 1,38,39
 271 361 271 361 241 253 c 128,-1,40
 211 145 211 145 211 93.5 c 128,-1,41
 211 42 211 42 219 0 c 1,42,43
 132 0 132 0 53 -15 c 1,44,-1
 47 -10 l 1,45,46
 67 59 67 59 67 303 c 2,0,-1
EndSplineSet
EndChar

StartChar: l
Encoding: 108 108 79
Width: 292
GlyphClass: 2
Flags: W
LayerCount: 2
Fore
SplineSet
200 118 m 0,0,1
 200 102 200 102 200 87 c 1,2,3
 235 131 235 131 271 248 c 1,4,-1
 287 244 l 1,5,6
 251 42 251 42 168 -15 c 1,7,8
 104 -15 104 -15 77 14.5 c 128,-1,9
 50 44 50 44 50 99.5 c 128,-1,10
 50 155 50 155 60.5 285 c 128,-1,11
 71 415 71 415 71 474.5 c 128,-1,12
 71 534 71 534 59 621 c 1,13,14
 26 627 26 627 -1 638 c 1,15,-1
 -1 656 l 1,16,17
 60 656 60 656 134.5 668 c 128,-1,18
 209 680 209 680 263 703 c 1,19,-1
 271 690 l 1,20,21
 229 624 229 624 214.5 442 c 128,-1,22
 200 260 200 260 200 118 c 0,0,1
EndSplineSet
EndChar

StartChar: m
Encoding: 109 109 80
Width: 774
GlyphClass: 2
Flags: W
LayerCount: 2
Fore
SplineSet
706 387 m 0,0,1
 706 334 706 334 687.5 235 c 128,-1,2
 669 136 669 136 669 82 c 1,3,4
 717 136 717 136 753 248 c 1,5,-1
 769 244 l 1,6,7
 733 50 733 50 635 -15 c 1,8,9
 525 -15 525 -15 525 76 c 0,10,11
 525 113 525 113 540.5 207.5 c 128,-1,12
 556 302 556 302 556 347 c 128,-1,13
 556 392 556 392 546 402 c 1,14,15
 510 361 510 361 480.5 257.5 c 128,-1,16
 451 154 451 154 449 87 c 1,17,-1
 449 81 l 2,18,19
 449 42 449 42 457 0 c 1,20,21
 379 0 379 0 300 -15 c 1,22,-1
 294 -10 l 1,23,24
 302 18 302 18 315.5 131 c 128,-1,25
 329 244 329 244 329 318 c 128,-1,26
 329 392 329 392 319 402 c 1,27,28
 282 361 282 361 252 253 c 128,-1,29
 222 145 222 145 222 93.5 c 128,-1,30
 222 42 222 42 230 0 c 1,31,32
 145 0 145 0 66 -15 c 1,33,-1
 60 -10 l 1,34,35
 80 59 80 59 80 224 c 128,-1,36
 80 389 80 389 71 455 c 1,37,38
 28 464 28 464 10 472 c 1,39,-1
 10 490 l 1,40,41
 159 490 159 490 240 505 c 1,42,-1
 247 492 l 1,43,44
 223 430 223 430 223 334 c 1,45,46
 217 300 217 300 205 254 c 1,47,-1
 221 253 l 1,48,49
 264 449 264 449 366 505 c 1,50,51
 420 505 420 505 443 479 c 128,-1,52
 466 453 466 453 466 397 c 1,53,54
 449 352 449 352 432 254 c 1,55,-1
 448 253 l 1,56,57
 491 449 491 449 593 505 c 1,58,59
 706 505 706 505 706 387 c 0,0,1
EndSplineSet
EndChar

StartChar: n
Encoding: 110 110 81
Width: 542
GlyphClass: 2
Flags: W
LayerCount: 2
Fore
SplineSet
474 387 m 0,0,1
 474 334 474 334 455.5 235 c 128,-1,2
 437 136 437 136 437 82 c 1,3,4
 485 136 485 136 521 248 c 1,5,-1
 537 244 l 1,6,7
 501 50 501 50 403 -15 c 1,8,9
 293 -15 293 -15 293 76 c 0,10,11
 293 113 293 113 308.5 207.5 c 128,-1,12
 324 302 324 302 324 347 c 128,-1,13
 324 392 324 392 314 402 c 1,14,15
 277 361 277 361 247 253 c 128,-1,16
 217 145 217 145 217 93.5 c 128,-1,17
 217 42 217 42 225 0 c 1,18,19
 140 0 140 0 61 -15 c 1,20,-1
 55 -10 l 1,21,22
 75 59 75 59 75 224 c 128,-1,23
 75 389 75 389 66 455 c 1,24,25
 23 464 23 464 5 472 c 1,26,-1
 5 490 l 1,27,28
 154 490 154 490 235 505 c 1,29,-1
 242 492 l 1,30,31
 218 430 218 430 218 334 c 1,32,33
 212 300 212 300 200 254 c 1,34,-1
 216 253 l 1,35,36
 259 449 259 449 361 505 c 1,37,38
 474 505 474 505 474 387 c 0,0,1
EndSplineSet
EndChar

StartChar: o
Encoding: 111 111 82
Width: 443
GlyphClass: 2
Flags: W
LayerCount: 2
Fore
SplineSet
249 419 m 0,0,1
 239 431 239 431 225.5 431 c 128,-1,2
 212 431 212 431 199 426 c 1,3,4
 174 326 174 326 174 194 c 0,5,6
 174 93 174 93 194 70 c 0,7,8
 203 59 203 59 216 59 c 128,-1,9
 229 59 229 59 242 64 c 1,10,11
 268 165 268 165 268 280.5 c 128,-1,12
 268 396 268 396 249 419 c 0,0,1
66.5 38 m 128,-1,14
 20 91 20 91 20 185 c 128,-1,15
 20 279 20 279 84.5 368.5 c 128,-1,16
 149 458 149 458 244 505 c 1,17,18
 334 505 334 505 378.5 454.5 c 128,-1,19
 423 404 423 404 423 307 c 128,-1,20
 423 210 423 210 358.5 120 c 128,-1,21
 294 30 294 30 198 -15 c 1,22,13
 113 -15 113 -15 66.5 38 c 128,-1,14
EndSplineSet
EndChar

StartChar: p
Encoding: 112 112 83
Width: 506
GlyphClass: 2
Flags: W
LayerCount: 2
Fore
SplineSet
79 154 m 2,0,1
 79 169 79 169 79 206.5 c 128,-1,2
 79 244 79 244 76 330 c 128,-1,3
 73 416 73 416 68 455 c 1,4,5
 25 464 25 464 7 472 c 1,6,-1
 7 490 l 1,7,8
 156 490 156 490 237 505 c 1,9,-1
 244 492 l 1,10,11
 220 430 220 430 220 334 c 1,12,-1
 202 254 l 1,13,-1
 218 253 l 1,14,15
 238 345 238 345 268 409 c 128,-1,16
 298 473 298 473 356 505 c 1,17,18
 486 493 486 493 486 357 c 0,19,20
 486 236 486 236 419.5 139.5 c 128,-1,21
 353 43 353 43 238 -15 c 1,22,-1
 206 -7 l 1,23,24
 207 -24 207 -24 223 -133 c 1,25,-1
 229 -170 l 1,26,27
 124 -180 124 -180 35 -215 c 1,28,-1
 26 -200 l 1,29,30
 55 -154 55 -154 64.5 -128.5 c 128,-1,31
 74 -103 74 -103 75 -57 c 2,32,-1
 77 11 l 1,33,34
 53 9 53 9 36 3 c 1,35,-1
 26 14 l 1,36,37
 41 43 41 43 78 87 c 1,38,-1
 79 154 l 2,0,1
220 86 m 1,39,40
 249 61 249 61 267.5 61 c 128,-1,41
 286 61 286 61 291 65 c 1,42,43
 306 112 306 112 317 192 c 128,-1,44
 328 272 328 272 328 329.5 c 128,-1,45
 328 387 328 387 309 402 c 1,46,47
 274 355 274 355 251 268.5 c 128,-1,48
 228 182 228 182 220 100 c 1,49,-1
 220 86 l 1,39,40
EndSplineSet
EndChar

StartChar: q
Encoding: 113 113 84
Width: 500
GlyphClass: 2
Flags: W
LayerCount: 2
Fore
SplineSet
22 159 m 0,0,1
 22 270 22 270 91 363 c 128,-1,2
 160 456 160 456 269 505 c 1,3,4
 340 490 340 490 401 490 c 128,-1,5
 462 490 462 490 482 501 c 1,6,-1
 492 488 l 1,7,8
 477 472 477 472 451 451 c 1,9,10
 429 311 429 311 429 95 c 0,11,12
 429 -13 429 -13 438 -90 c 1,13,14
 476 -90 476 -90 495 -92 c 1,15,-1
 499 -107 l 1,16,17
 357 -143 357 -143 248 -216 c 1,18,-1
 235 -205 l 1,19,20
 241 -195 241 -195 246 -185.5 c 128,-1,21
 251 -176 251 -176 255 -168.5 c 128,-1,22
 259 -161 259 -161 262 -150 c 128,-1,23
 265 -139 265 -139 267.5 -133.5 c 128,-1,24
 270 -128 270 -128 271.5 -113.5 c 128,-1,25
 273 -99 273 -99 274 -94 c 128,-1,26
 275 -89 275 -89 276 -70.5 c 128,-1,27
 277 -52 277 -52 278 -46 c 0,28,29
 280 -16 280 -16 280 17 c 1,30,-1
 286 159 l 1,31,-1
 286 160 l 1,32,-1
 302 240 l 1,33,-1
 285 242 l 1,34,35
 267 153 267 153 240.5 87 c 128,-1,36
 214 21 214 21 164 -15 c 1,37,38
 98 -15 98 -15 60 35.5 c 128,-1,39
 22 86 22 86 22 159 c 0,0,1
206 422 m 1,40,41
 177 304 177 304 177 203 c 128,-1,42
 177 102 177 102 194 88 c 1,43,44
 229 135 229 135 254 235 c 128,-1,45
 279 335 279 335 279 402 c 1,46,47
 260 429 260 429 238 429 c 128,-1,48
 216 429 216 429 206 422 c 1,40,41
EndSplineSet
EndChar

StartChar: r
Encoding: 114 114 85
Width: 417
GlyphClass: 2
Flags: W
LayerCount: 2
Fore
SplineSet
244.5 245.5 m 128,-1,1
 217 145 217 145 217 93.5 c 128,-1,2
 217 42 217 42 225 0 c 1,3,4
 140 0 140 0 61 -15 c 1,5,-1
 55 -10 l 1,6,7
 75 59 75 59 75 224 c 128,-1,8
 75 389 75 389 66 455 c 1,9,10
 23 464 23 464 5 472 c 1,11,-1
 5 490 l 1,12,13
 154 490 154 490 235 505 c 1,14,-1
 242 492 l 1,15,16
 218 430 218 430 218 334 c 1,17,18
 212 300 212 300 200 254 c 1,19,-1
 216 253 l 1,20,21
 233 331 233 331 266 401.5 c 128,-1,22
 299 472 299 472 350 505 c 1,23,24
 398 486 398 486 439 486 c 1,25,-1
 445 471 l 1,26,27
 423 442 423 442 408 388.5 c 128,-1,28
 393 335 393 335 390 290 c 1,29,-1
 372 290 l 1,30,31
 367 309 367 309 361 340 c 1,32,33
 344 369 344 369 306 394 c 1,34,0
 272 346 272 346 244.5 245.5 c 128,-1,1
EndSplineSet
EndChar

StartChar: s
Encoding: 115 115 86
Width: 387
GlyphClass: 2
Flags: W
LayerCount: 2
Fore
SplineSet
125 197 m 1,0,1
 121 184 121 184 121 161 c 128,-1,2
 121 138 121 138 142.5 104.5 c 128,-1,3
 164 71 164 71 191 57 c 1,4,5
 211 75 211 75 226 101 c 128,-1,6
 241 127 241 127 241 150 c 0,7,8
 241 176 241 176 140 226 c 0,9,10
 102 245 102 245 70.5 273.5 c 128,-1,11
 39 302 39 302 39 332 c 128,-1,12
 39 362 39 362 78 400 c 0,13,14
 150 471 150 471 244 505 c 1,15,16
 291 490 291 490 327 490 c 128,-1,17
 363 490 363 490 376 499 c 1,18,-1
 386 488 l 1,19,20
 340 434 340 434 320 374 c 1,21,-1
 310 371 l 1,22,-1
 284 390 l 2,23,24
 267 403 267 403 239 418.5 c 128,-1,25
 211 434 211 434 193 437 c 1,26,27
 167 420 167 420 167 396 c 0,28,29
 167 370 167 370 262 325 c 0,30,31
 298 308 298 308 327.5 281.5 c 128,-1,32
 357 255 357 255 357 228 c 0,33,34
 357 167 357 167 298 99.5 c 128,-1,35
 239 32 239 32 169 -15 c 1,36,37
 125 -11 125 -11 80 13.5 c 128,-1,38
 35 38 35 38 13 68 c 2,39,-1
 4 80 l 1,40,41
 79 147 79 147 111 205 c 1,42,-1
 125 197 l 1,0,1
EndSplineSet
EndChar

StartChar: t
Encoding: 116 116 87
Width: 324
GlyphClass: 2
Flags: W
LayerCount: 2
Fore
SplineSet
230 432 m 1,0,1
 225 406 225 406 215.5 326.5 c 128,-1,2
 206 247 206 247 206 181 c 128,-1,3
 206 115 206 115 207 87 c 1,4,5
 232 111 232 111 255 154 c 128,-1,6
 278 197 278 197 291 238 c 1,7,-1
 307 234 l 1,8,9
 295 157 295 157 261 86 c 128,-1,10
 227 15 227 15 175 -15 c 1,11,12
 111 -15 111 -15 84 14.5 c 128,-1,13
 57 44 57 44 57 110 c 0,14,15
 57 146 57 146 64 244 c 128,-1,16
 71 342 71 342 71 375 c 128,-1,17
 71 408 71 408 69 440 c 1,18,-1
 28 443 l 1,19,-1
 25 462 l 1,20,21
 72 482 72 482 117 517 c 128,-1,22
 162 552 162 552 184 589 c 1,23,24
 212 594 212 594 236 603 c 1,25,-1
 245 597 l 1,26,27
 236 546 236 546 236 493 c 1,28,29
 268 497 268 497 306 509 c 1,30,-1
 312 502 l 1,31,32
 298 462 298 462 294 423 c 1,33,34
 248 431 248 431 230 432 c 1,0,1
EndSplineSet
EndChar

StartChar: u
Encoding: 117 117 88
Width: 547
GlyphClass: 2
Flags: W
LayerCount: 2
Fore
SplineSet
309 158 m 1,0,1
 316 198 316 198 325 240 c 1,2,-1
 308 242 l 1,3,4
 273 86 273 86 226 30 c 0,5,6
 202 2 202 2 171 -15 c 1,7,8
 113 -15 113 -15 80.5 23 c 128,-1,9
 48 61 48 61 48 123 c 0,10,11
 48 162 48 162 59 259 c 128,-1,12
 70 356 70 356 70 395.5 c 128,-1,13
 70 435 70 435 68 455 c 1,14,15
 25 464 25 464 7 472 c 1,16,-1
 7 490 l 1,17,18
 161 490 161 490 242 505 c 1,19,-1
 249 492 l 1,20,21
 224 432 224 432 211 336 c 128,-1,22
 198 240 198 240 198 167 c 128,-1,23
 198 94 198 94 218 88 c 1,24,25
 251 131 251 131 278 238 c 128,-1,26
 305 345 305 345 305 396.5 c 128,-1,27
 305 448 305 448 297 490 c 1,28,29
 382 490 382 490 461 505 c 1,30,-1
 467 500 l 1,31,32
 447 431 447 431 447 244 c 0,33,34
 447 147 447 147 455 87 c 1,35,36
 490 131 490 131 526 248 c 1,37,-1
 542 244 l 1,38,39
 506 42 506 42 423 -15 c 1,40,41
 355 -15 355 -15 332 28.5 c 128,-1,42
 309 72 309 72 309 158 c 1,0,1
EndSplineSet
EndChar

StartChar: v
Encoding: 118 118 89
Width: 478
GlyphClass: 2
Flags: W
LayerCount: 2
Fore
SplineSet
256 492 m 1,0,1
 227 417 227 417 227 295.5 c 128,-1,2
 227 174 227 174 231 118 c 1,3,4
 254 75 254 75 265 67 c 1,5,6
 312 196 312 196 312 352 c 0,7,8
 312 461 312 461 269 473 c 1,9,-1
 272 490 l 1,10,11
 407 490 407 490 487 530 c 1,12,-1
 499 514 l 1,13,14
 485 496 485 496 449 475 c 1,15,16
 459 442 459 442 459 404 c 0,17,18
 459 282 459 282 392 164 c 128,-1,19
 325 46 325 46 230 -15 c 1,20,-1
 215 -7 l 1,21,22
 164 19 164 19 134.5 27.5 c 128,-1,23
 105 36 105 36 82.5 36 c 128,-1,24
 60 36 60 36 48 34 c 1,25,-1
 44 47 l 1,26,27
 64 66 64 66 73 107 c 128,-1,28
 82 148 82 148 82 261.5 c 128,-1,29
 82 375 82 375 71 455 c 1,30,31
 28 464 28 464 10 472 c 1,32,-1
 10 490 l 1,33,34
 168 490 168 490 249 505 c 1,35,-1
 256 492 l 1,0,1
EndSplineSet
EndChar

StartChar: w
Encoding: 119 119 90
Width: 670
GlyphClass: 2
Flags: W
LayerCount: 2
Fore
SplineSet
256 492 m 1,0,1
 227 417 227 417 227 295.5 c 128,-1,2
 227 174 227 174 231 118 c 1,3,4
 254 75 254 75 265 67 c 1,5,6
 312 196 312 196 312 352 c 0,7,8
 312 464 312 464 270 477 c 1,9,-1
 273 494 l 1,10,11
 344 490 344 490 471.5 490 c 128,-1,12
 599 490 599 490 679 530 c 1,13,-1
 691 514 l 1,14,15
 677 496 677 496 641 475 c 1,16,17
 651 442 651 442 651 404 c 0,18,19
 651 282 651 282 584 164 c 128,-1,20
 517 46 517 46 422 -15 c 1,21,-1
 407 -7 l 2,22,23
 347 26 347 26 312 66 c 1,24,25
 274 19 274 19 230 -15 c 1,26,-1
 215 -7 l 1,27,28
 164 19 164 19 134.5 27.5 c 128,-1,29
 105 36 105 36 82.5 36 c 128,-1,30
 60 36 60 36 48 34 c 1,31,-1
 44 47 l 1,32,33
 64 66 64 66 73 107 c 128,-1,34
 82 148 82 148 82 261.5 c 128,-1,35
 82 375 82 375 71 455 c 1,36,37
 28 464 28 464 10 472 c 1,38,-1
 10 490 l 1,39,40
 168 490 168 490 249 505 c 1,41,-1
 256 492 l 1,0,1
429 458 m 1,42,43
 435 431 435 431 435 393 c 128,-1,44
 435 355 435 355 418 288.5 c 128,-1,45
 401 222 401 222 378 178 c 1,46,47
 386 151 386 151 407 117 c 128,-1,48
 428 83 428 83 447 67 c 1,49,50
 504 223 504 223 504 343 c 128,-1,51
 504 463 504 463 459 463 c 0,52,53
 444 463 444 463 429 458 c 1,42,43
EndSplineSet
EndChar

StartChar: x
Encoding: 120 120 91
Width: 468
GlyphClass: 2
Flags: W
LayerCount: 2
Fore
SplineSet
245 492 m 1,0,1
 239 477 239 477 239 458 c 0,2,3
 239 398 239 398 259 329 c 2,4,-1
 272 285 l 1,5,-1
 275 285 l 1,6,7
 280 352 280 352 303.5 414.5 c 128,-1,8
 327 477 327 477 369 505 c 1,9,10
 394 490 394 490 419 490 c 128,-1,11
 444 490 444 490 455 494 c 1,12,-1
 461 479 l 1,13,14
 416 429 416 429 409 299 c 1,15,-1
 391 299 l 1,16,17
 386 317 386 317 380 349 c 1,18,-1
 373 357 l 2,19,20
 353 379 353 379 335 386 c 1,21,22
 318 357 318 357 307.5 306.5 c 128,-1,23
 297 256 297 256 297 233.5 c 128,-1,24
 297 211 297 211 299 205 c 0,25,26
 331 104 331 104 352 92 c 1,27,28
 412 147 412 147 444 229 c 1,29,-1
 461 224 l 1,30,31
 411 59 411 59 307 -15 c 1,32,33
 272 -15 272 -15 249 -6 c 128,-1,34
 226 3 226 3 211 27 c 128,-1,35
 196 51 196 51 188.5 70.5 c 128,-1,36
 181 90 181 90 169 134 c 2,37,-1
 150 204 l 1,38,-1
 147 204 l 1,39,40
 139 42 139 42 57 -15 c 1,41,42
 32 0 32 0 7 0 c 128,-1,43
 -18 0 -18 0 -29 -4 c 1,44,-1
 -35 11 l 1,45,46
 10 61 10 61 17 191 c 1,47,-1
 35 191 l 1,48,49
 40 173 40 173 46 141 c 1,50,-1
 53 133 l 2,51,52
 73 111 73 111 91 104 c 1,53,54
 124 163 124 163 124 273 c 0,55,56
 124 284 124 284 119 301 c 0,57,58
 77 438 77 438 60 455 c 1,59,60
 17 464 17 464 -1 472 c 1,61,-1
 -1 490 l 1,62,63
 157 490 157 490 238 505 c 1,64,-1
 245 492 l 1,0,1
EndSplineSet
EndChar

StartChar: y
Encoding: 121 121 92
Width: 512
GlyphClass: 2
Flags: W
LayerCount: 2
Fore
SplineSet
468 500 m 1,0,1
 448 431 448 431 448 244.5 c 128,-1,2
 448 58 448 58 491 -65 c 1,3,4
 425 -111 425 -111 360 -215 c 1,5,-1
 329 -200 l 2,6,7
 277 -175 277 -175 206.5 -155.5 c 128,-1,8
 136 -136 136 -136 84 -136 c 0,9,10
 3 -136 3 -136 -53 -195 c 1,11,-1
 -69 -184 l 1,12,13
 2 -90 2 -90 156 -14 c 1,14,15
 105 -9 105 -9 77 28 c 128,-1,16
 49 65 49 65 49 113.5 c 128,-1,17
 49 162 49 162 60 259 c 128,-1,18
 71 356 71 356 71 395.5 c 128,-1,19
 71 435 71 435 69 455 c 1,20,21
 26 464 26 464 8 472 c 1,22,-1
 8 490 l 1,23,24
 162 490 162 490 243 505 c 1,25,-1
 250 492 l 1,26,27
 225 432 225 432 212 336 c 128,-1,28
 199 240 199 240 199 167 c 128,-1,29
 199 94 199 94 219 88 c 1,30,31
 252 131 252 131 279 238 c 128,-1,32
 306 345 306 345 306 396.5 c 128,-1,33
 306 448 306 448 298 490 c 1,34,35
 383 490 383 490 462 505 c 1,36,-1
 468 500 l 1,0,1
310 158 m 1,37,38
 317 198 317 198 326 240 c 1,39,-1
 309 242 l 1,40,41
 287 135 287 135 253 71 c 128,-1,42
 219 7 219 7 167 -32 c 1,43,44
 200 -32 200 -32 277.5 -50 c 128,-1,45
 355 -68 355 -68 386.5 -68 c 128,-1,46
 418 -68 418 -68 431 -57 c 1,47,48
 378 -25 378 -25 344 35.5 c 128,-1,49
 310 96 310 96 310 158 c 1,37,38
EndSplineSet
EndChar

StartChar: z
Encoding: 122 122 93
Width: 396
GlyphClass: 2
Flags: W
LayerCount: 2
Fore
SplineSet
177 231 m 1,0,1
 148 249 148 249 125 249 c 128,-1,2
 102 249 102 249 90 245 c 1,3,-1
 82 266 l 1,4,5
 156 301 156 301 209 364 c 1,6,7
 149 379 149 379 116 379 c 128,-1,8
 83 379 83 379 73 374 c 1,9,10
 59 343 59 343 40 320 c 1,11,-1
 24 327 l 1,12,13
 43 379 43 379 43 431.5 c 128,-1,14
 43 484 43 484 31 510 c 1,15,-1
 42 522 l 1,16,17
 90 490 90 490 273 490 c 0,18,19
 328 490 328 490 364 494 c 1,20,-1
 369 478 l 1,21,22
 324 406 324 406 209 321 c 1,23,-1
 209 315 l 1,24,25
 260 309 260 309 294 293 c 1,26,27
 313 303 313 303 354 317 c 1,28,-1
 362 301 l 1,29,30
 341 291 341 291 321 277 c 1,31,32
 376 236 376 236 376 160 c 0,33,34
 376 82 376 82 298 3 c 0,35,36
 232 -64 232 -64 151 -115 c 1,37,38
 106 -106 106 -106 63 -80.5 c 128,-1,39
 20 -55 20 -55 -5 -22 c 2,40,-1
 -14 -10 l 1,41,42
 -2 59 -2 59 52.5 124.5 c 128,-1,43
 107 190 107 190 177 231 c 1,0,1
222 100 m 0,44,45
 222 174 222 174 196 211 c 1,46,47
 163 183 163 183 139.5 140 c 128,-1,48
 116 97 116 97 116 65 c 128,-1,49
 116 33 116 33 136 0 c 128,-1,50
 156 -33 156 -33 184 -43 c 1,51,52
 202 -22 202 -22 212 21 c 128,-1,53
 222 64 222 64 222 100 c 0,44,45
EndSplineSet
EndChar

StartChar: braceleft
Encoding: 123 123 94
Width: 300
GlyphClass: 2
Flags: W
LayerCount: 2
Fore
SplineSet
192 596 m 1,0,1
 191 585 191 585 191 556.5 c 128,-1,2
 191 528 191 528 202.5 453.5 c 128,-1,3
 214 379 214 379 214 356.5 c 128,-1,4
 214 334 214 334 214 329 c 1,5,6
 197 297 197 297 115 250 c 1,7,-1
 115 246 l 1,8,9
 190 200 190 200 202 167 c 1,10,11
 199 128 199 128 172 38.5 c 128,-1,12
 145 -51 145 -51 142 -99 c 1,13,14
 149 -127 149 -127 170.5 -154.5 c 128,-1,15
 192 -182 192 -182 217 -196 c 1,16,-1
 208 -215 l 1,17,18
 159 -200 159 -200 114 -159.5 c 128,-1,19
 69 -119 69 -119 69 -78 c 0,20,21
 69 -44 69 -44 92 54 c 128,-1,22
 115 152 115 152 115 189 c 0,23,24
 115 208 115 208 96 220 c 128,-1,25
 77 232 77 232 50 236 c 1,26,-1
 47 255 l 1,27,28
 121 271 121 271 123 309 c 0,29,30
 124 325 124 325 124 354.5 c 128,-1,31
 124 384 124 384 118.5 442 c 128,-1,32
 113 500 113 500 113 528 c 128,-1,33
 113 556 113 556 114 569 c 0,34,35
 117 612 117 612 169.5 654 c 128,-1,36
 222 696 222 696 273 711 c 1,37,-1
 280 693 l 1,38,39
 253 680 253 680 228 652 c 128,-1,40
 203 624 203 624 192 596 c 1,0,1
EndSplineSet
EndChar

StartChar: bar
Encoding: 124 124 95
Width: 261
GlyphClass: 2
Flags: W
LayerCount: 2
Fore
SplineSet
166 -195 m 1,0,1
 142 -209 142 -209 111 -218 c 1,2,-1
 101 -214 l 1,3,4
 101 534 101 534 92 719 c 1,5,6
 133 735 133 735 162 755 c 1,7,-1
 169 754 l 1,8,9
 166 466 166 466 166 -195 c 1,0,1
EndSplineSet
EndChar

StartChar: braceright
Encoding: 125 125 96
Width: 294
GlyphClass: 2
Flags: W
LayerCount: 2
Fore
SplineSet
108 -100 m 1,0,1
 109 -89 109 -89 109 -60.5 c 128,-1,2
 109 -32 109 -32 97.5 42.5 c 128,-1,3
 86 117 86 117 86 139.5 c 128,-1,4
 86 162 86 162 86 167 c 1,5,6
 103 199 103 199 185 246 c 1,7,-1
 185 250 l 1,8,9
 110 296 110 296 98 329 c 1,10,11
 101 368 101 368 128 457.5 c 128,-1,12
 155 547 155 547 158 595 c 1,13,14
 151 623 151 623 129.5 650.5 c 128,-1,15
 108 678 108 678 83 692 c 1,16,-1
 92 711 l 1,17,18
 141 696 141 696 186 655.5 c 128,-1,19
 231 615 231 615 231 574 c 0,20,21
 231 535 231 535 208 437.5 c 128,-1,22
 185 340 185 340 185 307 c 0,23,24
 185 288 185 288 204 276 c 128,-1,25
 223 264 223 264 250 260 c 1,26,-1
 253 241 l 1,27,28
 179 225 179 225 177 187 c 0,29,30
 176 171 176 171 176 141.5 c 128,-1,31
 176 112 176 112 181.5 54 c 128,-1,32
 187 -4 187 -4 187 -32 c 128,-1,33
 187 -60 187 -60 186 -73 c 0,34,35
 183 -116 183 -116 130.5 -158 c 128,-1,36
 78 -200 78 -200 27 -215 c 1,37,-1
 20 -197 l 1,38,39
 47 -184 47 -184 72 -156 c 128,-1,40
 97 -128 97 -128 108 -100 c 1,0,1
EndSplineSet
EndChar

StartChar: asciitilde
Encoding: 126 126 97
Width: 724
GlyphClass: 2
Flags: W
LayerCount: 2
Fore
SplineSet
508 277 m 0,0,1
 593 277 593 277 680 362 c 1,2,-1
 703 343 l 1,3,4
 669 289 669 289 603 238 c 128,-1,5
 537 187 537 187 477 170 c 1,6,7
 433 170 433 170 334 214 c 128,-1,8
 235 258 235 258 190 258 c 0,9,10
 105 258 105 258 44 179 c 1,11,-1
 21 198 l 1,12,13
 59 257 59 257 129.5 310.5 c 128,-1,14
 200 364 200 364 261 371 c 1,15,16
 400 277 400 277 508 277 c 0,0,1
EndSplineSet
EndChar

StartChar: exclamdown
Encoding: 161 161 99
Width: 259
GlyphClass: 2
Flags: W
LayerCount: 2
Fore
SplineSet
238 419 m 1,0,1
 223 395 223 395 192.5 361 c 128,-1,2
 162 327 162 327 139 311 c 1,3,4
 118 326 118 326 95 359 c 128,-1,5
 72 392 72 392 60 419 c 1,6,7
 71 440 71 440 101.5 466 c 128,-1,8
 132 492 132 492 157 505 c 1,9,10
 200 478 200 478 238 419 c 1,0,1
34 -217 m 0,11,12
 30 -217 30 -217 26 -217 c 1,13,14
 1 -193 1 -193 -21 -148 c 1,15,16
 77 67 77 67 117 247 c 1,17,-1
 163 252 l 1,18,-1
 147 -187 l 1,19,20
 80 -217 80 -217 34 -217 c 0,11,12
EndSplineSet
EndChar

StartChar: cent
Encoding: 162 162 100
Width: 355
GlyphClass: 2
Flags: W
LayerCount: 2
Fore
SplineSet
67.5 47.5 m 128,-1,1
 20 94 20 94 20 183 c 128,-1,2
 20 272 20 272 78.5 355 c 128,-1,3
 137 438 137 438 232 497 c 1,4,-1
 237 588 l 1,5,6
 255 590 255 590 267 594 c 1,7,-1
 271 591 l 1,8,9
 267 561 267 561 262 500 c 1,10,11
 299 490 299 490 323.5 490 c 128,-1,12
 348 490 348 490 359 494 c 1,13,-1
 365 479 l 1,14,15
 320 429 320 429 313 311 c 1,16,-1
 295 311 l 1,17,18
 290 330 290 330 284 361 c 1,19,-1
 270 382 l 2,20,21
 264 390 264 390 253 399 c 1,22,-1
 234 105 l 1,23,24
 275 146 275 146 308 229 c 1,25,-1
 332 224 l 1,26,27
 302 97 302 97 227 23 c 1,28,-1
 222 -91 l 1,29,-1
 217 -92 l 1,30,31
 198 -86 198 -86 188 -77 c 1,32,-1
 198 0 l 1,33,-1
 197 -1 l 1,34,0
 115 1 115 1 67.5 47.5 c 128,-1,1
202 424 m 1,35,36
 175 326 175 326 175 232 c 128,-1,37
 175 138 175 138 206 112 c 1,38,-1
 227 416 l 1,39,40
 216 422 216 422 202 424 c 1,35,36
EndSplineSet
EndChar

StartChar: sterling
Encoding: 163 163 101
Width: 402
GlyphClass: 2
Flags: W
LayerCount: 2
Fore
SplineSet
66 135 m 1,0,-1
 60 240 l 1,1,-1
 15 238 l 1,2,-1
 7 243 l 1,3,-1
 23 289 l 1,4,-1
 65 289 l 1,5,6
 82 359 82 359 144.5 427 c 128,-1,7
 207 495 207 495 280 538 c 1,8,9
 324 523 324 523 365 523 c 128,-1,10
 406 523 406 523 417 527 c 1,11,-1
 423 512 l 1,12,13
 390 483 390 483 371.5 436.5 c 128,-1,14
 353 390 353 390 351 340 c 1,15,-1
 333 340 l 1,16,17
 328 358 328 358 322 390 c 1,18,-1
 308 411 l 2,19,20
 297 427 297 427 275.5 441.5 c 128,-1,21
 254 456 254 456 236 457 c 1,22,23
 224 429 224 429 214.5 379.5 c 128,-1,24
 205 330 205 330 205 299 c 2,25,-1
 205 293 l 1,26,27
 248 295 248 295 330 303 c 1,28,-1
 338 298 l 1,29,-1
 321 257 l 1,30,-1
 202 249 l 1,31,32
 192 175 192 175 141 126 c 1,33,34
 182 118 182 118 232 118 c 128,-1,35
 282 118 282 118 305 128 c 1,36,37
 332 177 332 177 345 193 c 1,38,-1
 361 185 l 1,39,40
 338 128 338 128 338 70.5 c 128,-1,41
 338 13 338 13 352 -7 c 1,42,-1
 343 -21 l 1,43,44
 234 8 234 8 118 8 c 0,45,46
 55 8 55 8 24 -13 c 1,47,-1
 14 -3 l 1,48,49
 38 21 38 21 52 60 c 128,-1,50
 66 99 66 99 66 135 c 1,0,-1
EndSplineSet
EndChar

StartChar: currency
Encoding: 164 164 102
Width: 567
GlyphClass: 2
Flags: W
LayerCount: 2
Fore
SplineSet
74 279 m 0,0,1
 74 361 74 361 131 426 c 1,2,3
 88 467 88 467 37 515 c 1,4,5
 44 538 44 538 77 571 c 1,6,-1
 83 571 l 1,7,-1
 179 468 l 1,8,9
 239 509 239 509 311 523 c 1,10,11
 385 523 385 523 433 492 c 1,12,-1
 513 570 l 1,13,14
 550 556 550 556 577 551 c 1,15,-1
 579 546 l 1,16,-1
 470 451 l 1,17,18
 494 413 494 413 494 357 c 0,19,20
 494 267 494 267 426 199 c 1,21,-1
 423 197 l 1,22,23
 523 106 523 106 549 84 c 1,24,-1
 547 80 l 1,25,26
 524 77 524 77 480 61 c 1,27,-1
 379 160 l 1,28,29
 331 128 331 128 271 116 c 1,30,31
 190 116 190 116 139 148 c 1,32,-1
 36 60 l 1,33,-1
 30 60 l 1,34,35
 9 83 9 83 5 114 c 1,36,37
 27 130 27 130 99 189 c 1,38,39
 74 225 74 225 74 279 c 0,0,1
279 457 m 0,40,41
 226 457 226 457 195 435 c 1,42,43
 162 391 162 391 162 323.5 c 128,-1,44
 162 256 162 256 194 219 c 128,-1,45
 226 182 226 182 284 182 c 128,-1,46
 342 182 342 182 373 204 c 1,47,48
 407 248 407 248 407 317 c 0,49,50
 407 457 407 457 279 457 c 0,40,41
EndSplineSet
EndChar

StartChar: yen
Encoding: 165 165 103
Width: 521
GlyphClass: 2
Flags: W
LayerCount: 2
Fore
SplineSet
329 197 m 1,0,-1
 328 164 l 1,1,2
 403 167 403 167 425 169 c 1,3,-1
 428 165 l 1,4,5
 416 150 416 150 411 133 c 1,6,-1
 328 130 l 1,7,8
 328 69 328 69 343 0 c 1,9,10
 226 -3 226 -3 170 -15 c 1,11,-1
 164 -10 l 1,12,13
 180 57 180 57 189 126 c 1,14,15
 124 124 124 124 85 119 c 1,16,-1
 82 123 l 1,17,18
 111 152 111 152 114 156 c 1,19,-1
 194 159 l 1,20,-1
 196 193 l 1,21,22
 129 191 129 191 89 186 c 1,23,-1
 86 190 l 1,24,25
 115 219 115 219 118 223 c 1,26,-1
 192 226 l 1,27,28
 103 431 103 431 49 486 c 1,29,30
 16 492 16 492 -7 503 c 1,31,-1
 -6 521 l 1,32,33
 144 521 144 521 237 535 c 1,34,-1
 242 529 l 1,35,36
 251 443 251 443 310 284 c 1,37,38
 333 328 333 328 350 385.5 c 128,-1,39
 367 443 367 443 367 472.5 c 128,-1,40
 367 502 367 502 362 516 c 1,41,-1
 366 521 l 1,42,43
 455 521 455 521 514 536 c 1,44,45
 512 494 512 494 493 458 c 128,-1,46
 474 422 474 422 463.5 404 c 128,-1,47
 453 386 453 386 432 358.5 c 128,-1,48
 411 331 411 331 400 318 c 0,49,50
 353 260 353 260 333 237 c 1,51,-1
 332 231 l 1,52,53
 407 234 407 234 429 236 c 1,54,-1
 432 232 l 1,55,56
 420 217 420 217 415 200 c 1,57,-1
 329 197 l 1,0,-1
EndSplineSet
EndChar

StartChar: brokenbar
Encoding: 166 166 104
Width: 261
GlyphClass: 2
Flags: W
LayerCount: 2
Fore
SplineSet
166 345 m 1,0,1
 142 331 142 331 111 322 c 1,2,-1
 101 326 l 1,3,4
 101 517 101 517 97 599.5 c 128,-1,5
 93 682 93 682 92 726 c 1,6,7
 133 742 133 742 162 762 c 1,8,-1
 169 761 l 1,9,10
 166 473 166 473 166 345 c 1,0,1
166 -194 m 1,11,12
 142 -208 142 -208 111 -217 c 1,13,-1
 101 -213 l 1,14,15
 101 -21 101 -21 97 58 c 128,-1,16
 93 137 93 137 92 182 c 1,17,18
 140 203 140 203 162 219 c 1,19,-1
 169 218 l 1,20,21
 166 -70 166 -70 166 -194 c 1,11,12
EndSplineSet
EndChar

StartChar: section
Encoding: 167 167 105
Width: 426
GlyphClass: 2
Flags: W
LayerCount: 2
Fore
SplineSet
416 309 m 0,0,1
 416 233 416 233 306 144 c 1,2,3
 358 101 358 101 358 64.5 c 128,-1,4
 358 28 358 28 320 -10 c 0,5,6
 247 -81 247 -81 153 -115 c 1,7,8
 106 -100 106 -100 70 -100 c 128,-1,9
 34 -100 34 -100 21 -109 c 1,10,-1
 11 -98 l 1,11,12
 57 -44 57 -44 77 16 c 1,13,-1
 87 19 l 1,14,-1
 113 0 l 2,15,16
 130 -13 130 -13 158 -28.5 c 128,-1,17
 186 -44 186 -44 204 -47 c 1,18,19
 230 -32 230 -32 230 -1.5 c 128,-1,20
 230 29 230 29 195.5 59 c 128,-1,21
 161 89 161 89 120 113.5 c 128,-1,22
 79 138 79 138 44.5 173 c 128,-1,23
 10 208 10 208 10 242 c 0,24,25
 10 321 10 321 120 406 c 1,26,27
 68 451 68 451 68 487 c 128,-1,28
 68 523 68 523 106 561 c 0,29,30
 179 632 179 632 273 666 c 1,31,32
 320 651 320 651 356 651 c 128,-1,33
 392 651 392 651 405 660 c 1,34,-1
 415 649 l 1,35,36
 369 595 369 595 349 535 c 1,37,-1
 339 532 l 1,38,-1
 313 551 l 2,39,40
 296 564 296 564 268 579.5 c 128,-1,41
 240 595 240 595 222 598 c 1,42,43
 196 583 196 583 196 552.5 c 128,-1,44
 196 522 196 522 230.5 492 c 128,-1,45
 265 462 265 462 306 437.5 c 128,-1,46
 347 413 347 413 381.5 378 c 128,-1,47
 416 343 416 343 416 309 c 0,0,1
266 299 m 128,-1,49
 232 327 232 327 198.5 349.5 c 128,-1,50
 165 372 165 372 152 381 c 1,51,52
 126 350 126 350 126 310 c 0,53,54
 126 272 126 272 192 226 c 0,55,56
 207 215 207 215 234 196.5 c 128,-1,57
 261 178 261 178 274 169 c 1,58,59
 300 200 300 200 300 235.5 c 128,-1,48
 300 271 300 271 266 299 c 128,-1,49
EndSplineSet
EndChar

StartChar: dieresis
Encoding: 168 168 106
Width: 405
GlyphClass: 2
Flags: W
LayerCount: 2
Fore
SplineSet
184 652 m 1,0,1
 169 629 169 629 139.5 597 c 128,-1,2
 110 565 110 565 89 550 c 1,3,4
 49 580 49 580 14 652 c 1,5,6
 25 672 25 672 54 697 c 128,-1,7
 83 722 83 722 107 734 c 1,8,9
 146 709 146 709 184 652 c 1,0,1
405 652 m 1,10,11
 390 629 390 629 360.5 597 c 128,-1,12
 331 565 331 565 310 550 c 1,13,14
 270 580 270 580 235 652 c 1,15,16
 246 672 246 672 275 697 c 128,-1,17
 304 722 304 722 328 734 c 1,18,19
 367 709 367 709 405 652 c 1,10,11
EndSplineSet
EndChar

StartChar: copyright
Encoding: 169 169 107
Width: 741
GlyphClass: 2
Flags: W
LayerCount: 2
Fore
SplineSet
248.5 158.5 m 128,-1,1
 206 198 206 198 206 271.5 c 128,-1,2
 206 345 206 345 254.5 421.5 c 128,-1,3
 303 498 303 498 367 536 c 1,4,5
 416 522 416 522 450.5 522 c 128,-1,6
 485 522 485 522 501 526 c 1,7,-1
 506 518 l 1,8,9
 473 481 473 481 473 387 c 1,10,-1
 455 387 l 1,11,12
 445 410 445 410 440 436 c 1,13,-1
 429 447 l 2,14,15
 417 459 417 459 396 468 c 128,-1,16
 375 477 375 477 367.5 477 c 128,-1,17
 360 477 360 477 359 477 c 0,18,19
 321 389 321 389 321 296 c 0,20,21
 321 175 321 175 391 175 c 1,22,23
 418 197 418 197 418 260 c 0,24,25
 418 263 418 263 416 275 c 1,26,-1
 419 278 l 1,27,28
 433 279 433 279 465.5 285 c 128,-1,29
 498 291 498 291 509 295 c 1,30,31
 498 242 498 242 457.5 193 c 128,-1,32
 417 144 417 144 365 119 c 1,33,0
 291 119 291 119 248.5 158.5 c 128,-1,1
125 80 m 128,-1,35
 30 175 30 175 30 313 c 128,-1,36
 30 451 30 451 132.5 558.5 c 128,-1,37
 235 666 235 666 377.5 666 c 128,-1,38
 520 666 520 666 615.5 570 c 128,-1,39
 711 474 711 474 711 336 c 128,-1,40
 711 198 711 198 607 91.5 c 128,-1,41
 503 -15 503 -15 361.5 -15 c 128,-1,34
 220 -15 220 -15 125 80 c 128,-1,35
577 533.5 m 128,-1,43
 496 615 496 615 379 615 c 128,-1,44
 262 615 262 615 172.5 526.5 c 128,-1,45
 83 438 83 438 83 318 c 128,-1,46
 83 198 83 198 163 117 c 128,-1,47
 243 36 243 36 362 36 c 128,-1,48
 481 36 481 36 569.5 124.5 c 128,-1,49
 658 213 658 213 658 332.5 c 128,-1,42
 658 452 658 452 577 533.5 c 128,-1,43
EndSplineSet
EndChar

StartChar: ordfeminine
Encoding: 170 170 108
Width: 439
GlyphClass: 2
Flags: W
LayerCount: 2
Fore
SplineSet
248 397 m 1,0,1
 252 411 252 411 260 462 c 1,2,-1
 247 464 l 1,3,4
 217 306 217 306 150 259 c 1,5,6
 98 259 98 259 68 299 c 128,-1,7
 38 339 38 339 38 397 c 0,8,9
 38 486 38 486 93 560 c 128,-1,10
 148 634 148 634 234 672 c 1,11,12
 279 672 279 672 338 645 c 1,13,14
 366 690 366 690 372 698 c 1,15,-1
 385 694 l 1,16,17
 358 624 358 624 358 470 c 0,18,19
 358 385 358 385 364 339 c 1,20,21
 390 373 390 373 420 469 c 1,22,-1
 433 466 l 1,23,24
 404 305 404 305 338 259 c 1,25,26
 284 259 284 259 266 293.5 c 128,-1,27
 248 328 248 328 248 397 c 1,0,1
184 601 m 1,28,29
 163 506 163 506 163 430.5 c 128,-1,30
 163 355 163 355 176 346 c 1,31,32
 202 382 202 382 221 458.5 c 128,-1,33
 240 535 240 535 240 587 c 1,34,35
 224 606 224 606 208 606 c 128,-1,36
 192 606 192 606 184 601 c 1,28,29
EndSplineSet
EndChar

StartChar: guillemotleft
Encoding: 171 171 109
Width: 485
GlyphClass: 2
Flags: W
LayerCount: 2
Fore
SplineSet
164 285 m 1,0,-1
 259 87 l 1,1,-1
 231 70 l 1,2,3
 133 202 133 202 34 267 c 1,4,-1
 36 292 l 1,5,6
 163 357 163 357 281 480 c 1,7,-1
 304 464 l 1,8,-1
 164 285 l 1,0,-1
355 285 m 1,9,-1
 440 107 l 1,10,-1
 409 89 l 1,11,12
 365 149 365 149 324 189 c 128,-1,13
 283 229 283 229 225 267 c 1,14,-1
 227 292 l 1,15,16
 352 356 352 356 452 460 c 1,17,-1
 478 441 l 1,18,-1
 355 285 l 1,9,-1
EndSplineSet
EndChar

StartChar: logicalnot
Encoding: 172 172 110
Width: 576
GlyphClass: 2
Flags: W
LayerCount: 2
Fore
SplineSet
450 228 m 1,0,-1
 62 228 l 1,1,-1
 54 235 l 1,2,-1
 63 301 l 1,3,4
 233 292 233 292 352.5 292 c 128,-1,5
 472 292 472 292 511 295 c 1,6,-1
 517 289 l 1,7,8
 517 220 517 220 522 88 c 1,9,-1
 517 82 l 1,10,-1
 450 91 l 1,11,-1
 450 228 l 1,0,-1
EndSplineSet
EndChar

StartChar: registered
Encoding: 174 174 111
Width: 434
GlyphClass: 2
Flags: W
LayerCount: 2
Fore
SplineSet
75.5 358.5 m 128,-1,1
 21 413 21 413 21 495 c 128,-1,2
 21 577 21 577 80 636.5 c 128,-1,3
 139 696 139 696 221.5 696 c 128,-1,4
 304 696 304 696 358.5 641 c 128,-1,5
 413 586 413 586 413 504.5 c 128,-1,6
 413 423 413 423 353 363.5 c 128,-1,7
 293 304 293 304 211.5 304 c 128,-1,0
 130 304 130 304 75.5 358.5 c 128,-1,1
110.5 609 m 128,-1,9
 63 564 63 564 63 499 c 128,-1,10
 63 434 63 434 104.5 389 c 128,-1,11
 146 344 146 344 211 344 c 128,-1,12
 276 344 276 344 322.5 390 c 128,-1,13
 369 436 369 436 369 501 c 128,-1,14
 369 566 369 566 328.5 610 c 128,-1,15
 288 654 288 654 223 654 c 128,-1,8
 158 654 158 654 110.5 609 c 128,-1,9
127 605 m 1,16,-1
 231 608 l 1,17,18
 297 608 297 608 297 562.5 c 128,-1,19
 297 517 297 517 255 506 c 1,20,-1
 280 461 l 2,21,22
 295 434 295 434 314 407 c 1,23,24
 307 407 307 407 290.5 407 c 128,-1,25
 274 407 274 407 249 402 c 1,26,-1
 247 403 l 1,27,28
 231 467 231 467 214 502 c 1,29,-1
 205 502 l 1,30,-1
 207 520 l 1,31,32
 240 520 240 520 240 554 c 128,-1,33
 240 588 240 588 220 588 c 0,34,35
 210 588 210 588 203 584 c 1,36,37
 197 535 197 535 197 477 c 128,-1,38
 197 419 197 419 200 407 c 1,39,40
 160 407 160 407 139 403 c 1,41,-1
 137 405 l 1,42,43
 147 451 147 451 147 512 c 128,-1,44
 147 573 147 573 144 587 c 1,45,46
 134 590 134 590 125 594 c 1,47,-1
 127 605 l 1,16,-1
EndSplineSet
EndChar

StartChar: macron
Encoding: 175 175 112
Width: 361
GlyphClass: 2
Flags: W
LayerCount: 2
Fore
SplineSet
65 694 m 2,0,1
 119 689 119 689 198 689 c 128,-1,2
 277 689 277 689 350 694 c 1,3,-1
 361 685 l 1,4,-1
 333 610 l 1,5,-1
 10 606 l 1,6,-1
 0 613 l 1,7,-1
 28 698 l 1,8,-1
 65 694 l 2,0,1
EndSplineSet
EndChar

StartChar: degree
Encoding: 176 176 113
Width: 364
GlyphClass: 2
Flags: W
LayerCount: 2
Fore
SplineSet
85 425.5 m 128,-1,1
 45 455 45 455 45 512.5 c 128,-1,2
 45 570 45 570 86.5 613 c 128,-1,3
 128 656 128 656 192 667 c 1,4,5
 250 667 250 667 286 637 c 128,-1,6
 322 607 322 607 322 549.5 c 128,-1,7
 322 492 322 492 284 450.5 c 128,-1,8
 246 409 246 409 184 396 c 1,9,0
 125 396 125 396 85 425.5 c 128,-1,1
174 614 m 0,10,11
 142 614 142 614 127 602 c 1,12,13
 114 574 114 574 114 535.5 c 128,-1,14
 114 497 114 497 134 473 c 128,-1,15
 154 449 154 449 189.5 449 c 128,-1,16
 225 449 225 449 240 461 c 1,17,18
 253 489 253 489 253 525 c 0,19,20
 253 614 253 614 174 614 c 0,10,11
EndSplineSet
EndChar

StartChar: plusminus
Encoding: 177 177 114
Width: 576
GlyphClass: 2
Flags: W
LayerCount: 2
Fore
SplineSet
324 262 m 1,0,1
 324 185 324 185 333 90 c 1,2,-1
 263 86 l 1,3,-1
 253 88 l 1,4,-1
 253 262 l 1,5,-1
 69 262 l 1,6,-1
 61 269 l 1,7,-1
 70 340 l 1,8,9
 192 334 192 334 253 333 c 1,10,-1
 253 486 l 1,11,-1
 324 495 l 1,12,-1
 329 489 l 1,13,14
 324 401 324 401 324 333 c 2,15,-1
 324 332 l 1,16,17
 361 331 361 331 420 331 c 128,-1,18
 479 331 479 331 518 334 c 1,19,-1
 524 328 l 1,20,-1
 515 262 l 1,21,-1
 324 262 l 1,0,1
62 58 m 1,22,23
 232 49 232 49 351.5 49 c 128,-1,24
 471 49 471 49 510 52 c 1,25,-1
 516 46 l 1,26,-1
 507 -10 l 1,27,-1
 61 -10 l 1,28,-1
 53 -3 l 1,29,-1
 62 58 l 1,22,23
EndSplineSet
EndChar

StartChar: twosuperior
Encoding: 178 178 115
Width: 392
GlyphClass: 2
Flags: W
LayerCount: 2
Fore
SplineSet
198 599 m 0,0,1
 198 653 198 653 152 653 c 0,2,3
 132 653 132 653 114 647 c 1,4,5
 108 626 108 626 108 611.5 c 128,-1,6
 108 597 108 597 118 592 c 1,7,-1
 118 586 l 1,8,9
 70 570 70 570 46 544 c 1,10,11
 35 544 35 544 34 552 c 0,12,13
 33 555 33 555 33 560 c 2,14,-1
 33 566 l 2,15,16
 33 609 33 609 88.5 672 c 128,-1,17
 144 735 144 735 195 748 c 1,18,19
 274 748 274 748 309.5 717.5 c 128,-1,20
 345 687 345 687 345 612 c 1,21,22
 317 577 317 577 250.5 527 c 128,-1,23
 184 477 184 477 175 470 c 1,24,25
 202 462 202 462 237.5 462 c 128,-1,26
 273 462 273 462 295 469 c 1,27,28
 313 497 313 497 335 522 c 1,29,-1
 346 516 l 1,30,31
 327 468 327 468 327 417.5 c 128,-1,32
 327 367 327 367 340 349 c 1,33,-1
 333 339 l 1,34,35
 210 362 210 362 98 362 c 0,36,37
 53 362 53 362 30 343 c 1,38,-1
 14 352 l 1,39,40
 37 404 37 404 122 476 c 1,41,42
 151 502 151 502 174.5 535.5 c 128,-1,43
 198 569 198 569 198 599 c 0,0,1
EndSplineSet
EndChar

StartChar: threesuperior
Encoding: 179 179 116
Width: 361
GlyphClass: 2
Flags: W
LayerCount: 2
Fore
SplineSet
202 488 m 0,0,1
 202 544 202 544 153 544 c 0,2,3
 139 544 139 544 127 540 c 1,4,-1
 122 556 l 1,5,6
 168 585 168 585 193 638 c 1,7,8
 157 647 157 647 136.5 647 c 128,-1,9
 116 647 116 647 107 644 c 1,10,11
 92 613 92 613 81 599 c 1,12,-1
 66 604 l 1,13,14
 82 641 82 641 82 683 c 128,-1,15
 82 725 82 725 72 742 c 1,16,-1
 81 752 l 1,17,18
 119 727 119 727 247 727 c 0,19,20
 294 727 294 727 329 732 c 1,21,-1
 333 717 l 1,22,23
 293 652 293 652 215 604 c 1,24,-1
 215 601 l 1,25,26
 347 601 347 601 347 516 c 0,27,28
 347 486 347 486 326 456 c 128,-1,29
 305 426 305 426 272 404 c 1,30,31
 213 362 213 362 151 340 c 1,32,33
 113 340 113 340 73 357 c 128,-1,34
 33 374 33 374 14 403 c 1,35,36
 76 445 76 445 102 505 c 1,37,-1
 123 497 l 1,38,39
 115 482 115 482 115 471 c 0,40,41
 115 407 115 407 165 390 c 1,42,43
 202 415 202 415 202 488 c 0,0,1
EndSplineSet
EndChar

StartChar: acute
Encoding: 180 180 117
Width: 278
GlyphClass: 2
Flags: W
LayerCount: 2
Fore
SplineSet
230 746 m 1,0,1
 244 747 244 747 258.5 747 c 128,-1,2
 273 747 273 747 284 745 c 1,3,4
 294 735 294 735 305.5 699.5 c 128,-1,5
 317 664 317 664 318 648 c 1,6,-1
 54 543 l 1,7,-1
 40 567 l 1,8,9
 185 663 185 663 230 746 c 1,0,1
EndSplineSet
EndChar

StartChar: mu
Encoding: 181 181 118
AltUni2: 0003bc.ffffffff.0
Width: 562
GlyphClass: 2
Flags: W
LayerCount: 2
Fore
SplineSet
324 158 m 1,0,1
 331 198 331 198 340 240 c 1,2,-1
 323 242 l 1,3,4
 288 86 288 86 240 30 c 0,5,6
 217 2 217 2 186 -15 c 1,7,8
 172 -12 172 -12 159 -1 c 1,9,10
 159 -106 159 -106 180 -196 c 1,11,-1
 177 -199 l 1,12,13
 106 -204 106 -204 51 -219 c 1,14,-1
 42 -212 l 1,15,16
 56 -116 56 -116 61 143 c 2,17,-1
 65 331 l 2,18,19
 66 357 66 357 66 398.5 c 128,-1,20
 66 440 66 440 59 487 c 1,21,-1
 63 490 l 1,22,23
 202 495 202 495 240 505 c 1,24,-1
 246 500 l 1,25,26
 213 376 213 376 213 163 c 0,27,28
 213 94 213 94 233 88 c 1,29,30
 266 131 266 131 293 238 c 128,-1,31
 320 345 320 345 320 396.5 c 128,-1,32
 320 448 320 448 312 490 c 1,33,34
 397 490 397 490 476 505 c 1,35,-1
 482 500 l 1,36,37
 462 431 462 431 462 244 c 0,38,39
 462 147 462 147 470 87 c 1,40,41
 505 131 505 131 541 248 c 1,42,-1
 557 244 l 1,43,44
 521 42 521 42 438 -15 c 1,45,46
 370 -15 370 -15 347 28.5 c 128,-1,47
 324 72 324 72 324 158 c 1,0,1
EndSplineSet
EndChar

StartChar: paragraph
Encoding: 182 182 119
Width: 575
GlyphClass: 2
Flags: W
LayerCount: 2
Fore
SplineSet
243 658 m 1,0,-1
 382 651 l 1,1,-1
 386 646 l 1,2,3
 362 536 362 536 347 325 c 2,4,-1
 337 181 l 2,5,6
 329 57 329 57 278 -25 c 0,7,8
 252 -67 252 -67 209 -91 c 128,-1,9
 166 -115 166 -115 110 -115 c 0,10,11
 95 -115 95 -115 85 -106 c 128,-1,12
 75 -97 75 -97 75 -82 c 1,13,14
 112 -55 112 -55 130 -22 c 1,15,-1
 139 -21 l 1,16,17
 152 -33 152 -33 181 -33 c 128,-1,18
 210 -33 210 -33 232 -23 c 1,19,20
 262 48 262 48 267 131 c 2,21,-1
 278 298 l 1,22,23
 260 295 260 295 244 295 c 0,24,25
 149 295 149 295 85 351 c 128,-1,26
 21 407 21 407 21 494 c 128,-1,27
 21 581 21 581 82.5 619.5 c 128,-1,28
 144 658 144 658 243 658 c 1,0,-1
508 499 m 128,-1,30
 482 364 482 364 482 210 c 128,-1,31
 482 56 482 56 497 0 c 1,32,33
 416 0 416 0 360 -15 c 1,34,-1
 356 -11 l 1,35,36
 380 54 380 54 398.5 310 c 128,-1,37
 417 566 417 566 434 651 c 1,38,39
 518 657 518 657 568 677 c 1,40,-1
 575 664 l 1,41,29
 534 634 534 634 508 499 c 128,-1,30
EndSplineSet
EndChar

StartChar: periodcentered
Encoding: 183 183 120
Width: 220
GlyphClass: 2
Flags: W
LayerCount: 2
Fore
SplineSet
199 286 m 1,0,1
 184 262 184 262 153.5 228 c 128,-1,2
 123 194 123 194 100 178 c 1,3,4
 79 193 79 193 56 226 c 128,-1,5
 33 259 33 259 21 286 c 1,6,7
 32 307 32 307 62.5 333 c 128,-1,8
 93 359 93 359 118 372 c 1,9,10
 161 345 161 345 199 286 c 1,0,1
EndSplineSet
EndChar

StartChar: cedilla
Encoding: 184 184 121
Width: 226
GlyphClass: 2
Flags: W
LayerCount: 2
Fore
SplineSet
224 -126 m 0,0,1
 224 -133 224 -133 223 -140 c 1,2,3
 176 -212 176 -212 102 -235 c 1,4,5
 49 -235 49 -235 1 -210 c 1,6,7
 18 -185 18 -185 39 -138 c 1,8,-1
 44 -136 l 1,9,10
 71 -176 71 -176 119 -176 c 0,11,12
 137 -176 137 -176 146 -172 c 1,13,14
 152 -164 152 -164 152 -146 c 0,15,16
 152 -101 152 -101 65 -101 c 1,17,-1
 58 -96 l 1,18,-1
 116 17 l 1,19,-1
 161 19 l 1,20,-1
 123 -38 l 1,21,-1
 127 -42 l 1,22,23
 175 -42 175 -42 199.5 -66 c 128,-1,24
 224 -90 224 -90 224 -126 c 0,0,1
EndSplineSet
EndChar

StartChar: onesuperior
Encoding: 185 185 122
Width: 310
GlyphClass: 2
Flags: W
LayerCount: 2
Fore
SplineSet
198 742 m 1,0,-1
 244 746 l 1,1,-1
 246 744 l 1,2,3
 226 591 226 591 226 510.5 c 128,-1,4
 226 430 226 430 229 395 c 1,5,6
 252 368 252 368 274 358 c 1,7,-1
 269 340 l 1,8,9
 229 351 229 351 152.5 351 c 128,-1,10
 76 351 76 351 28 341 c 1,11,-1
 24 358 l 1,12,13
 57 376 57 376 81 385 c 1,14,15
 96 490 96 490 96 589 c 1,16,-1
 92 646 l 1,17,-1
 32 646 l 1,18,-1
 30 648 l 1,19,20
 30 668 30 668 32 674 c 1,21,22
 130 693 130 693 198 742 c 1,0,-1
EndSplineSet
EndChar

StartChar: ordmasculine
Encoding: 186 186 123
Width: 392
GlyphClass: 2
Flags: W
LayerCount: 2
Fore
SplineSet
216 593 m 0,0,1
 208 602 208 602 197 602 c 128,-1,2
 186 602 186 602 178 598 c 1,3,4
 160 517 160 517 160 425 c 0,5,6
 160 348 160 348 174 332 c 0,7,8
 182 323 182 323 192.5 323 c 128,-1,9
 203 323 203 323 211 327 c 1,10,11
 230 406 230 406 230 491 c 128,-1,12
 230 576 230 576 216 593 c 0,0,1
74 300.5 m 128,-1,14
 38 342 38 342 38 415.5 c 128,-1,15
 38 489 38 489 88.5 559 c 128,-1,16
 139 629 139 629 213 666 c 1,17,18
 283 666 283 666 318 626 c 128,-1,19
 353 586 353 586 353 510.5 c 128,-1,20
 353 435 353 435 302.5 364.5 c 128,-1,21
 252 294 252 294 177 259 c 1,22,13
 110 259 110 259 74 300.5 c 128,-1,14
EndSplineSet
EndChar

StartChar: guillemotright
Encoding: 187 187 124
Width: 485
GlyphClass: 2
Flags: W
LayerCount: 2
Fore
SplineSet
321 265 m 1,0,-1
 226 463 l 1,1,-1
 254 480 l 1,2,3
 352 348 352 348 451 283 c 1,4,-1
 449 258 l 1,5,6
 322 193 322 193 204 70 c 1,7,-1
 181 86 l 1,8,-1
 321 265 l 1,0,-1
130 265 m 1,9,-1
 45 443 l 1,10,-1
 76 461 l 1,11,12
 120 401 120 401 161 361 c 128,-1,13
 202 321 202 321 260 283 c 1,14,-1
 258 258 l 1,15,16
 133 194 133 194 33 90 c 1,17,-1
 7 109 l 1,18,-1
 130 265 l 1,9,-1
EndSplineSet
EndChar

StartChar: onequarter
Encoding: 188 188 125
Width: 800
GlyphClass: 2
Flags: W
LayerCount: 2
Fore
SplineSet
130 -48 m 1,0,-1
 123 -48 l 1,1,2
 110 -38 110 -38 92 8 c 1,3,4
 228 163 228 163 277 225 c 2,5,-1
 498 504 l 1,6,7
 543 559 543 559 649 707 c 1,8,9
 680 699 680 699 715 697 c 1,10,-1
 720 693 l 1,11,12
 687 656 687 656 565 503 c 2,13,-1
 130 -48 l 1,0,-1
694 94 m 1,14,15
 694 76 694 76 697 53 c 1,16,17
 713 34 713 34 743 20 c 1,18,-1
 738 2 l 1,19,20
 698 13 698 13 622 13 c 128,-1,21
 546 13 546 13 498 3 c 1,22,-1
 494 20 l 1,23,24
 521 33 521 33 551 42 c 1,25,26
 560 66 560 66 561 94 c 1,27,-1
 395 94 l 1,28,-1
 386 130 l 1,29,30
 495 256 495 256 560 388 c 1,31,32
 644 392 644 392 717 416 c 1,33,-1
 723 413 l 1,34,35
 699 356 699 356 696 164 c 1,36,37
 736 164 736 164 762 186 c 1,38,-1
 775 177 l 1,39,40
 759 133 759 133 754 90 c 1,41,42
 729 94 729 94 694 94 c 1,14,15
563 313 m 1,43,44
 532 238 532 238 483 171 c 1,45,46
 517 165 517 165 562 165 c 1,47,-1
 568 313 l 1,48,-1
 563 313 l 1,43,44
202 663 m 1,49,-1
 248 667 l 1,50,-1
 250 665 l 1,51,52
 230 512 230 512 230 431 c 128,-1,53
 230 350 230 350 233 316 c 1,54,55
 256 289 256 289 278 279 c 1,56,-1
 273 261 l 1,57,58
 233 272 233 272 156.5 272 c 128,-1,59
 80 272 80 272 32 262 c 1,60,-1
 28 279 l 1,61,62
 61 297 61 297 85 306 c 1,63,64
 100 411 100 411 100 510 c 1,65,-1
 96 567 l 1,66,-1
 36 567 l 1,67,-1
 34 569 l 1,68,69
 34 589 34 589 36 595 c 1,70,71
 134 614 134 614 202 663 c 1,49,-1
EndSplineSet
EndChar

StartChar: onehalf
Encoding: 189 189 126
Width: 800
GlyphClass: 2
Flags: W
LayerCount: 2
Fore
SplineSet
130 -48 m 1,0,-1
 123 -48 l 1,1,2
 110 -38 110 -38 92 8 c 1,3,4
 228 163 228 163 277 225 c 2,5,-1
 498 504 l 1,6,7
 543 559 543 559 649 707 c 1,8,9
 680 699 680 699 715 697 c 1,10,-1
 720 693 l 1,11,12
 687 656 687 656 565 503 c 2,13,-1
 130 -48 l 1,0,-1
202 663 m 1,14,-1
 248 667 l 1,15,-1
 250 665 l 1,16,17
 230 512 230 512 230 431 c 128,-1,18
 230 350 230 350 233 316 c 1,19,20
 256 289 256 289 278 279 c 1,21,-1
 273 261 l 1,22,23
 233 272 233 272 156.5 272 c 128,-1,24
 80 272 80 272 32 262 c 1,25,-1
 28 279 l 1,26,27
 61 297 61 297 85 306 c 1,28,29
 100 411 100 411 100 510 c 1,30,-1
 96 567 l 1,31,-1
 36 567 l 1,32,-1
 34 569 l 1,33,34
 34 589 34 589 36 595 c 1,35,36
 134 614 134 614 202 663 c 1,14,-1
620 258 m 0,37,38
 620 312 620 312 574 312 c 0,39,40
 554 312 554 312 536 306 c 1,41,42
 530 285 530 285 530 270.5 c 128,-1,43
 530 256 530 256 540 251 c 1,44,-1
 540 245 l 1,45,46
 492 229 492 229 468 203 c 1,47,48
 457 203 457 203 456 211 c 0,49,50
 455 214 455 214 455 218 c 2,51,-1
 455 225 l 2,52,53
 455 268 455 268 510.5 331 c 128,-1,54
 566 394 566 394 617 407 c 1,55,56
 696 407 696 407 731.5 376.5 c 128,-1,57
 767 346 767 346 767 271 c 1,58,59
 739 236 739 236 672.5 186 c 128,-1,60
 606 136 606 136 597 129 c 1,61,62
 624 121 624 121 659.5 121 c 128,-1,63
 695 121 695 121 717 128 c 1,64,65
 735 156 735 156 757 181 c 1,66,-1
 768 175 l 1,67,68
 749 128 749 128 749 77 c 128,-1,69
 749 26 749 26 762 8 c 1,70,-1
 755 -2 l 1,71,72
 632 21 632 21 520 21 c 0,73,74
 475 21 475 21 452 2 c 1,75,-1
 436 11 l 1,76,77
 459 63 459 63 544 136 c 0,78,79
 573 161 573 161 596.5 194.5 c 128,-1,80
 620 228 620 228 620 258 c 0,37,38
EndSplineSet
EndChar

StartChar: threequarters
Encoding: 190 190 127
Width: 800
GlyphClass: 2
Flags: W
LayerCount: 2
Fore
SplineSet
202 408 m 0,0,1
 202 464 202 464 153 464 c 0,2,3
 139 464 139 464 127 460 c 1,4,-1
 122 476 l 1,5,6
 168 505 168 505 193 558 c 1,7,8
 157 567 157 567 136.5 567 c 128,-1,9
 116 567 116 567 107 564 c 1,10,11
 92 533 92 533 81 519 c 1,12,-1
 66 524 l 1,13,14
 82 561 82 561 82 603 c 128,-1,15
 82 645 82 645 72 662 c 1,16,-1
 81 672 l 1,17,18
 119 647 119 647 247 647 c 0,19,20
 294 647 294 647 329 652 c 1,21,-1
 333 637 l 1,22,23
 293 572 293 572 215 524 c 1,24,-1
 215 521 l 1,25,26
 347 521 347 521 347 436 c 0,27,28
 347 406 347 406 326 376 c 128,-1,29
 305 346 305 346 272 324 c 1,30,31
 213 282 213 282 151 260 c 1,32,33
 113 260 113 260 73 277 c 128,-1,34
 33 294 33 294 14 323 c 1,35,36
 76 365 76 365 102 425 c 1,37,-1
 123 417 l 1,38,39
 115 402 115 402 115 391 c 0,40,41
 115 327 115 327 165 310 c 1,42,43
 202 335 202 335 202 408 c 0,0,1
130 -48 m 1,44,-1
 123 -48 l 1,45,46
 110 -38 110 -38 92 8 c 1,47,48
 228 163 228 163 277 225 c 2,49,-1
 498 504 l 1,50,51
 543 559 543 559 649 707 c 1,52,53
 680 699 680 699 715 697 c 1,54,-1
 720 693 l 1,55,56
 687 656 687 656 565 503 c 2,57,-1
 130 -48 l 1,44,-1
694 94 m 1,58,59
 694 76 694 76 697 53 c 1,60,61
 713 34 713 34 743 20 c 1,62,-1
 738 2 l 1,63,64
 698 13 698 13 622 13 c 128,-1,65
 546 13 546 13 498 3 c 1,66,-1
 494 20 l 1,67,68
 521 33 521 33 551 42 c 1,69,70
 560 66 560 66 561 94 c 1,71,-1
 395 94 l 1,72,-1
 386 130 l 1,73,74
 495 256 495 256 560 388 c 1,75,76
 644 392 644 392 717 416 c 1,77,-1
 723 413 l 1,78,79
 699 356 699 356 696 164 c 1,80,81
 736 164 736 164 762 186 c 1,82,-1
 775 177 l 1,83,84
 759 133 759 133 754 90 c 1,85,86
 729 94 729 94 694 94 c 1,58,59
563 313 m 1,87,88
 532 238 532 238 483 171 c 1,89,90
 517 165 517 165 562 165 c 1,91,-1
 568 313 l 1,92,-1
 563 313 l 1,87,88
EndSplineSet
EndChar

StartChar: questiondown
Encoding: 191 191 128
Width: 315
GlyphClass: 2
Flags: W
LayerCount: 2
Fore
SplineSet
158.5 9 m 128,-1,1
 132 -37 132 -37 132 -84.5 c 128,-1,2
 132 -132 132 -132 169 -132 c 0,3,4
 186 -132 186 -132 198 -127 c 1,5,6
 207 -109 207 -109 207 -84.5 c 128,-1,7
 207 -60 207 -60 193 -48 c 1,8,-1
 195 -40 l 1,9,10
 251 -15 251 -15 284 18 c 1,11,12
 309 18 309 18 309 -12 c 0,13,14
 309 -81 309 -81 254 -135.5 c 128,-1,15
 199 -190 199 -190 122 -215 c 1,16,17
 51 -215 51 -215 6.5 -175 c 128,-1,18
 -38 -135 -38 -135 -38 -66 c 1,19,20
 -19 -42 -19 -42 -7 -31 c 128,-1,21
 5 -20 5 -20 12 -13 c 128,-1,22
 19 -6 19 -6 31.5 4 c 128,-1,23
 44 14 44 14 50.5 19 c 128,-1,24
 57 24 57 24 72 34 c 2,25,-1
 92 48 l 2,26,27
 97 52 97 52 113.5 64 c 128,-1,28
 130 76 130 76 134 78 c 1,29,30
 144 107 144 107 154 165.5 c 128,-1,31
 164 224 164 224 167 236 c 1,32,-1
 229 246 l 1,33,-1
 224 86 l 1,34,0
 185 55 185 55 158.5 9 c 128,-1,1
294 410 m 1,35,36
 279 386 279 386 248.5 352 c 128,-1,37
 218 318 218 318 195 302 c 1,38,39
 174 317 174 317 151 350 c 128,-1,40
 128 383 128 383 116 410 c 1,41,42
 128 432 128 432 159 463 c 128,-1,43
 190 494 190 494 213 506 c 1,44,45
 246 486 246 486 294 410 c 1,35,36
EndSplineSet
EndChar

StartChar: Agrave
Encoding: 192 192 129
Width: 563
GlyphClass: 2
Flags: W
LayerCount: 2
Fore
SplineSet
318 213 m 1,0,1
 297 219 297 219 275 219 c 128,-1,2
 253 219 253 219 235 219 c 128,-1,3
 217 219 217 219 192 213 c 1,4,5
 171 128 171 128 171 81 c 128,-1,6
 171 34 171 34 178 -1 c 1,7,8
 71 -1 71 -1 -9 -15 c 1,9,-1
 -21 -7 l 1,10,-1
 191 615 l 1,11,12
 161 625 161 625 126 643 c 1,13,-1
 130 662 l 1,14,15
 207 651 207 651 322 651 c 128,-1,16
 437 651 437 651 501 662 c 1,17,-1
 507 657 l 1,18,19
 493 598 493 598 483 459.5 c 128,-1,20
 473 321 473 321 473 189.5 c 128,-1,21
 473 58 473 58 484 0 c 1,22,23
 350 -4 350 -4 297 -15 c 1,24,-1
 291 -10 l 1,25,26
 309 69 309 69 318 213 c 1,0,1
206 289 m 1,27,28
 224 282 224 282 263 282 c 128,-1,29
 302 282 302 282 321 290 c 1,30,31
 326 398 326 398 326 470 c 128,-1,32
 326 542 326 542 322 591 c 1,33,34
 317 594 317 594 304 594 c 128,-1,35
 291 594 291 594 285 591 c 1,36,37
 267 564 267 564 255 503 c 1,38,-1
 206 289 l 1,27,28
137 905 m 1,39,40
 148 907 148 907 162.5 907 c 128,-1,41
 177 907 177 907 191 906 c 1,42,43
 209 874 209 874 249 841.5 c 128,-1,44
 289 809 289 809 316 793.5 c 128,-1,45
 343 778 343 778 395 751 c 1,46,-1
 384 726 l 1,47,-1
 110 802 l 1,48,49
 110 819 110 819 119 857.5 c 128,-1,50
 128 896 128 896 137 905 c 1,39,40
EndSplineSet
EndChar

StartChar: Aacute
Encoding: 193 193 130
Width: 563
GlyphClass: 2
Flags: W
LayerCount: 2
Fore
SplineSet
318 213 m 1,0,1
 297 219 297 219 275 219 c 128,-1,2
 253 219 253 219 235 219 c 128,-1,3
 217 219 217 219 192 213 c 1,4,5
 171 128 171 128 171 81 c 128,-1,6
 171 34 171 34 178 -1 c 1,7,8
 71 -1 71 -1 -9 -15 c 1,9,-1
 -21 -7 l 1,10,-1
 191 615 l 1,11,12
 161 625 161 625 126 643 c 1,13,-1
 130 662 l 1,14,15
 207 651 207 651 322 651 c 128,-1,16
 437 651 437 651 501 662 c 1,17,-1
 507 657 l 1,18,19
 493 598 493 598 483 459.5 c 128,-1,20
 473 321 473 321 473 189.5 c 128,-1,21
 473 58 473 58 484 0 c 1,22,23
 350 -4 350 -4 297 -15 c 1,24,-1
 291 -10 l 1,25,26
 309 69 309 69 318 213 c 1,0,1
206 289 m 1,27,28
 224 282 224 282 263 282 c 128,-1,29
 302 282 302 282 321 290 c 1,30,31
 326 398 326 398 326 470 c 128,-1,32
 326 542 326 542 322 591 c 1,33,34
 317 594 317 594 304 594 c 128,-1,35
 291 594 291 594 285 591 c 1,36,37
 267 564 267 564 255 503 c 1,38,-1
 206 289 l 1,27,28
490 906 m 1,39,40
 504 907 504 907 518.5 907 c 128,-1,41
 533 907 533 907 544 905 c 1,42,43
 553 896 553 896 562 857.5 c 128,-1,44
 571 819 571 819 571 802 c 1,45,-1
 297 726 l 1,46,-1
 286 751 l 1,47,48
 338 778 338 778 365 793.5 c 128,-1,49
 392 809 392 809 432 841.5 c 128,-1,50
 472 874 472 874 490 906 c 1,39,40
EndSplineSet
EndChar

StartChar: Acircumflex
Encoding: 194 194 131
Width: 563
GlyphClass: 2
Flags: W
LayerCount: 2
Fore
SplineSet
318 213 m 1,0,1
 297 219 297 219 275 219 c 128,-1,2
 253 219 253 219 235 219 c 128,-1,3
 217 219 217 219 192 213 c 1,4,5
 171 128 171 128 171 81 c 128,-1,6
 171 34 171 34 178 -1 c 1,7,8
 71 -1 71 -1 -9 -15 c 1,9,-1
 -21 -7 l 1,10,-1
 191 615 l 1,11,12
 161 625 161 625 126 643 c 1,13,-1
 130 662 l 1,14,15
 207 651 207 651 322 651 c 128,-1,16
 437 651 437 651 501 662 c 1,17,-1
 507 657 l 1,18,19
 493 598 493 598 483 459.5 c 128,-1,20
 473 321 473 321 473 189.5 c 128,-1,21
 473 58 473 58 484 0 c 1,22,23
 350 -4 350 -4 297 -15 c 1,24,-1
 291 -10 l 1,25,26
 309 69 309 69 318 213 c 1,0,1
206 289 m 1,27,28
 224 282 224 282 263 282 c 128,-1,29
 302 282 302 282 321 290 c 1,30,31
 326 398 326 398 326 470 c 128,-1,32
 326 542 326 542 322 591 c 1,33,34
 317 594 317 594 304 594 c 128,-1,35
 291 594 291 594 285 591 c 1,36,37
 267 564 267 564 255 503 c 1,38,-1
 206 289 l 1,27,28
546 726 m 1,39,-1
 340 786 l 1,40,-1
 154 726 l 1,41,-1
 143 751 l 1,42,43
 291 828 291 828 337 906 c 1,44,-1
 383 906 l 1,45,46
 438 813 438 813 557 751 c 1,47,-1
 546 726 l 1,39,-1
EndSplineSet
EndChar

StartChar: Atilde
Encoding: 195 195 132
Width: 563
GlyphClass: 2
Flags: W
LayerCount: 2
Fore
SplineSet
318 213 m 1,0,1
 297 219 297 219 275 219 c 128,-1,2
 253 219 253 219 235 219 c 128,-1,3
 217 219 217 219 192 213 c 1,4,5
 171 128 171 128 171 81 c 128,-1,6
 171 34 171 34 178 -1 c 1,7,8
 71 -1 71 -1 -9 -15 c 1,9,-1
 -21 -7 l 1,10,-1
 191 615 l 1,11,12
 161 625 161 625 126 643 c 1,13,-1
 130 662 l 1,14,15
 207 651 207 651 322 651 c 128,-1,16
 437 651 437 651 501 662 c 1,17,-1
 507 657 l 1,18,19
 493 598 493 598 483 459.5 c 128,-1,20
 473 321 473 321 473 189.5 c 128,-1,21
 473 58 473 58 484 0 c 1,22,23
 350 -4 350 -4 297 -15 c 1,24,-1
 291 -10 l 1,25,26
 309 69 309 69 318 213 c 1,0,1
206 289 m 1,27,28
 224 282 224 282 263 282 c 128,-1,29
 302 282 302 282 321 290 c 1,30,31
 326 398 326 398 326 470 c 128,-1,32
 326 542 326 542 322 591 c 1,33,34
 317 594 317 594 304 594 c 128,-1,35
 291 594 291 594 285 591 c 1,36,37
 267 564 267 564 255 503 c 1,38,-1
 206 289 l 1,27,28
451 832 m 0,39,40
 500 832 500 832 534 867 c 1,41,-1
 558 850 l 1,42,43
 494 762 494 762 418 731 c 1,44,45
 393 731 393 731 326.5 755 c 128,-1,46
 260 779 260 779 235 779 c 0,47,48
 187 779 187 779 154 744 c 1,49,-1
 129 761 l 1,50,51
 155 797 155 797 203.5 830.5 c 128,-1,52
 252 864 252 864 301 880 c 1,53,54
 374 832 374 832 451 832 c 0,39,40
EndSplineSet
EndChar

StartChar: Adieresis
Encoding: 196 196 133
Width: 563
GlyphClass: 2
Flags: W
LayerCount: 2
Fore
SplineSet
318 213 m 1,0,1
 297 219 297 219 275 219 c 128,-1,2
 253 219 253 219 235 219 c 128,-1,3
 217 219 217 219 192 213 c 1,4,5
 171 128 171 128 171 81 c 128,-1,6
 171 34 171 34 178 -1 c 1,7,8
 71 -1 71 -1 -9 -15 c 1,9,-1
 -21 -7 l 1,10,-1
 191 615 l 1,11,12
 161 625 161 625 126 643 c 1,13,-1
 130 662 l 1,14,15
 207 651 207 651 322 651 c 128,-1,16
 437 651 437 651 501 662 c 1,17,-1
 507 657 l 1,18,19
 493 598 493 598 483 459.5 c 128,-1,20
 473 321 473 321 473 189.5 c 128,-1,21
 473 58 473 58 484 0 c 1,22,23
 350 -4 350 -4 297 -15 c 1,24,-1
 291 -10 l 1,25,26
 309 69 309 69 318 213 c 1,0,1
206 289 m 1,27,28
 224 282 224 282 263 282 c 128,-1,29
 302 282 302 282 321 290 c 1,30,31
 326 398 326 398 326 470 c 128,-1,32
 326 542 326 542 322 591 c 1,33,34
 317 594 317 594 304 594 c 128,-1,35
 291 594 291 594 285 591 c 1,36,37
 267 564 267 564 255 503 c 1,38,-1
 206 289 l 1,27,28
322 814 m 1,39,40
 307 791 307 791 277.5 759 c 128,-1,41
 248 727 248 727 227 712 c 1,42,43
 187 742 187 742 152 814 c 1,44,45
 163 834 163 834 192 859 c 128,-1,46
 221 884 221 884 245 896 c 1,47,48
 284 871 284 871 322 814 c 1,39,40
543 814 m 1,49,50
 528 791 528 791 498.5 759 c 128,-1,51
 469 727 469 727 448 712 c 1,52,53
 408 742 408 742 373 814 c 1,54,55
 384 834 384 834 413 859 c 128,-1,56
 442 884 442 884 466 896 c 1,57,58
 505 871 505 871 543 814 c 1,49,50
EndSplineSet
EndChar

StartChar: Aring
Encoding: 197 197 134
Width: 563
GlyphClass: 2
Flags: W
LayerCount: 2
Fore
SplineSet
318 213 m 1,0,1
 297 219 297 219 275 219 c 128,-1,2
 253 219 253 219 235 219 c 128,-1,3
 217 219 217 219 192 213 c 1,4,5
 171 128 171 128 171 81 c 128,-1,6
 171 34 171 34 178 -1 c 1,7,8
 71 -1 71 -1 -9 -15 c 1,9,-1
 -21 -7 l 1,10,-1
 191 615 l 1,11,12
 161 625 161 625 126 643 c 1,13,-1
 130 662 l 1,14,15
 207 651 207 651 322 651 c 128,-1,16
 437 651 437 651 501 662 c 1,17,-1
 507 657 l 1,18,19
 493 598 493 598 483 459.5 c 128,-1,20
 473 321 473 321 473 189.5 c 128,-1,21
 473 58 473 58 484 0 c 1,22,23
 350 -4 350 -4 297 -15 c 1,24,-1
 291 -10 l 1,25,26
 309 69 309 69 318 213 c 1,0,1
206 289 m 1,27,28
 224 282 224 282 263 282 c 128,-1,29
 302 282 302 282 321 290 c 1,30,31
 326 398 326 398 326 470 c 128,-1,32
 326 542 326 542 322 591 c 1,33,34
 317 594 317 594 304 594 c 128,-1,35
 291 594 291 594 285 591 c 1,36,37
 267 564 267 564 255 503 c 1,38,-1
 206 289 l 1,27,28
259.5 719 m 128,-1,40
 231 737 231 737 231 778 c 128,-1,41
 231 819 231 819 268.5 853.5 c 128,-1,42
 306 888 306 888 361 904 c 1,43,44
 454 904 454 904 454 836 c 0,45,46
 454 786 454 786 419 751 c 128,-1,47
 384 716 384 716 331 701 c 1,48,39
 288 701 288 701 259.5 719 c 128,-1,40
309.5 761.5 m 128,-1,50
 323 748 323 748 343.5 748 c 128,-1,51
 364 748 364 748 377 757 c 1,52,53
 391 781 391 781 391 806.5 c 128,-1,54
 391 832 391 832 377.5 845.5 c 128,-1,55
 364 859 364 859 344 859 c 128,-1,56
 324 859 324 859 310 850 c 1,57,58
 296 826 296 826 296 800.5 c 128,-1,49
 296 775 296 775 309.5 761.5 c 128,-1,50
EndSplineSet
EndChar

StartChar: AE
Encoding: 198 198 135
Width: 702
GlyphClass: 2
Flags: W
LayerCount: 2
Fore
SplineSet
120 662 m 1,0,1
 197 651 197 651 397.5 651 c 128,-1,2
 598 651 598 651 685 666 c 1,3,-1
 691 655 l 1,4,5
 649 607 649 607 644 497 c 1,6,-1
 627 497 l 1,7,8
 618 525 618 525 611 573 c 1,9,10
 565 594 565 594 515 594 c 0,11,12
 496 594 496 594 471 589 c 1,13,14
 460 515 460 515 451 373 c 1,15,16
 470 369 470 369 512.5 369 c 128,-1,17
 555 369 555 369 606 386 c 1,18,-1
 611 380 l 1,19,20
 605 363 605 363 596 296 c 1,21,22
 526 306 526 306 492.5 306 c 128,-1,23
 459 306 459 306 448 304 c 1,24,25
 446 270 446 270 446 243 c 128,-1,26
 446 216 446 216 448.5 189.5 c 128,-1,27
 451 163 451 163 460 132 c 0,28,29
 477 71 477 71 539 71 c 1,30,31
 566 109 566 109 566 166 c 0,32,33
 566 184 566 184 563 197 c 1,34,-1
 570 202 l 1,35,36
 635 203 635 203 695 213 c 1,37,38
 683 147 683 147 625 83 c 128,-1,39
 567 19 567 19 499 -15 c 1,40,41
 382 -15 382 -15 338 37.5 c 128,-1,42
 294 90 294 90 294 214 c 0,43,44
 294 260 294 260 297 303 c 1,45,46
 277 306 277 306 252 306 c 128,-1,47
 227 306 227 306 203 303 c 1,48,49
 171 133 171 133 171 61 c 0,50,51
 171 34 171 34 178 -1 c 1,52,53
 71 -1 71 -1 -9 -15 c 1,54,-1
 -21 -7 l 1,55,-1
 181 615 l 1,56,57
 151 625 151 625 116 643 c 1,58,-1
 120 662 l 1,0,1
217 372 m 1,59,60
 236 369 236 369 262 369 c 128,-1,61
 288 369 288 369 300 371 c 1,62,63
 302 431 302 431 302 479.5 c 128,-1,64
 302 528 302 528 299 592 c 1,65,66
 295 594 295 594 287 594 c 128,-1,67
 279 594 279 594 273 592 c 1,68,69
 261 575 261 575 245 503 c 2,70,-1
 217 372 l 1,59,60
EndSplineSet
EndChar

StartChar: Ccedilla
Encoding: 199 199 136
Width: 466
GlyphClass: 2
Flags: W
LayerCount: 2
Fore
SplineSet
30 234 m 0,0,1
 30 120 30 120 94 52.5 c 128,-1,2
 158 -15 158 -15 270 -15 c 1,3,4
 340 21 340 21 395.5 93.5 c 128,-1,5
 451 166 451 166 466 243 c 1,6,7
 406 233 406 233 341 232 c 1,8,-1
 334 227 l 1,9,10
 337 214 337 214 337 196 c 0,11,12
 337 119 337 119 310 71 c 1,13,14
 277 71 277 71 253.5 89 c 128,-1,15
 230 107 230 107 218.5 138.5 c 128,-1,16
 207 170 207 170 202 203 c 128,-1,17
 197 236 197 236 197 290 c 128,-1,18
 197 344 197 344 212 428 c 128,-1,19
 227 512 227 512 252 570 c 1,20,21
 288 570 288 570 365 512 c 2,22,-1
 386 496 l 1,23,24
 395 446 395 446 405 420 c 1,25,-1
 422 420 l 1,26,27
 422 473 422 473 437.5 540 c 128,-1,28
 453 607 453 607 480 643 c 1,29,-1
 473 657 l 1,30,31
 454 651 454 651 402 651 c 128,-1,32
 350 651 350 651 309 666 c 1,33,34
 30 506 30 506 30 234 c 0,0,1
361 -126 m 0,35,36
 361 -133 361 -133 360 -140 c 1,37,38
 313 -212 313 -212 239 -235 c 1,39,40
 186 -235 186 -235 138 -210 c 1,41,42
 155 -185 155 -185 176 -138 c 1,43,-1
 181 -136 l 1,44,45
 208 -176 208 -176 256 -176 c 0,46,47
 274 -176 274 -176 283 -172 c 1,48,49
 289 -164 289 -164 289 -146 c 0,50,51
 289 -101 289 -101 202 -101 c 1,52,-1
 195 -96 l 1,53,-1
 253 17 l 1,54,-1
 298 19 l 1,55,-1
 260 -38 l 1,56,-1
 264 -42 l 1,57,58
 312 -42 312 -42 336.5 -66 c 128,-1,59
 361 -90 361 -90 361 -126 c 0,35,36
EndSplineSet
EndChar

StartChar: Egrave
Encoding: 200 200 137
Width: 469
GlyphClass: 2
Flags: W
LayerCount: 2
Fore
SplineSet
266 567 m 0,0,1
 252 567 252 567 237 564 c 1,2,3
 231 549 231 549 231 524 c 0,4,5
 231 447 231 447 261.5 412.5 c 128,-1,6
 292 378 292 378 367 371 c 1,7,-1
 361 333 l 1,8,9
 280 333 280 333 234.5 295 c 128,-1,10
 189 257 189 257 189 180 c 0,11,12
 189 130 189 130 212.5 101.5 c 128,-1,13
 236 73 236 73 279.5 73 c 128,-1,14
 323 73 323 73 344 89 c 1,15,16
 353 113 353 113 353 140 c 128,-1,17
 353 167 353 167 337 187 c 1,18,-1
 339 195 l 1,19,20
 393 214 393 214 424 246 c 1,21,22
 454 241 454 241 454 200 c 0,23,24
 454 130 454 130 393 69.5 c 128,-1,25
 332 9 332 9 255 -15 c 1,26,27
 154 -15 154 -15 87.5 34 c 128,-1,28
 21 83 21 83 21 161 c 128,-1,29
 21 239 21 239 78.5 290 c 128,-1,30
 136 341 136 341 219 350 c 1,31,-1
 219 354 l 1,32,33
 157 362 157 362 114 393 c 128,-1,34
 71 424 71 424 71 476 c 1,35,36
 121 541 121 541 186 593.5 c 128,-1,37
 251 646 251 646 318 666 c 1,38,39
 409 666 409 666 470 630 c 1,40,41
 427 566 427 566 412 489 c 1,42,-1
 403 489 l 1,43,44
 367 526 367 526 335.5 546.5 c 128,-1,45
 304 567 304 567 266 567 c 0,0,1
101 905 m 1,46,47
 112 907 112 907 126.5 907 c 128,-1,48
 141 907 141 907 155 906 c 1,49,50
 173 874 173 874 213 841.5 c 128,-1,51
 253 809 253 809 280 793.5 c 128,-1,52
 307 778 307 778 359 751 c 1,53,-1
 348 726 l 1,54,-1
 74 802 l 1,55,56
 74 819 74 819 83 857.5 c 128,-1,57
 92 896 92 896 101 905 c 1,46,47
EndSplineSet
EndChar

StartChar: Eacute
Encoding: 201 201 138
Width: 469
GlyphClass: 2
Flags: W
LayerCount: 2
Fore
SplineSet
266 567 m 0,0,1
 252 567 252 567 237 564 c 1,2,3
 231 549 231 549 231 524 c 0,4,5
 231 447 231 447 261.5 412.5 c 128,-1,6
 292 378 292 378 367 371 c 1,7,-1
 361 333 l 1,8,9
 280 333 280 333 234.5 295 c 128,-1,10
 189 257 189 257 189 180 c 0,11,12
 189 130 189 130 212.5 101.5 c 128,-1,13
 236 73 236 73 279.5 73 c 128,-1,14
 323 73 323 73 344 89 c 1,15,16
 353 113 353 113 353 140 c 128,-1,17
 353 167 353 167 337 187 c 1,18,-1
 339 195 l 1,19,20
 393 214 393 214 424 246 c 1,21,22
 454 241 454 241 454 200 c 0,23,24
 454 130 454 130 393 69.5 c 128,-1,25
 332 9 332 9 255 -15 c 1,26,27
 154 -15 154 -15 87.5 34 c 128,-1,28
 21 83 21 83 21 161 c 128,-1,29
 21 239 21 239 78.5 290 c 128,-1,30
 136 341 136 341 219 350 c 1,31,-1
 219 354 l 1,32,33
 157 362 157 362 114 393 c 128,-1,34
 71 424 71 424 71 476 c 1,35,36
 121 541 121 541 186 593.5 c 128,-1,37
 251 646 251 646 318 666 c 1,38,39
 409 666 409 666 470 630 c 1,40,41
 427 566 427 566 412 489 c 1,42,-1
 403 489 l 1,43,44
 367 526 367 526 335.5 546.5 c 128,-1,45
 304 567 304 567 266 567 c 0,0,1
454 906 m 1,46,47
 468 907 468 907 482.5 907 c 128,-1,48
 497 907 497 907 508 905 c 1,49,50
 517 896 517 896 526 857.5 c 128,-1,51
 535 819 535 819 535 802 c 1,52,-1
 261 726 l 1,53,-1
 250 751 l 1,54,55
 302 778 302 778 329 793.5 c 128,-1,56
 356 809 356 809 396 841.5 c 128,-1,57
 436 874 436 874 454 906 c 1,46,47
EndSplineSet
EndChar

StartChar: Ecircumflex
Encoding: 202 202 139
Width: 469
GlyphClass: 2
Flags: W
LayerCount: 2
Fore
SplineSet
266 567 m 0,0,1
 252 567 252 567 237 564 c 1,2,3
 231 549 231 549 231 524 c 0,4,5
 231 447 231 447 261.5 412.5 c 128,-1,6
 292 378 292 378 367 371 c 1,7,-1
 361 333 l 1,8,9
 280 333 280 333 234.5 295 c 128,-1,10
 189 257 189 257 189 180 c 0,11,12
 189 130 189 130 212.5 101.5 c 128,-1,13
 236 73 236 73 279.5 73 c 128,-1,14
 323 73 323 73 344 89 c 1,15,16
 353 113 353 113 353 140 c 128,-1,17
 353 167 353 167 337 187 c 1,18,-1
 339 195 l 1,19,20
 393 214 393 214 424 246 c 1,21,22
 454 241 454 241 454 200 c 0,23,24
 454 130 454 130 393 69.5 c 128,-1,25
 332 9 332 9 255 -15 c 1,26,27
 154 -15 154 -15 87.5 34 c 128,-1,28
 21 83 21 83 21 161 c 128,-1,29
 21 239 21 239 78.5 290 c 128,-1,30
 136 341 136 341 219 350 c 1,31,-1
 219 354 l 1,32,33
 157 362 157 362 114 393 c 128,-1,34
 71 424 71 424 71 476 c 1,35,36
 121 541 121 541 186 593.5 c 128,-1,37
 251 646 251 646 318 666 c 1,38,39
 409 666 409 666 470 630 c 1,40,41
 427 566 427 566 412 489 c 1,42,-1
 403 489 l 1,43,44
 367 526 367 526 335.5 546.5 c 128,-1,45
 304 567 304 567 266 567 c 0,0,1
510 726 m 1,46,-1
 304 786 l 1,47,-1
 118 726 l 1,48,-1
 107 751 l 1,49,50
 255 828 255 828 301 906 c 1,51,-1
 347 906 l 1,52,53
 402 813 402 813 521 751 c 1,54,-1
 510 726 l 1,46,-1
EndSplineSet
EndChar

StartChar: Edieresis
Encoding: 203 203 140
Width: 469
GlyphClass: 2
Flags: W
LayerCount: 2
Fore
SplineSet
266 567 m 0,0,1
 252 567 252 567 237 564 c 1,2,3
 231 549 231 549 231 524 c 0,4,5
 231 447 231 447 261.5 412.5 c 128,-1,6
 292 378 292 378 367 371 c 1,7,-1
 361 333 l 1,8,9
 280 333 280 333 234.5 295 c 128,-1,10
 189 257 189 257 189 180 c 0,11,12
 189 130 189 130 212.5 101.5 c 128,-1,13
 236 73 236 73 279.5 73 c 128,-1,14
 323 73 323 73 344 89 c 1,15,16
 353 113 353 113 353 140 c 128,-1,17
 353 167 353 167 337 187 c 1,18,-1
 339 195 l 1,19,20
 393 214 393 214 424 246 c 1,21,22
 454 241 454 241 454 200 c 0,23,24
 454 130 454 130 393 69.5 c 128,-1,25
 332 9 332 9 255 -15 c 1,26,27
 154 -15 154 -15 87.5 34 c 128,-1,28
 21 83 21 83 21 161 c 128,-1,29
 21 239 21 239 78.5 290 c 128,-1,30
 136 341 136 341 219 350 c 1,31,-1
 219 354 l 1,32,33
 157 362 157 362 114 393 c 128,-1,34
 71 424 71 424 71 476 c 1,35,36
 121 541 121 541 186 593.5 c 128,-1,37
 251 646 251 646 318 666 c 1,38,39
 409 666 409 666 470 630 c 1,40,41
 427 566 427 566 412 489 c 1,42,-1
 403 489 l 1,43,44
 367 526 367 526 335.5 546.5 c 128,-1,45
 304 567 304 567 266 567 c 0,0,1
286 814 m 1,46,47
 271 791 271 791 241.5 759 c 128,-1,48
 212 727 212 727 191 712 c 1,49,50
 151 742 151 742 116 814 c 1,51,52
 127 834 127 834 156 859 c 128,-1,53
 185 884 185 884 209 896 c 1,54,55
 248 871 248 871 286 814 c 1,46,47
507 814 m 1,56,57
 492 791 492 791 462.5 759 c 128,-1,58
 433 727 433 727 412 712 c 1,59,60
 372 742 372 742 337 814 c 1,61,62
 348 834 348 834 377 859 c 128,-1,63
 406 884 406 884 430 896 c 1,64,65
 469 871 469 871 507 814 c 1,56,57
EndSplineSet
EndChar

StartChar: Igrave
Encoding: 204 204 141
Width: 327
GlyphClass: 2
Flags: W
LayerCount: 2
Fore
SplineSet
248 453 m 128,-1,1
 236 308 236 308 236 188 c 128,-1,2
 236 68 236 68 251 0 c 1,3,4
 118 -4 118 -4 64 -15 c 1,5,-1
 58 -10 l 1,6,7
 72 49 72 49 82.5 190 c 128,-1,8
 93 331 93 331 93 444 c 128,-1,9
 93 557 93 557 88 616 c 1,10,11
 54 622 54 622 31 633 c 1,12,-1
 32 651 l 1,13,14
 183 651 183 651 269 664 c 1,15,-1
 275 659 l 1,16,0
 260 598 260 598 248 453 c 128,-1,1
-32 905 m 1,17,18
 -21 907 -21 907 -6.5 907 c 128,-1,19
 8 907 8 907 22 906 c 1,20,21
 40 874 40 874 80 841.5 c 128,-1,22
 120 809 120 809 147 793.5 c 128,-1,23
 174 778 174 778 226 751 c 1,24,-1
 215 726 l 1,25,-1
 -59 802 l 1,26,27
 -59 819 -59 819 -50 857.5 c 128,-1,28
 -41 896 -41 896 -32 905 c 1,17,18
EndSplineSet
EndChar

StartChar: Iacute
Encoding: 205 205 142
Width: 327
GlyphClass: 2
Flags: W
LayerCount: 2
Fore
SplineSet
248 453 m 128,-1,1
 236 308 236 308 236 188 c 128,-1,2
 236 68 236 68 251 0 c 1,3,4
 118 -4 118 -4 64 -15 c 1,5,-1
 58 -10 l 1,6,7
 72 49 72 49 82.5 190 c 128,-1,8
 93 331 93 331 93 444 c 128,-1,9
 93 557 93 557 88 616 c 1,10,11
 54 622 54 622 31 633 c 1,12,-1
 32 651 l 1,13,14
 183 651 183 651 269 664 c 1,15,-1
 275 659 l 1,16,0
 260 598 260 598 248 453 c 128,-1,1
321 906 m 1,17,18
 335 907 335 907 349.5 907 c 128,-1,19
 364 907 364 907 375 905 c 1,20,21
 384 896 384 896 393 857.5 c 128,-1,22
 402 819 402 819 402 802 c 1,23,-1
 128 726 l 1,24,-1
 117 751 l 1,25,26
 169 778 169 778 196 793.5 c 128,-1,27
 223 809 223 809 263 841.5 c 128,-1,28
 303 874 303 874 321 906 c 1,17,18
EndSplineSet
EndChar

StartChar: Icircumflex
Encoding: 206 206 143
Width: 327
GlyphClass: 2
Flags: W
LayerCount: 2
Fore
SplineSet
248 453 m 128,-1,1
 236 308 236 308 236 188 c 128,-1,2
 236 68 236 68 251 0 c 1,3,4
 118 -4 118 -4 64 -15 c 1,5,-1
 58 -10 l 1,6,7
 72 49 72 49 82.5 190 c 128,-1,8
 93 331 93 331 93 444 c 128,-1,9
 93 557 93 557 88 616 c 1,10,11
 54 622 54 622 31 633 c 1,12,-1
 32 651 l 1,13,14
 183 651 183 651 269 664 c 1,15,-1
 275 659 l 1,16,0
 260 598 260 598 248 453 c 128,-1,1
377 726 m 1,17,-1
 171 786 l 1,18,-1
 -15 726 l 1,19,-1
 -26 751 l 1,20,21
 122 828 122 828 168 906 c 1,22,-1
 214 906 l 1,23,24
 269 813 269 813 388 751 c 1,25,-1
 377 726 l 1,17,-1
EndSplineSet
EndChar

StartChar: Idieresis
Encoding: 207 207 144
Width: 327
GlyphClass: 2
Flags: W
LayerCount: 2
Fore
SplineSet
248 453 m 128,-1,1
 236 308 236 308 236 188 c 128,-1,2
 236 68 236 68 251 0 c 1,3,4
 118 -4 118 -4 64 -15 c 1,5,-1
 58 -10 l 1,6,7
 72 49 72 49 82.5 190 c 128,-1,8
 93 331 93 331 93 444 c 128,-1,9
 93 557 93 557 88 616 c 1,10,11
 54 622 54 622 31 633 c 1,12,-1
 32 651 l 1,13,14
 183 651 183 651 269 664 c 1,15,-1
 275 659 l 1,16,0
 260 598 260 598 248 453 c 128,-1,1
153 814 m 1,17,18
 138 791 138 791 108.5 759 c 128,-1,19
 79 727 79 727 58 712 c 1,20,21
 18 742 18 742 -17 814 c 1,22,23
 -6 834 -6 834 23 859 c 128,-1,24
 52 884 52 884 76 896 c 1,25,26
 115 871 115 871 153 814 c 1,17,18
374 814 m 1,27,28
 359 791 359 791 329.5 759 c 128,-1,29
 300 727 300 727 279 712 c 1,30,31
 239 742 239 742 204 814 c 1,32,33
 215 834 215 834 244 859 c 128,-1,34
 273 884 273 884 297 896 c 1,35,36
 336 871 336 871 374 814 c 1,27,28
EndSplineSet
EndChar

StartChar: Eth
Encoding: 208 208 145
Width: 602
GlyphClass: 2
Flags: W
LayerCount: 2
Fore
SplineSet
35 651 m 1,0,-1
 309 662 l 1,1,2
 448 662 448 662 510 595.5 c 128,-1,3
 572 529 572 529 572 384.5 c 128,-1,4
 572 240 572 240 483 132 c 128,-1,5
 394 24 394 24 249 -15 c 1,6,-1
 218 -7 l 2,7,8
 149 11 149 11 114 11 c 128,-1,9
 79 11 79 11 59 7 c 1,10,-1
 53 20 l 1,11,12
 74 42 74 42 81 99 c 1,13,14
 91 195 91 195 96 310 c 1,15,-1
 15 303 l 1,16,-1
 7 309 l 1,17,18
 30 330 30 330 42 358 c 1,19,-1
 97 358 l 1,20,21
 99 426 99 426 99 494 c 128,-1,22
 99 562 99 562 91 616 c 1,23,24
 57 622 57 622 34 633 c 1,25,-1
 35 651 l 1,0,-1
248 324 m 1,26,27
 246 276 246 276 246 204 c 128,-1,28
 246 132 246 132 251 82 c 1,29,30
 266 73 266 73 304 73 c 128,-1,31
 342 73 342 73 366 94 c 1,32,33
 386 136 386 136 397 205.5 c 128,-1,34
 408 275 408 275 408 320.5 c 128,-1,35
 408 366 408 366 407.5 383.5 c 128,-1,36
 407 401 407 401 405 433.5 c 128,-1,37
 403 466 403 466 399.5 486 c 128,-1,38
 396 506 396 506 388 531 c 128,-1,39
 380 556 380 556 369 570 c 128,-1,40
 358 584 358 584 340.5 594 c 128,-1,41
 323 604 323 604 301 604 c 128,-1,42
 279 604 279 604 264 598 c 1,43,44
 255 498 255 498 250 369 c 1,45,46
 313 375 313 375 355 383 c 1,47,-1
 361 378 l 1,48,49
 348 358 348 358 336 332 c 1,50,-1
 248 324 l 1,26,27
EndSplineSet
EndChar

StartChar: Ntilde
Encoding: 209 209 146
Width: 624
GlyphClass: 2
Flags: W
LayerCount: 2
Fore
SplineSet
560 466.5 m 128,-1,1
 549 333 549 333 549 210.5 c 128,-1,2
 549 88 549 88 564 0 c 1,3,4
 558 -1 558 -1 514 -3 c 0,5,6
 391 -9 391 -9 378 -13 c 1,7,-1
 371 -10 l 1,8,9
 319 170 319 170 210 407 c 0,10,11
 185 461 185 461 167 485 c 1,12,-1
 163 483 l 1,13,14
 163 306 163 306 172 172 c 128,-1,15
 181 38 181 38 189 0 c 1,16,17
 105 -5 105 -5 65 -15 c 1,18,-1
 59 -10 l 1,19,20
 73 49 73 49 83 188.5 c 128,-1,21
 93 328 93 328 93 437 c 128,-1,22
 93 546 93 546 83 616 c 1,23,24
 48 622 48 622 26 633 c 1,25,-1
 27 651 l 1,26,27
 203 651 203 651 289 664 c 1,28,29
 306 574 306 574 351.5 447 c 128,-1,30
 397 320 397 320 444 239 c 2,31,-1
 478 179 l 1,32,-1
 481 180 l 1,33,34
 481 357 481 357 472 484.5 c 128,-1,35
 463 612 463 612 455 651 c 1,36,37
 540 656 540 656 579 666 c 1,38,-1
 585 661 l 1,39,0
 571 600 571 600 560 466.5 c 128,-1,1
460 832 m 0,40,41
 509 832 509 832 543 867 c 1,42,-1
 567 850 l 1,43,44
 503 762 503 762 427 731 c 1,45,46
 402 731 402 731 335.5 755 c 128,-1,47
 269 779 269 779 244 779 c 0,48,49
 196 779 196 779 163 744 c 1,50,-1
 138 761 l 1,51,52
 164 797 164 797 212.5 830.5 c 128,-1,53
 261 864 261 864 310 880 c 1,54,55
 383 832 383 832 460 832 c 0,40,41
EndSplineSet
EndChar

StartChar: Ograve
Encoding: 210 210 147
Width: 588
GlyphClass: 2
Flags: W
LayerCount: 2
Fore
SplineSet
391 396 m 0,0,1
 391 582 391 582 300 582 c 0,2,3
 269 582 269 582 250 571 c 1,4,5
 197 436 197 436 197 255 c 0,6,7
 197 177 197 177 219.5 122.5 c 128,-1,8
 242 68 242 68 288 68 c 0,9,10
 318 68 318 68 337 79 c 1,11,12
 364 133 364 133 377.5 225.5 c 128,-1,13
 391 318 391 318 391 396 c 0,0,1
30 238 m 0,14,15
 30 377 30 377 112 497 c 128,-1,16
 194 617 194 617 324 666 c 1,17,18
 558 666 558 666 558 413 c 0,19,20
 558 277 558 277 474 152 c 128,-1,21
 390 27 390 27 265 -15 c 1,22,23
 154 -15 154 -15 92 54 c 128,-1,24
 30 123 30 123 30 238 c 0,14,15
121 905 m 1,25,26
 132 907 132 907 146.5 907 c 128,-1,27
 161 907 161 907 175 906 c 1,28,29
 193 874 193 874 233 841.5 c 128,-1,30
 273 809 273 809 300 793.5 c 128,-1,31
 327 778 327 778 379 751 c 1,32,-1
 368 726 l 1,33,-1
 94 802 l 1,34,35
 94 819 94 819 103 857.5 c 128,-1,36
 112 896 112 896 121 905 c 1,25,26
EndSplineSet
EndChar

StartChar: Oacute
Encoding: 211 211 148
Width: 588
GlyphClass: 2
Flags: W
LayerCount: 2
Fore
SplineSet
391 396 m 0,0,1
 391 582 391 582 300 582 c 0,2,3
 269 582 269 582 250 571 c 1,4,5
 197 436 197 436 197 255 c 0,6,7
 197 177 197 177 219.5 122.5 c 128,-1,8
 242 68 242 68 288 68 c 0,9,10
 318 68 318 68 337 79 c 1,11,12
 364 133 364 133 377.5 225.5 c 128,-1,13
 391 318 391 318 391 396 c 0,0,1
30 238 m 0,14,15
 30 377 30 377 112 497 c 128,-1,16
 194 617 194 617 324 666 c 1,17,18
 558 666 558 666 558 413 c 0,19,20
 558 277 558 277 474 152 c 128,-1,21
 390 27 390 27 265 -15 c 1,22,23
 154 -15 154 -15 92 54 c 128,-1,24
 30 123 30 123 30 238 c 0,14,15
474 906 m 1,25,26
 488 907 488 907 502.5 907 c 128,-1,27
 517 907 517 907 528 905 c 1,28,29
 537 896 537 896 546 857.5 c 128,-1,30
 555 819 555 819 555 802 c 1,31,-1
 281 726 l 1,32,-1
 270 751 l 1,33,34
 322 778 322 778 349 793.5 c 128,-1,35
 376 809 376 809 416 841.5 c 128,-1,36
 456 874 456 874 474 906 c 1,25,26
EndSplineSet
EndChar

StartChar: Ocircumflex
Encoding: 212 212 149
Width: 588
GlyphClass: 2
Flags: W
LayerCount: 2
Fore
SplineSet
391 396 m 0,0,1
 391 582 391 582 300 582 c 0,2,3
 269 582 269 582 250 571 c 1,4,5
 197 436 197 436 197 255 c 0,6,7
 197 177 197 177 219.5 122.5 c 128,-1,8
 242 68 242 68 288 68 c 0,9,10
 318 68 318 68 337 79 c 1,11,12
 364 133 364 133 377.5 225.5 c 128,-1,13
 391 318 391 318 391 396 c 0,0,1
30 238 m 0,14,15
 30 377 30 377 112 497 c 128,-1,16
 194 617 194 617 324 666 c 1,17,18
 558 666 558 666 558 413 c 0,19,20
 558 277 558 277 474 152 c 128,-1,21
 390 27 390 27 265 -15 c 1,22,23
 154 -15 154 -15 92 54 c 128,-1,24
 30 123 30 123 30 238 c 0,14,15
530 726 m 1,25,-1
 324 786 l 1,26,-1
 138 726 l 1,27,-1
 127 751 l 1,28,29
 275 828 275 828 321 906 c 1,30,-1
 367 906 l 1,31,32
 422 813 422 813 541 751 c 1,33,-1
 530 726 l 1,25,-1
EndSplineSet
EndChar

StartChar: Otilde
Encoding: 213 213 150
Width: 588
GlyphClass: 2
Flags: W
LayerCount: 2
Fore
SplineSet
391 396 m 0,0,1
 391 582 391 582 300 582 c 0,2,3
 269 582 269 582 250 571 c 1,4,5
 197 436 197 436 197 255 c 0,6,7
 197 177 197 177 219.5 122.5 c 128,-1,8
 242 68 242 68 288 68 c 0,9,10
 318 68 318 68 337 79 c 1,11,12
 364 133 364 133 377.5 225.5 c 128,-1,13
 391 318 391 318 391 396 c 0,0,1
30 238 m 0,14,15
 30 377 30 377 112 497 c 128,-1,16
 194 617 194 617 324 666 c 1,17,18
 558 666 558 666 558 413 c 0,19,20
 558 277 558 277 474 152 c 128,-1,21
 390 27 390 27 265 -15 c 1,22,23
 154 -15 154 -15 92 54 c 128,-1,24
 30 123 30 123 30 238 c 0,14,15
435 832 m 0,25,26
 484 832 484 832 518 867 c 1,27,-1
 542 850 l 1,28,29
 478 762 478 762 402 731 c 1,30,31
 377 731 377 731 310.5 755 c 128,-1,32
 244 779 244 779 219 779 c 0,33,34
 171 779 171 779 138 744 c 1,35,-1
 113 761 l 1,36,37
 139 797 139 797 187.5 830.5 c 128,-1,38
 236 864 236 864 285 880 c 1,39,40
 358 832 358 832 435 832 c 0,25,26
EndSplineSet
EndChar

StartChar: Odieresis
Encoding: 214 214 151
Width: 588
GlyphClass: 2
Flags: W
LayerCount: 2
Fore
SplineSet
391 396 m 0,0,1
 391 582 391 582 300 582 c 0,2,3
 269 582 269 582 250 571 c 1,4,5
 197 436 197 436 197 255 c 0,6,7
 197 177 197 177 219.5 122.5 c 128,-1,8
 242 68 242 68 288 68 c 0,9,10
 318 68 318 68 337 79 c 1,11,12
 364 133 364 133 377.5 225.5 c 128,-1,13
 391 318 391 318 391 396 c 0,0,1
30 238 m 0,14,15
 30 377 30 377 112 497 c 128,-1,16
 194 617 194 617 324 666 c 1,17,18
 558 666 558 666 558 413 c 0,19,20
 558 277 558 277 474 152 c 128,-1,21
 390 27 390 27 265 -15 c 1,22,23
 154 -15 154 -15 92 54 c 128,-1,24
 30 123 30 123 30 238 c 0,14,15
306 814 m 1,25,26
 291 791 291 791 261.5 759 c 128,-1,27
 232 727 232 727 211 712 c 1,28,29
 171 742 171 742 136 814 c 1,30,31
 147 834 147 834 176 859 c 128,-1,32
 205 884 205 884 229 896 c 1,33,34
 268 871 268 871 306 814 c 1,25,26
527 814 m 1,35,36
 512 791 512 791 482.5 759 c 128,-1,37
 453 727 453 727 432 712 c 1,38,39
 392 742 392 742 357 814 c 1,40,41
 368 834 368 834 397 859 c 128,-1,42
 426 884 426 884 450 896 c 1,43,44
 489 871 489 871 527 814 c 1,35,36
EndSplineSet
EndChar

StartChar: multiply
Encoding: 215 215 152
Width: 576
GlyphClass: 2
Flags: W
LayerCount: 2
Fore
SplineSet
77 91 m 1,0,1
 182 179 182 179 241 239 c 1,2,-1
 87 392 l 1,3,-1
 139 442 l 1,4,-1
 147 441 l 1,5,6
 172 413 172 413 291 288 c 1,7,-1
 429 440 l 1,8,-1
 437 441 l 1,9,-1
 489 393 l 1,10,-1
 333 241 l 1,11,12
 386 186 386 186 499 92 c 1,13,-1
 457 38 l 1,14,-1
 446 39 l 1,15,-1
 286 195 l 1,16,-1
 130 38 l 1,17,-1
 119 38 l 1,18,-1
 77 91 l 1,0,1
EndSplineSet
EndChar

StartChar: Oslash
Encoding: 216 216 153
Width: 588
GlyphClass: 2
Flags: W
LayerCount: 2
Fore
SplineSet
30 238 m 0,0,1
 30 377 30 377 112 497 c 128,-1,2
 194 617 194 617 324 666 c 1,3,4
 363 666 363 666 398 658 c 1,5,6
 403 671 403 671 410 697 c 128,-1,7
 417 723 417 723 420 732 c 1,8,9
 449 734 449 734 467 741 c 1,10,-1
 471 737 l 1,11,12
 452 696 452 696 433 648 c 1,13,14
 558 599 558 599 558 413 c 0,15,16
 558 277 558 277 474 152 c 128,-1,17
 390 27 390 27 265 -15 c 1,18,19
 224 -15 224 -15 183 -3 c 1,20,-1
 153 -87 l 1,21,-1
 147 -87 l 1,22,23
 120 -69 120 -69 113 -55 c 1,24,-1
 144 12 l 1,25,26
 30 74 30 74 30 238 c 0,0,1
377.5 225.5 m 128,-1,28
 391 318 391 318 391 389.5 c 128,-1,29
 391 461 391 461 379 507 c 1,30,-1
 226 110 l 1,31,32
 249 68 249 68 283.5 68 c 128,-1,33
 318 68 318 68 337 79 c 1,34,27
 364 133 364 133 377.5 225.5 c 128,-1,28
197 255 m 0,35,36
 197 207 197 207 206 165 c 1,37,-1
 358 553 l 1,38,39
 335 582 335 582 302 582 c 128,-1,40
 269 582 269 582 250 571 c 1,41,42
 197 436 197 436 197 255 c 0,35,36
EndSplineSet
EndChar

StartChar: Ugrave
Encoding: 217 217 154
Width: 641
GlyphClass: 2
Flags: W
LayerCount: 2
Fore
SplineSet
85 205 m 1,0,-1
 100 457 l 1,1,2
 100 565 100 565 88 616 c 1,3,4
 54 622 54 622 31 633 c 1,5,-1
 32 651 l 1,6,7
 186 651 186 651 272 664 c 1,8,-1
 278 659 l 1,9,10
 263 594 263 594 252.5 481.5 c 128,-1,11
 242 369 242 369 242 298 c 128,-1,12
 242 227 242 227 243 202.5 c 128,-1,13
 244 178 244 178 249 147 c 0,14,15
 259 88 259 88 298 80 c 1,16,17
 361 125 361 125 396 200 c 1,18,19
 403 316 403 316 403 457 c 128,-1,20
 403 598 403 598 392 649 c 1,21,22
 526 653 526 653 579 664 c 1,23,-1
 585 659 l 1,24,25
 569 587 569 587 559.5 447 c 128,-1,26
 550 307 550 307 550 179 c 128,-1,27
 550 51 550 51 561 0 c 1,28,29
 430 -6 430 -6 387 -15 c 1,30,-1
 380 -10 l 1,31,32
 399 62 399 62 406 125 c 1,33,-1
 402 126 l 1,34,35
 346 22 346 22 263 -15 c 1,36,37
 165 -13 165 -13 125 42 c 128,-1,38
 85 97 85 97 85 205 c 1,0,-1
130 905 m 1,39,40
 141 907 141 907 155.5 907 c 128,-1,41
 170 907 170 907 184 906 c 1,42,43
 202 874 202 874 242 841.5 c 128,-1,44
 282 809 282 809 309 793.5 c 128,-1,45
 336 778 336 778 388 751 c 1,46,-1
 377 726 l 1,47,-1
 103 802 l 1,48,49
 103 819 103 819 112 857.5 c 128,-1,50
 121 896 121 896 130 905 c 1,39,40
EndSplineSet
EndChar

StartChar: Uacute
Encoding: 218 218 155
Width: 641
GlyphClass: 2
Flags: W
LayerCount: 2
Fore
SplineSet
85 205 m 1,0,-1
 100 457 l 1,1,2
 100 565 100 565 88 616 c 1,3,4
 54 622 54 622 31 633 c 1,5,-1
 32 651 l 1,6,7
 186 651 186 651 272 664 c 1,8,-1
 278 659 l 1,9,10
 263 594 263 594 252.5 481.5 c 128,-1,11
 242 369 242 369 242 298 c 128,-1,12
 242 227 242 227 243 202.5 c 128,-1,13
 244 178 244 178 249 147 c 0,14,15
 259 88 259 88 298 80 c 1,16,17
 361 125 361 125 396 200 c 1,18,19
 403 316 403 316 403 457 c 128,-1,20
 403 598 403 598 392 649 c 1,21,22
 526 653 526 653 579 664 c 1,23,-1
 585 659 l 1,24,25
 569 587 569 587 559.5 447 c 128,-1,26
 550 307 550 307 550 179 c 128,-1,27
 550 51 550 51 561 0 c 1,28,29
 430 -6 430 -6 387 -15 c 1,30,-1
 380 -10 l 1,31,32
 399 62 399 62 406 125 c 1,33,-1
 402 126 l 1,34,35
 346 22 346 22 263 -15 c 1,36,37
 165 -13 165 -13 125 42 c 128,-1,38
 85 97 85 97 85 205 c 1,0,-1
483 906 m 1,39,40
 497 907 497 907 511.5 907 c 128,-1,41
 526 907 526 907 537 905 c 1,42,43
 546 896 546 896 555 857.5 c 128,-1,44
 564 819 564 819 564 802 c 1,45,-1
 290 726 l 1,46,-1
 279 751 l 1,47,48
 331 778 331 778 358 793.5 c 128,-1,49
 385 809 385 809 425 841.5 c 128,-1,50
 465 874 465 874 483 906 c 1,39,40
EndSplineSet
EndChar

StartChar: Ucircumflex
Encoding: 219 219 156
Width: 641
GlyphClass: 2
Flags: W
LayerCount: 2
Fore
SplineSet
85 205 m 1,0,-1
 100 457 l 1,1,2
 100 565 100 565 88 616 c 1,3,4
 54 622 54 622 31 633 c 1,5,-1
 32 651 l 1,6,7
 186 651 186 651 272 664 c 1,8,-1
 278 659 l 1,9,10
 263 594 263 594 252.5 481.5 c 128,-1,11
 242 369 242 369 242 298 c 128,-1,12
 242 227 242 227 243 202.5 c 128,-1,13
 244 178 244 178 249 147 c 0,14,15
 259 88 259 88 298 80 c 1,16,17
 361 125 361 125 396 200 c 1,18,19
 403 316 403 316 403 457 c 128,-1,20
 403 598 403 598 392 649 c 1,21,22
 526 653 526 653 579 664 c 1,23,-1
 585 659 l 1,24,25
 569 587 569 587 559.5 447 c 128,-1,26
 550 307 550 307 550 179 c 128,-1,27
 550 51 550 51 561 0 c 1,28,29
 430 -6 430 -6 387 -15 c 1,30,-1
 380 -10 l 1,31,32
 399 62 399 62 406 125 c 1,33,-1
 402 126 l 1,34,35
 346 22 346 22 263 -15 c 1,36,37
 165 -13 165 -13 125 42 c 128,-1,38
 85 97 85 97 85 205 c 1,0,-1
539 726 m 1,39,-1
 333 786 l 1,40,-1
 147 726 l 1,41,-1
 136 751 l 1,42,43
 284 828 284 828 330 906 c 1,44,-1
 376 906 l 1,45,46
 431 813 431 813 550 751 c 1,47,-1
 539 726 l 1,39,-1
EndSplineSet
EndChar

StartChar: Udieresis
Encoding: 220 220 157
Width: 641
GlyphClass: 2
Flags: W
LayerCount: 2
Fore
SplineSet
85 205 m 1,0,-1
 100 457 l 1,1,2
 100 565 100 565 88 616 c 1,3,4
 54 622 54 622 31 633 c 1,5,-1
 32 651 l 1,6,7
 186 651 186 651 272 664 c 1,8,-1
 278 659 l 1,9,10
 263 594 263 594 252.5 481.5 c 128,-1,11
 242 369 242 369 242 298 c 128,-1,12
 242 227 242 227 243 202.5 c 128,-1,13
 244 178 244 178 249 147 c 0,14,15
 259 88 259 88 298 80 c 1,16,17
 361 125 361 125 396 200 c 1,18,19
 403 316 403 316 403 457 c 128,-1,20
 403 598 403 598 392 649 c 1,21,22
 526 653 526 653 579 664 c 1,23,-1
 585 659 l 1,24,25
 569 587 569 587 559.5 447 c 128,-1,26
 550 307 550 307 550 179 c 128,-1,27
 550 51 550 51 561 0 c 1,28,29
 430 -6 430 -6 387 -15 c 1,30,-1
 380 -10 l 1,31,32
 399 62 399 62 406 125 c 1,33,-1
 402 126 l 1,34,35
 346 22 346 22 263 -15 c 1,36,37
 165 -13 165 -13 125 42 c 128,-1,38
 85 97 85 97 85 205 c 1,0,-1
315 814 m 1,39,40
 300 791 300 791 270.5 759 c 128,-1,41
 241 727 241 727 220 712 c 1,42,43
 180 742 180 742 145 814 c 1,44,45
 156 834 156 834 185 859 c 128,-1,46
 214 884 214 884 238 896 c 1,47,48
 277 871 277 871 315 814 c 1,39,40
536 814 m 1,49,50
 521 791 521 791 491.5 759 c 128,-1,51
 462 727 462 727 441 712 c 1,52,53
 401 742 401 742 366 814 c 1,54,55
 377 834 377 834 406 859 c 128,-1,56
 435 884 435 884 459 896 c 1,57,58
 498 871 498 871 536 814 c 1,49,50
EndSplineSet
EndChar

StartChar: Yacute
Encoding: 221 221 158
Width: 526
GlyphClass: 2
Flags: W
LayerCount: 2
Fore
SplineSet
354 491.5 m 128,-1,1
 374 571 374 571 374 601.5 c 128,-1,2
 374 632 374 632 369 646 c 1,3,-1
 373 651 l 1,4,5
 468 651 468 651 527 666 c 1,6,7
 523 597 523 597 467.5 503.5 c 128,-1,8
 412 410 412 410 343 327 c 1,9,10
 338 258 338 258 338 163 c 128,-1,11
 338 68 338 68 353 0 c 1,12,13
 220 -4 220 -4 166 -15 c 1,14,-1
 160 -10 l 1,15,16
 187 101 187 101 194 294 c 1,17,18
 103 535 103 535 42 616 c 1,19,20
 9 622 9 622 -14 633 c 1,21,-1
 -13 651 l 1,22,23
 142 651 142 651 235 665 c 1,24,-1
 240 659 l 1,25,26
 249 555 249 555 313 371 c 1,27,0
 334 412 334 412 354 491.5 c 128,-1,1
463 907 m 1,28,29
 477 908 477 908 491.5 908 c 128,-1,30
 506 908 506 908 517 906 c 1,31,32
 526 897 526 897 535 858.5 c 128,-1,33
 544 820 544 820 544 803 c 1,34,-1
 270 727 l 1,35,-1
 259 752 l 1,36,37
 311 779 311 779 338 794.5 c 128,-1,38
 365 810 365 810 405 842.5 c 128,-1,39
 445 875 445 875 463 907 c 1,28,29
EndSplineSet
EndChar

StartChar: Thorn
Encoding: 222 222 159
Width: 556
GlyphClass: 2
Flags: W
LayerCount: 2
Fore
SplineSet
254 522 m 1,0,1
 296 524 296 524 328.5 524 c 128,-1,2
 361 524 361 524 397.5 517.5 c 128,-1,3
 434 511 434 511 464 495 c 0,4,5
 526 462 526 462 526 371.5 c 128,-1,6
 526 281 526 281 448 224 c 128,-1,7
 370 167 370 167 259 167 c 1,8,-1
 262 204 l 1,9,10
 357 204 357 204 357 346 c 0,11,12
 357 466 357 466 289 466 c 0,13,14
 269 466 269 466 249 461 c 1,15,16
 236 315 236 315 236 191.5 c 128,-1,17
 236 68 236 68 251 0 c 1,18,19
 118 -4 118 -4 64 -15 c 1,20,-1
 58 -10 l 1,21,22
 72 49 72 49 82.5 190 c 128,-1,23
 93 331 93 331 93 444 c 128,-1,24
 93 557 93 557 88 616 c 1,25,26
 54 622 54 622 31 633 c 1,27,-1
 32 651 l 1,28,29
 183 651 183 651 269 664 c 1,30,-1
 275 659 l 1,31,32
 263 608 263 608 254 522 c 1,0,1
EndSplineSet
EndChar

StartChar: germandbls
Encoding: 223 223 160
Width: 538
GlyphClass: 2
Flags: W
LayerCount: 2
Fore
SplineSet
218 484 m 2,0,-1
 218 275 l 2,1,2
 218 62 218 62 234 0 c 1,3,4
 94 -79 94 -79 77 -202 c 1,5,-1
 55 -200 l 1,6,7
 53 -187 53 -187 53 -166.5 c 128,-1,8
 53 -146 53 -146 64 -2 c 0,9,10
 77 158 77 158 77 251.5 c 128,-1,11
 77 345 77 345 69 440 c 1,12,-1
 28 443 l 1,13,-1
 25 462 l 1,14,15
 45 475 45 475 70 484 c 1,16,17
 91 574 91 574 144 627 c 128,-1,18
 197 680 197 680 293 711 c 1,19,20
 428 711 428 711 463 657 c 0,21,22
 478 634 478 634 478 598.5 c 128,-1,23
 478 563 478 563 457.5 529 c 128,-1,24
 437 495 437 495 413 475.5 c 128,-1,25
 389 456 389 456 368.5 440 c 128,-1,26
 348 424 348 424 348 420 c 0,27,28
 348 388 348 388 442 330 c 1,29,30
 478 309 478 309 507.5 277.5 c 128,-1,31
 537 246 537 246 537 216 c 0,32,33
 537 152 537 152 479.5 81.5 c 128,-1,34
 422 11 422 11 357 -15 c 1,35,36
 313 5 313 5 295 5 c 128,-1,37
 277 5 277 5 267 0 c 1,38,-1
 259 13 l 1,39,40
 293 71 293 71 306 136 c 1,41,-1
 314 136 l 1,42,43
 328 115 328 115 354.5 93.5 c 128,-1,44
 381 72 381 72 403 66 c 1,45,46
 437 98 437 98 437 127 c 0,47,48
 437 157 437 157 336 220 c 0,49,50
 299 243 299 243 267.5 279.5 c 128,-1,51
 236 316 236 316 236 353 c 2,52,-1
 236 362 l 1,53,54
 279 396 279 396 306.5 450 c 128,-1,55
 334 504 334 504 334 556 c 0,56,57
 334 637 334 637 264 637 c 0,58,59
 248 637 248 637 230 632 c 1,60,61
 218 580 218 580 218 484 c 2,0,-1
EndSplineSet
EndChar

StartChar: agrave
Encoding: 224 224 161
Width: 522
GlyphClass: 2
Flags: W
LayerCount: 2
Fore
SplineSet
22 159 m 0,0,1
 22 270 22 270 91 363 c 128,-1,2
 160 456 160 456 269 505 c 1,3,4
 327 505 327 505 400 470 c 1,5,6
 425 515 425 515 442 537 c 1,7,-1
 458 532 l 1,8,9
 424 443 424 443 424 250 c 0,10,11
 424 141 424 141 432 87 c 1,12,13
 467 131 467 131 503 248 c 1,14,-1
 519 244 l 1,15,16
 483 42 483 42 400 -15 c 1,17,18
 332 -15 332 -15 309 29 c 128,-1,19
 286 73 286 73 286 159 c 1,20,-1
 302 240 l 1,21,-1
 285 242 l 1,22,23
 267 153 267 153 240.5 87 c 128,-1,24
 214 21 214 21 164 -15 c 1,25,26
 98 -15 98 -15 60 35.5 c 128,-1,27
 22 86 22 86 22 159 c 0,0,1
206 422 m 1,28,29
 177 304 177 304 177 203 c 128,-1,30
 177 102 177 102 194 88 c 1,31,32
 229 135 229 135 254 235 c 128,-1,33
 279 335 279 335 279 402 c 1,34,35
 260 429 260 429 238 429 c 128,-1,36
 216 429 216 429 206 422 c 1,28,29
89 745 m 1,37,38
 100 747 100 747 114.5 747 c 128,-1,39
 129 747 129 747 143 746 c 1,40,41
 188 663 188 663 333 567 c 1,42,-1
 319 543 l 1,43,-1
 55 648 l 1,44,45
 56 664 56 664 67.5 699.5 c 128,-1,46
 79 735 79 735 89 745 c 1,37,38
EndSplineSet
EndChar

StartChar: aacute
Encoding: 225 225 162
Width: 522
GlyphClass: 2
Flags: W
LayerCount: 2
Fore
SplineSet
22 159 m 0,0,1
 22 270 22 270 91 363 c 128,-1,2
 160 456 160 456 269 505 c 1,3,4
 327 505 327 505 400 470 c 1,5,6
 425 515 425 515 442 537 c 1,7,-1
 458 532 l 1,8,9
 424 443 424 443 424 250 c 0,10,11
 424 141 424 141 432 87 c 1,12,13
 467 131 467 131 503 248 c 1,14,-1
 519 244 l 1,15,16
 483 42 483 42 400 -15 c 1,17,18
 332 -15 332 -15 309 29 c 128,-1,19
 286 73 286 73 286 159 c 1,20,-1
 302 240 l 1,21,-1
 285 242 l 1,22,23
 267 153 267 153 240.5 87 c 128,-1,24
 214 21 214 21 164 -15 c 1,25,26
 98 -15 98 -15 60 35.5 c 128,-1,27
 22 86 22 86 22 159 c 0,0,1
206 422 m 1,28,29
 177 304 177 304 177 203 c 128,-1,30
 177 102 177 102 194 88 c 1,31,32
 229 135 229 135 254 235 c 128,-1,33
 279 335 279 335 279 402 c 1,34,35
 260 429 260 429 238 429 c 128,-1,36
 216 429 216 429 206 422 c 1,28,29
393 746 m 1,37,38
 407 747 407 747 421.5 747 c 128,-1,39
 436 747 436 747 447 745 c 1,40,41
 457 735 457 735 468.5 699.5 c 128,-1,42
 480 664 480 664 481 648 c 1,43,-1
 217 543 l 1,44,-1
 203 567 l 1,45,46
 348 663 348 663 393 746 c 1,37,38
EndSplineSet
EndChar

StartChar: acircumflex
Encoding: 226 226 163
Width: 522
GlyphClass: 2
Flags: W
LayerCount: 2
Fore
SplineSet
468 557 m 1,0,-1
 268 623 l 1,1,-1
 85 543 l 1,2,-1
 71 567 l 1,3,4
 214 657 214 657 271 746 c 1,5,-1
 315 746 l 1,6,7
 362 661 362 661 482 581 c 1,8,-1
 468 557 l 1,0,-1
22 159 m 0,9,10
 22 270 22 270 91 363 c 128,-1,11
 160 456 160 456 269 505 c 1,12,13
 327 505 327 505 400 470 c 1,14,15
 425 515 425 515 442 537 c 1,16,-1
 458 532 l 1,17,18
 424 443 424 443 424 250 c 0,19,20
 424 141 424 141 432 87 c 1,21,22
 467 131 467 131 503 248 c 1,23,-1
 519 244 l 1,24,25
 483 42 483 42 400 -15 c 1,26,27
 332 -15 332 -15 309 29 c 128,-1,28
 286 73 286 73 286 159 c 1,29,-1
 302 240 l 1,30,-1
 285 242 l 1,31,32
 267 153 267 153 240.5 87 c 128,-1,33
 214 21 214 21 164 -15 c 1,34,35
 98 -15 98 -15 60 35.5 c 128,-1,36
 22 86 22 86 22 159 c 0,9,10
206 422 m 1,37,38
 177 304 177 304 177 203 c 128,-1,39
 177 102 177 102 194 88 c 1,40,41
 229 135 229 135 254 235 c 128,-1,42
 279 335 279 335 279 402 c 1,43,44
 260 429 260 429 238 429 c 128,-1,45
 216 429 216 429 206 422 c 1,37,38
EndSplineSet
EndChar

StartChar: atilde
Encoding: 227 227 164
Width: 522
GlyphClass: 2
Flags: W
LayerCount: 2
Fore
SplineSet
22 159 m 0,0,1
 22 270 22 270 91 363 c 128,-1,2
 160 456 160 456 269 505 c 1,3,4
 327 505 327 505 400 470 c 1,5,6
 425 515 425 515 442 537 c 1,7,-1
 458 532 l 1,8,9
 424 443 424 443 424 250 c 0,10,11
 424 141 424 141 432 87 c 1,12,13
 467 131 467 131 503 248 c 1,14,-1
 519 244 l 1,15,16
 483 42 483 42 400 -15 c 1,17,18
 332 -15 332 -15 309 29 c 128,-1,19
 286 73 286 73 286 159 c 1,20,-1
 302 240 l 1,21,-1
 285 242 l 1,22,23
 267 153 267 153 240.5 87 c 128,-1,24
 214 21 214 21 164 -15 c 1,25,26
 98 -15 98 -15 60 35.5 c 128,-1,27
 22 86 22 86 22 159 c 0,0,1
206 422 m 1,28,29
 177 304 177 304 177 203 c 128,-1,30
 177 102 177 102 194 88 c 1,31,32
 229 135 229 135 254 235 c 128,-1,33
 279 335 279 335 279 402 c 1,34,35
 260 429 260 429 238 429 c 128,-1,36
 216 429 216 429 206 422 c 1,28,29
261 720 m 1,37,38
 334 672 334 672 387 672 c 128,-1,39
 440 672 440 672 474 707 c 1,40,-1
 498 690 l 1,41,42
 434 602 434 602 358 571 c 1,43,44
 333 571 333 571 276.5 595 c 128,-1,45
 220 619 220 619 195 619 c 0,46,47
 147 619 147 619 114 584 c 1,48,-1
 89 601 l 1,49,50
 115 637 115 637 163.5 670.5 c 128,-1,51
 212 704 212 704 261 720 c 1,37,38
EndSplineSet
EndChar

StartChar: adieresis
Encoding: 228 228 165
Width: 522
GlyphClass: 2
Flags: W
LayerCount: 2
Fore
SplineSet
22 159 m 0,0,1
 22 270 22 270 91 363 c 128,-1,2
 160 456 160 456 269 505 c 1,3,4
 327 505 327 505 400 470 c 1,5,6
 425 515 425 515 442 537 c 1,7,-1
 458 532 l 1,8,9
 424 443 424 443 424 250 c 0,10,11
 424 141 424 141 432 87 c 1,12,13
 467 131 467 131 503 248 c 1,14,-1
 519 244 l 1,15,16
 483 42 483 42 400 -15 c 1,17,18
 332 -15 332 -15 309 29 c 128,-1,19
 286 73 286 73 286 159 c 1,20,-1
 302 240 l 1,21,-1
 285 242 l 1,22,23
 267 153 267 153 240.5 87 c 128,-1,24
 214 21 214 21 164 -15 c 1,25,26
 98 -15 98 -15 60 35.5 c 128,-1,27
 22 86 22 86 22 159 c 0,0,1
206 422 m 1,28,29
 177 304 177 304 177 203 c 128,-1,30
 177 102 177 102 194 88 c 1,31,32
 229 135 229 135 254 235 c 128,-1,33
 279 335 279 335 279 402 c 1,34,35
 260 429 260 429 238 429 c 128,-1,36
 216 429 216 429 206 422 c 1,28,29
249 652 m 1,37,38
 234 629 234 629 204.5 597 c 128,-1,39
 175 565 175 565 154 550 c 1,40,41
 114 580 114 580 79 652 c 1,42,43
 90 672 90 672 119 697 c 128,-1,44
 148 722 148 722 172 734 c 1,45,46
 211 709 211 709 249 652 c 1,37,38
470 652 m 1,47,48
 455 629 455 629 425.5 597 c 128,-1,49
 396 565 396 565 375 550 c 1,50,51
 335 580 335 580 300 652 c 1,52,53
 311 672 311 672 340 697 c 128,-1,54
 369 722 369 722 393 734 c 1,55,56
 432 709 432 709 470 652 c 1,47,48
EndSplineSet
EndChar

StartChar: aring
Encoding: 229 229 166
Width: 522
GlyphClass: 2
Flags: W
LayerCount: 2
Fore
SplineSet
22 159 m 0,0,1
 22 270 22 270 91 363 c 128,-1,2
 160 456 160 456 269 505 c 1,3,4
 327 505 327 505 400 470 c 1,5,6
 425 515 425 515 442 537 c 1,7,-1
 458 532 l 1,8,9
 424 443 424 443 424 250 c 0,10,11
 424 141 424 141 432 87 c 1,12,13
 467 131 467 131 503 248 c 1,14,-1
 519 244 l 1,15,16
 483 42 483 42 400 -15 c 1,17,18
 332 -15 332 -15 309 29 c 128,-1,19
 286 73 286 73 286 159 c 1,20,-1
 302 240 l 1,21,-1
 285 242 l 1,22,23
 267 153 267 153 240.5 87 c 128,-1,24
 214 21 214 21 164 -15 c 1,25,26
 98 -15 98 -15 60 35.5 c 128,-1,27
 22 86 22 86 22 159 c 0,0,1
206 422 m 1,28,29
 177 304 177 304 177 203 c 128,-1,30
 177 102 177 102 194 88 c 1,31,32
 229 135 229 135 254 235 c 128,-1,33
 279 335 279 335 279 402 c 1,34,35
 260 429 260 429 238 429 c 128,-1,36
 216 429 216 429 206 422 c 1,28,29
188.5 561 m 128,-1,38
 160 579 160 579 160 620 c 128,-1,39
 160 661 160 661 197.5 695.5 c 128,-1,40
 235 730 235 730 290 746 c 1,41,42
 383 746 383 746 383 678 c 0,43,44
 383 628 383 628 348 593 c 128,-1,45
 313 558 313 558 260 543 c 1,46,37
 217 543 217 543 188.5 561 c 128,-1,38
238.5 602.5 m 128,-1,48
 252 589 252 589 272 589 c 128,-1,49
 292 589 292 589 306 598 c 1,50,51
 320 622 320 622 320 647.5 c 128,-1,52
 320 673 320 673 306.5 686.5 c 128,-1,53
 293 700 293 700 272.5 700 c 128,-1,54
 252 700 252 700 239 691 c 1,55,56
 225 667 225 667 225 641.5 c 128,-1,47
 225 616 225 616 238.5 602.5 c 128,-1,48
EndSplineSet
EndChar

StartChar: ae
Encoding: 230 230 167
Width: 582
GlyphClass: 2
Flags: W
LayerCount: 2
Fore
SplineSet
20 139 m 0,0,1
 20 260 20 260 111.5 364 c 128,-1,2
 203 468 203 468 327 505 c 1,3,4
 372 496 372 496 408 475 c 1,5,6
 444 494 444 494 486 505 c 1,7,-1
 501 500 l 1,8,9
 525 406 525 406 552 348 c 1,10,11
 568 350 568 350 593 350 c 1,12,-1
 596 335 l 1,13,14
 543 317 543 317 483.5 287 c 128,-1,15
 424 257 424 257 388 228 c 1,16,17
 401 96 401 96 470 90 c 1,18,19
 520 129 520 129 551 223 c 1,20,-1
 574 217 l 1,21,22
 561 153 561 153 527.5 88.5 c 128,-1,23
 494 24 494 24 450 -14 c 1,24,25
 295 -14 295 -14 259 128 c 1,26,27
 237 87 237 87 203 47.5 c 128,-1,28
 169 8 169 8 134 -15 c 1,29,30
 79 -6 79 -6 49.5 37 c 128,-1,31
 20 80 20 80 20 139 c 0,0,1
172 126 m 0,32,33
 172 100 172 100 181 93 c 1,34,35
 221 129 221 129 252 186 c 1,36,37
 252 239 252 239 270.5 300.5 c 128,-1,38
 289 362 289 362 319 400 c 1,39,-1
 319 401 l 1,40,41
 304 436 304 436 268 436 c 0,42,43
 258 436 258 436 250 433 c 1,44,45
 172 256 172 256 172 126 c 0,32,33
385 322 m 0,46,47
 385 292 385 292 386 267 c 1,48,49
 402 281 402 281 438 304 c 1,50,-1
 413 436 l 1,51,52
 385 436 385 436 385 322 c 0,46,47
EndSplineSet
EndChar

StartChar: ccedilla
Encoding: 231 231 168
Width: 348
GlyphClass: 2
Flags: W
LayerCount: 2
Fore
SplineSet
20 167 m 0,0,1
 20 88 20 88 65 37.5 c 128,-1,2
 110 -13 110 -13 187 -15 c 1,3,4
 285 54 285 54 322 210 c 1,5,-1
 298 215 l 1,6,7
 266 131 266 131 221 88 c 1,8,9
 175 104 175 104 175 215 c 128,-1,10
 175 326 175 326 202 424 c 1,11,12
 216 423 216 423 235 408 c 128,-1,13
 254 393 254 393 263 378 c 2,14,15
 263 378 263 378 277 357 c 1,16,17
 283 326 283 326 288 307 c 1,18,-1
 306 307 l 1,19,20
 313 429 313 429 358 479 c 1,21,-1
 352 494 l 1,22,23
 341 490 341 490 317 490 c 128,-1,24
 293 490 293 490 246 505 c 1,25,26
 147 446 147 446 83.5 357.5 c 128,-1,27
 20 269 20 269 20 167 c 0,0,1
278 -126 m 0,28,29
 278 -133 278 -133 277 -140 c 1,30,31
 230 -212 230 -212 156 -235 c 1,32,33
 103 -235 103 -235 55 -210 c 1,34,35
 72 -185 72 -185 93 -138 c 1,36,-1
 98 -136 l 1,37,38
 125 -176 125 -176 173 -176 c 0,39,40
 191 -176 191 -176 200 -172 c 1,41,42
 206 -164 206 -164 206 -146 c 0,43,44
 206 -101 206 -101 119 -101 c 1,45,-1
 112 -96 l 1,46,-1
 170 17 l 1,47,-1
 215 19 l 1,48,-1
 177 -38 l 1,49,-1
 181 -42 l 1,50,51
 229 -42 229 -42 253.5 -66 c 128,-1,52
 278 -90 278 -90 278 -126 c 0,28,29
EndSplineSet
EndChar

StartChar: egrave
Encoding: 232 232 169
Width: 380
GlyphClass: 2
Flags: W
LayerCount: 2
Fore
SplineSet
176 257 m 1,0,1
 176 244 176 244 176 210 c 128,-1,2
 176 176 176 176 184.5 136.5 c 128,-1,3
 193 97 193 97 225 88 c 1,4,5
 255 108 255 108 284 143 c 128,-1,6
 313 178 313 178 327 213 c 1,7,-1
 350 205 l 1,8,9
 332 145 332 145 288.5 82.5 c 128,-1,10
 245 20 245 20 196 -15 c 1,11,12
 112 -15 112 -15 66 37.5 c 128,-1,13
 20 90 20 90 20 172 c 128,-1,14
 20 254 20 254 60.5 328 c 128,-1,15
 101 402 101 402 169.5 451 c 128,-1,16
 238 500 238 500 314 505 c 1,17,-1
 328 498 l 1,18,19
 330 483 330 483 334 440 c 0,20,21
 342 358 342 358 355 313 c 1,22,23
 376 309 376 309 394 301 c 1,24,-1
 394 285 l 1,25,26
 274 285 274 285 176 257 c 1,0,1
229 303 m 1,27,-1
 229 444 l 1,28,29
 205 440 205 440 191.5 385 c 128,-1,30
 178 330 178 330 177 287 c 1,31,32
 202 297 202 297 229 303 c 1,27,-1
50 745 m 1,33,34
 61 747 61 747 75.5 747 c 128,-1,35
 90 747 90 747 104 746 c 1,36,37
 149 663 149 663 294 567 c 1,38,-1
 280 543 l 1,39,-1
 16 648 l 1,40,41
 17 664 17 664 28.5 699.5 c 128,-1,42
 40 735 40 735 50 745 c 1,33,34
EndSplineSet
EndChar

StartChar: eacute
Encoding: 233 233 170
Width: 380
GlyphClass: 2
Flags: W
LayerCount: 2
Fore
SplineSet
176 257 m 1,0,1
 176 244 176 244 176 210 c 128,-1,2
 176 176 176 176 184.5 136.5 c 128,-1,3
 193 97 193 97 225 88 c 1,4,5
 255 108 255 108 284 143 c 128,-1,6
 313 178 313 178 327 213 c 1,7,-1
 350 205 l 1,8,9
 332 145 332 145 288.5 82.5 c 128,-1,10
 245 20 245 20 196 -15 c 1,11,12
 112 -15 112 -15 66 37.5 c 128,-1,13
 20 90 20 90 20 172 c 128,-1,14
 20 254 20 254 60.5 328 c 128,-1,15
 101 402 101 402 169.5 451 c 128,-1,16
 238 500 238 500 314 505 c 1,17,-1
 328 498 l 1,18,19
 330 483 330 483 334 440 c 0,20,21
 342 358 342 358 355 313 c 1,22,23
 376 309 376 309 394 301 c 1,24,-1
 394 285 l 1,25,26
 274 285 274 285 176 257 c 1,0,1
229 303 m 1,27,-1
 229 444 l 1,28,29
 205 440 205 440 191.5 385 c 128,-1,30
 178 330 178 330 177 287 c 1,31,32
 202 297 202 297 229 303 c 1,27,-1
354 746 m 1,33,34
 368 747 368 747 382.5 747 c 128,-1,35
 397 747 397 747 408 745 c 1,36,37
 418 735 418 735 429.5 699.5 c 128,-1,38
 441 664 441 664 442 648 c 1,39,-1
 178 543 l 1,40,-1
 164 567 l 1,41,42
 309 663 309 663 354 746 c 1,33,34
EndSplineSet
EndChar

StartChar: ecircumflex
Encoding: 234 234 171
Width: 380
GlyphClass: 2
Flags: W
LayerCount: 2
Fore
SplineSet
176 257 m 1,0,1
 176 244 176 244 176 210 c 128,-1,2
 176 176 176 176 184.5 136.5 c 128,-1,3
 193 97 193 97 225 88 c 1,4,5
 255 108 255 108 284 143 c 128,-1,6
 313 178 313 178 327 213 c 1,7,-1
 350 205 l 1,8,9
 332 145 332 145 288.5 82.5 c 128,-1,10
 245 20 245 20 196 -15 c 1,11,12
 112 -15 112 -15 66 37.5 c 128,-1,13
 20 90 20 90 20 172 c 128,-1,14
 20 254 20 254 60.5 328 c 128,-1,15
 101 402 101 402 169.5 451 c 128,-1,16
 238 500 238 500 314 505 c 1,17,-1
 328 498 l 1,18,19
 330 483 330 483 334 440 c 0,20,21
 342 358 342 358 355 313 c 1,22,23
 376 309 376 309 394 301 c 1,24,-1
 394 285 l 1,25,26
 274 285 274 285 176 257 c 1,0,1
229 303 m 1,27,-1
 229 444 l 1,28,29
 205 440 205 440 191.5 385 c 128,-1,30
 178 330 178 330 177 287 c 1,31,32
 202 297 202 297 229 303 c 1,27,-1
432 543 m 1,33,-1
 229 623 l 1,34,-1
 46 543 l 1,35,-1
 32 567 l 1,36,37
 175 657 175 657 232 746 c 1,38,-1
 276 746 l 1,39,40
 333 642 333 642 446 567 c 1,41,-1
 432 543 l 1,33,-1
EndSplineSet
EndChar

StartChar: edieresis
Encoding: 235 235 172
Width: 380
GlyphClass: 2
Flags: W
LayerCount: 2
Fore
SplineSet
176 257 m 1,0,1
 176 244 176 244 176 210 c 128,-1,2
 176 176 176 176 184.5 136.5 c 128,-1,3
 193 97 193 97 225 88 c 1,4,5
 255 108 255 108 284 143 c 128,-1,6
 313 178 313 178 327 213 c 1,7,-1
 350 205 l 1,8,9
 332 145 332 145 288.5 82.5 c 128,-1,10
 245 20 245 20 196 -15 c 1,11,12
 112 -15 112 -15 66 37.5 c 128,-1,13
 20 90 20 90 20 172 c 128,-1,14
 20 254 20 254 60.5 328 c 128,-1,15
 101 402 101 402 169.5 451 c 128,-1,16
 238 500 238 500 314 505 c 1,17,-1
 328 498 l 1,18,19
 330 483 330 483 334 440 c 0,20,21
 342 358 342 358 355 313 c 1,22,23
 376 309 376 309 394 301 c 1,24,-1
 394 285 l 1,25,26
 274 285 274 285 176 257 c 1,0,1
229 303 m 1,27,-1
 229 444 l 1,28,29
 205 440 205 440 191.5 385 c 128,-1,30
 178 330 178 330 177 287 c 1,31,32
 202 297 202 297 229 303 c 1,27,-1
210 652 m 1,33,34
 195 629 195 629 165.5 597 c 128,-1,35
 136 565 136 565 115 550 c 1,36,37
 75 580 75 580 40 652 c 1,38,39
 51 672 51 672 80 697 c 128,-1,40
 109 722 109 722 133 734 c 1,41,42
 172 709 172 709 210 652 c 1,33,34
431 652 m 1,43,44
 416 629 416 629 386.5 597 c 128,-1,45
 357 565 357 565 336 550 c 1,46,47
 296 580 296 580 261 652 c 1,48,49
 272 672 272 672 301 697 c 128,-1,50
 330 722 330 722 354 734 c 1,51,52
 393 709 393 709 431 652 c 1,43,44
EndSplineSet
EndChar

StartChar: igrave
Encoding: 236 236 173
Width: 299
GlyphClass: 2
Flags: W
LayerCount: 2
Fore
SplineSet
7 490 m 1,0,1
 161 490 161 490 242 505 c 1,2,-1
 249 492 l 1,3,4
 230 450 230 450 218 347 c 128,-1,5
 206 244 206 244 206 178 c 128,-1,6
 206 112 206 112 207 87 c 1,7,8
 242 131 242 131 278 248 c 1,9,-1
 294 244 l 1,10,11
 258 42 258 42 175 -15 c 1,12,13
 111 -15 111 -15 84 14.5 c 128,-1,14
 57 44 57 44 57 110 c 0,15,16
 57 136 57 136 64 238.5 c 128,-1,17
 71 341 71 341 71 385.5 c 128,-1,18
 71 430 71 430 68 455 c 1,19,20
 25 464 25 464 7 472 c 1,21,-1
 7 490 l 1,0,1
-39 745 m 1,22,23
 -28 747 -28 747 -13.5 747 c 128,-1,24
 1 747 1 747 15 746 c 1,25,26
 60 663 60 663 205 567 c 1,27,-1
 191 543 l 1,28,-1
 -73 648 l 1,29,30
 -72 664 -72 664 -60.5 699.5 c 128,-1,31
 -49 735 -49 735 -39 745 c 1,22,23
EndSplineSet
EndChar

StartChar: iacute
Encoding: 237 237 174
Width: 299
GlyphClass: 2
Flags: W
LayerCount: 2
Fore
SplineSet
7 490 m 1,0,1
 161 490 161 490 242 505 c 1,2,-1
 249 492 l 1,3,4
 230 450 230 450 218 347 c 128,-1,5
 206 244 206 244 206 178 c 128,-1,6
 206 112 206 112 207 87 c 1,7,8
 242 131 242 131 278 248 c 1,9,-1
 294 244 l 1,10,11
 258 42 258 42 175 -15 c 1,12,13
 111 -15 111 -15 84 14.5 c 128,-1,14
 57 44 57 44 57 110 c 0,15,16
 57 136 57 136 64 238.5 c 128,-1,17
 71 341 71 341 71 385.5 c 128,-1,18
 71 430 71 430 68 455 c 1,19,20
 25 464 25 464 7 472 c 1,21,-1
 7 490 l 1,0,1
265 746 m 1,22,23
 279 747 279 747 293.5 747 c 128,-1,24
 308 747 308 747 319 745 c 1,25,26
 329 735 329 735 340.5 699.5 c 128,-1,27
 352 664 352 664 353 648 c 1,28,-1
 89 543 l 1,29,-1
 75 567 l 1,30,31
 220 663 220 663 265 746 c 1,22,23
EndSplineSet
EndChar

StartChar: icircumflex
Encoding: 238 238 175
Width: 299
GlyphClass: 2
Flags: W
LayerCount: 2
Fore
SplineSet
7 490 m 1,0,1
 161 490 161 490 242 505 c 1,2,-1
 249 492 l 1,3,4
 230 450 230 450 218 347 c 128,-1,5
 206 244 206 244 206 178 c 128,-1,6
 206 112 206 112 207 87 c 1,7,8
 242 131 242 131 278 248 c 1,9,-1
 294 244 l 1,10,11
 258 42 258 42 175 -15 c 1,12,13
 111 -15 111 -15 84 14.5 c 128,-1,14
 57 44 57 44 57 110 c 0,15,16
 57 136 57 136 64 238.5 c 128,-1,17
 71 341 71 341 71 385.5 c 128,-1,18
 71 430 71 430 68 455 c 1,19,20
 25 464 25 464 7 472 c 1,21,-1
 7 490 l 1,0,1
343 543 m 1,22,-1
 140 623 l 1,23,-1
 -43 543 l 1,24,-1
 -57 567 l 1,25,26
 86 657 86 657 143 746 c 1,27,-1
 187 746 l 1,28,29
 244 642 244 642 357 567 c 1,30,-1
 343 543 l 1,22,-1
EndSplineSet
EndChar

StartChar: idieresis
Encoding: 239 239 176
Width: 299
GlyphClass: 2
Flags: W
LayerCount: 2
Fore
SplineSet
7 490 m 1,0,1
 161 490 161 490 242 505 c 1,2,-1
 249 492 l 1,3,4
 230 450 230 450 218 347 c 128,-1,5
 206 244 206 244 206 178 c 128,-1,6
 206 112 206 112 207 87 c 1,7,8
 242 131 242 131 278 248 c 1,9,-1
 294 244 l 1,10,11
 258 42 258 42 175 -15 c 1,12,13
 111 -15 111 -15 84 14.5 c 128,-1,14
 57 44 57 44 57 110 c 0,15,16
 57 136 57 136 64 238.5 c 128,-1,17
 71 341 71 341 71 385.5 c 128,-1,18
 71 430 71 430 68 455 c 1,19,20
 25 464 25 464 7 472 c 1,21,-1
 7 490 l 1,0,1
121 652 m 1,22,23
 106 629 106 629 76.5 597 c 128,-1,24
 47 565 47 565 26 550 c 1,25,26
 -14 580 -14 580 -49 652 c 1,27,28
 -38 672 -38 672 -9 697 c 128,-1,29
 20 722 20 722 44 734 c 1,30,31
 83 709 83 709 121 652 c 1,22,23
342 652 m 1,32,33
 327 629 327 629 297.5 597 c 128,-1,34
 268 565 268 565 247 550 c 1,35,36
 207 580 207 580 172 652 c 1,37,38
 183 672 183 672 212 697 c 128,-1,39
 241 722 241 722 265 734 c 1,40,41
 304 709 304 709 342 652 c 1,32,33
EndSplineSet
EndChar

StartChar: eth
Encoding: 240 240 177
Width: 443
GlyphClass: 2
Flags: W
LayerCount: 2
Fore
SplineSet
119 504 m 1,0,-1
 205 560 l 1,1,2
 145 642 145 642 53 694 c 1,3,-1
 66 714 l 1,4,5
 185 677 185 677 271 608 c 1,6,-1
 284 618 l 2,7,8
 292 624 292 624 325 650 c 128,-1,9
 358 676 358 676 371 685 c 1,10,-1
 378 683 l 1,11,12
 382 659 382 659 390 641 c 1,13,-1
 303 579 l 1,14,15
 423 461 423 461 423 289 c 0,16,17
 423 181 423 181 363 102 c 128,-1,18
 303 23 303 23 198 -15 c 1,19,20
 109 -15 109 -15 64.5 31 c 128,-1,21
 20 77 20 77 20 146 c 0,22,23
 20 246 20 246 76.5 316 c 128,-1,24
 133 386 133 386 234 419 c 1,25,26
 263 403 263 403 289 356 c 1,27,-1
 295 356 l 1,28,29
 276 450 276 450 229 526 c 1,30,-1
 127 453 l 1,31,-1
 118 455 l 1,32,33
 121 473 121 473 121 484.5 c 128,-1,34
 121 496 121 496 119 504 c 1,0,-1
258 330 m 128,-1,36
 244 360 244 360 224.5 360 c 128,-1,37
 205 360 205 360 194 352 c 1,38,39
 176 272 176 272 176 163 c 128,-1,40
 176 54 176 54 218 54 c 0,41,42
 233 54 233 54 246 61 c 1,43,44
 276 152 276 152 276 269 c 1,45,35
 272 300 272 300 258 330 c 128,-1,36
EndSplineSet
EndChar

StartChar: ntilde
Encoding: 241 241 178
Width: 542
GlyphClass: 2
Flags: W
LayerCount: 2
Fore
SplineSet
474 387 m 0,0,1
 474 334 474 334 455.5 235 c 128,-1,2
 437 136 437 136 437 82 c 1,3,4
 485 136 485 136 521 248 c 1,5,-1
 537 244 l 1,6,7
 501 50 501 50 403 -15 c 1,8,9
 293 -15 293 -15 293 76 c 0,10,11
 293 113 293 113 308.5 207.5 c 128,-1,12
 324 302 324 302 324 347 c 128,-1,13
 324 392 324 392 314 402 c 1,14,15
 277 361 277 361 247 253 c 128,-1,16
 217 145 217 145 217 93.5 c 128,-1,17
 217 42 217 42 225 0 c 1,18,19
 140 0 140 0 61 -15 c 1,20,-1
 55 -10 l 1,21,22
 75 59 75 59 75 224 c 128,-1,23
 75 389 75 389 66 455 c 1,24,25
 23 464 23 464 5 472 c 1,26,-1
 5 490 l 1,27,28
 154 490 154 490 235 505 c 1,29,-1
 242 492 l 1,30,31
 218 430 218 430 218 334 c 1,32,33
 212 300 212 300 200 254 c 1,34,-1
 216 253 l 1,35,36
 259 449 259 449 361 505 c 1,37,38
 474 505 474 505 474 387 c 0,0,1
297 720 m 1,39,40
 370 672 370 672 423 672 c 128,-1,41
 476 672 476 672 510 707 c 1,42,-1
 534 690 l 1,43,44
 470 602 470 602 394 571 c 1,45,46
 369 571 369 571 312.5 595 c 128,-1,47
 256 619 256 619 231 619 c 0,48,49
 183 619 183 619 150 584 c 1,50,-1
 125 601 l 1,51,52
 151 637 151 637 199.5 670.5 c 128,-1,53
 248 704 248 704 297 720 c 1,39,40
EndSplineSet
EndChar

StartChar: ograve
Encoding: 242 242 179
Width: 443
GlyphClass: 2
Flags: W
LayerCount: 2
Fore
SplineSet
249 419 m 0,0,1
 239 431 239 431 225.5 431 c 128,-1,2
 212 431 212 431 199 426 c 1,3,4
 174 326 174 326 174 194 c 0,5,6
 174 93 174 93 194 70 c 0,7,8
 203 59 203 59 216 59 c 128,-1,9
 229 59 229 59 242 64 c 1,10,11
 268 165 268 165 268 280.5 c 128,-1,12
 268 396 268 396 249 419 c 0,0,1
66.5 38 m 128,-1,14
 20 91 20 91 20 185 c 128,-1,15
 20 279 20 279 84.5 368.5 c 128,-1,16
 149 458 149 458 244 505 c 1,17,18
 334 505 334 505 378.5 454.5 c 128,-1,19
 423 404 423 404 423 307 c 128,-1,20
 423 210 423 210 358.5 120 c 128,-1,21
 294 30 294 30 198 -15 c 1,22,13
 113 -15 113 -15 66.5 38 c 128,-1,14
65 745 m 1,23,24
 76 747 76 747 90.5 747 c 128,-1,25
 105 747 105 747 119 746 c 1,26,27
 164 663 164 663 309 567 c 1,28,-1
 295 543 l 1,29,-1
 31 648 l 1,30,31
 32 664 32 664 43.5 699.5 c 128,-1,32
 55 735 55 735 65 745 c 1,23,24
EndSplineSet
EndChar

StartChar: oacute
Encoding: 243 243 180
Width: 443
GlyphClass: 2
Flags: W
LayerCount: 2
Fore
SplineSet
249 419 m 0,0,1
 239 431 239 431 225.5 431 c 128,-1,2
 212 431 212 431 199 426 c 1,3,4
 174 326 174 326 174 194 c 0,5,6
 174 93 174 93 194 70 c 0,7,8
 203 59 203 59 216 59 c 128,-1,9
 229 59 229 59 242 64 c 1,10,11
 268 165 268 165 268 280.5 c 128,-1,12
 268 396 268 396 249 419 c 0,0,1
66.5 38 m 128,-1,14
 20 91 20 91 20 185 c 128,-1,15
 20 279 20 279 84.5 368.5 c 128,-1,16
 149 458 149 458 244 505 c 1,17,18
 334 505 334 505 378.5 454.5 c 128,-1,19
 423 404 423 404 423 307 c 128,-1,20
 423 210 423 210 358.5 120 c 128,-1,21
 294 30 294 30 198 -15 c 1,22,13
 113 -15 113 -15 66.5 38 c 128,-1,14
369 746 m 1,23,24
 383 747 383 747 397.5 747 c 128,-1,25
 412 747 412 747 423 745 c 1,26,27
 433 735 433 735 444.5 699.5 c 128,-1,28
 456 664 456 664 457 648 c 1,29,-1
 193 543 l 1,30,-1
 179 567 l 1,31,32
 324 663 324 663 369 746 c 1,23,24
EndSplineSet
EndChar

StartChar: ocircumflex
Encoding: 244 244 181
Width: 443
GlyphClass: 2
Flags: W
LayerCount: 2
Fore
SplineSet
249 419 m 0,0,1
 239 431 239 431 225.5 431 c 128,-1,2
 212 431 212 431 199 426 c 1,3,4
 174 326 174 326 174 194 c 0,5,6
 174 93 174 93 194 70 c 0,7,8
 203 59 203 59 216 59 c 128,-1,9
 229 59 229 59 242 64 c 1,10,11
 268 165 268 165 268 280.5 c 128,-1,12
 268 396 268 396 249 419 c 0,0,1
66.5 38 m 128,-1,14
 20 91 20 91 20 185 c 128,-1,15
 20 279 20 279 84.5 368.5 c 128,-1,16
 149 458 149 458 244 505 c 1,17,18
 334 505 334 505 378.5 454.5 c 128,-1,19
 423 404 423 404 423 307 c 128,-1,20
 423 210 423 210 358.5 120 c 128,-1,21
 294 30 294 30 198 -15 c 1,22,13
 113 -15 113 -15 66.5 38 c 128,-1,14
447 543 m 1,23,-1
 244 623 l 1,24,-1
 61 543 l 1,25,-1
 47 567 l 1,26,27
 190 657 190 657 247 746 c 1,28,-1
 291 746 l 1,29,30
 348 642 348 642 461 567 c 1,31,-1
 447 543 l 1,23,-1
EndSplineSet
EndChar

StartChar: otilde
Encoding: 245 245 182
Width: 443
GlyphClass: 2
Flags: W
LayerCount: 2
Fore
SplineSet
249 419 m 0,0,1
 239 431 239 431 225.5 431 c 128,-1,2
 212 431 212 431 199 426 c 1,3,4
 174 326 174 326 174 194 c 0,5,6
 174 93 174 93 194 70 c 0,7,8
 203 59 203 59 216 59 c 128,-1,9
 229 59 229 59 242 64 c 1,10,11
 268 165 268 165 268 280.5 c 128,-1,12
 268 396 268 396 249 419 c 0,0,1
66.5 38 m 128,-1,14
 20 91 20 91 20 185 c 128,-1,15
 20 279 20 279 84.5 368.5 c 128,-1,16
 149 458 149 458 244 505 c 1,17,18
 334 505 334 505 378.5 454.5 c 128,-1,19
 423 404 423 404 423 307 c 128,-1,20
 423 210 423 210 358.5 120 c 128,-1,21
 294 30 294 30 198 -15 c 1,22,13
 113 -15 113 -15 66.5 38 c 128,-1,14
237 720 m 1,23,24
 310 672 310 672 363 672 c 128,-1,25
 416 672 416 672 450 707 c 1,26,-1
 474 690 l 1,27,28
 410 602 410 602 334 571 c 1,29,30
 309 571 309 571 252.5 595 c 128,-1,31
 196 619 196 619 171 619 c 0,32,33
 123 619 123 619 90 584 c 1,34,-1
 65 601 l 1,35,36
 91 637 91 637 139.5 670.5 c 128,-1,37
 188 704 188 704 237 720 c 1,23,24
EndSplineSet
EndChar

StartChar: odieresis
Encoding: 246 246 183
Width: 443
GlyphClass: 2
Flags: W
LayerCount: 2
Fore
SplineSet
249 419 m 0,0,1
 239 431 239 431 225.5 431 c 128,-1,2
 212 431 212 431 199 426 c 1,3,4
 174 326 174 326 174 194 c 0,5,6
 174 93 174 93 194 70 c 0,7,8
 203 59 203 59 216 59 c 128,-1,9
 229 59 229 59 242 64 c 1,10,11
 268 165 268 165 268 280.5 c 128,-1,12
 268 396 268 396 249 419 c 0,0,1
66.5 38 m 128,-1,14
 20 91 20 91 20 185 c 128,-1,15
 20 279 20 279 84.5 368.5 c 128,-1,16
 149 458 149 458 244 505 c 1,17,18
 334 505 334 505 378.5 454.5 c 128,-1,19
 423 404 423 404 423 307 c 128,-1,20
 423 210 423 210 358.5 120 c 128,-1,21
 294 30 294 30 198 -15 c 1,22,13
 113 -15 113 -15 66.5 38 c 128,-1,14
225 652 m 1,23,24
 210 629 210 629 180.5 597 c 128,-1,25
 151 565 151 565 130 550 c 1,26,27
 90 580 90 580 55 652 c 1,28,29
 66 672 66 672 95 697 c 128,-1,30
 124 722 124 722 148 734 c 1,31,32
 187 709 187 709 225 652 c 1,23,24
446 652 m 1,33,34
 431 629 431 629 401.5 597 c 128,-1,35
 372 565 372 565 351 550 c 1,36,37
 311 580 311 580 276 652 c 1,38,39
 287 672 287 672 316 697 c 128,-1,40
 345 722 345 722 369 734 c 1,41,42
 408 709 408 709 446 652 c 1,33,34
EndSplineSet
EndChar

StartChar: divide
Encoding: 247 247 184
Width: 576
GlyphClass: 2
Flags: W
LayerCount: 2
Fore
SplineSet
343 390 m 128,-1,1
 343 369 343 369 326 351 c 128,-1,2
 309 333 309 333 288.5 333 c 128,-1,3
 268 333 268 333 250 351.5 c 128,-1,4
 232 370 232 370 232 390.5 c 128,-1,5
 232 411 232 411 250 428.5 c 128,-1,6
 268 446 268 446 288.5 446 c 128,-1,7
 309 446 309 446 326 428.5 c 128,-1,0
 343 411 343 411 343 390 c 128,-1,1
343 107 m 128,-1,9
 343 86 343 86 326 68 c 128,-1,10
 309 50 309 50 288.5 50 c 128,-1,11
 268 50 268 50 250 68.5 c 128,-1,12
 232 87 232 87 232 107.5 c 128,-1,13
 232 128 232 128 250 145.5 c 128,-1,14
 268 163 268 163 288.5 163 c 128,-1,15
 309 163 309 163 326 145.5 c 128,-1,8
 343 128 343 128 343 107 c 128,-1,9
66 290 m 1,16,17
 236 281 236 281 355.5 281 c 128,-1,18
 475 281 475 281 514 284 c 1,19,-1
 520 278 l 1,20,-1
 511 217 l 1,21,-1
 65 217 l 1,22,-1
 57 224 l 1,23,-1
 66 290 l 1,16,17
EndSplineSet
EndChar

StartChar: oslash
Encoding: 248 248 185
Width: 443
GlyphClass: 2
Flags: W
LayerCount: 2
Fore
SplineSet
20 180 m 0,0,1
 20 279 20 279 84.5 368.5 c 128,-1,2
 149 458 149 458 244 505 c 1,3,4
 274 505 274 505 298 499 c 1,5,6
 307 524 307 524 320 570 c 1,7,8
 344 572 344 572 359 578 c 1,9,-1
 363 574 l 1,10,11
 349 546 349 546 327 490 c 1,12,13
 423 450 423 450 423 310 c 0,14,15
 423 210 423 210 358.5 120 c 128,-1,16
 294 30 294 30 198 -15 c 1,17,18
 163 -15 163 -15 136 -6 c 1,19,-1
 105 -95 l 1,20,-1
 100 -95 l 1,21,22
 77 -81 77 -81 71 -69 c 1,23,-1
 106 6 l 1,24,25
 20 53 20 53 20 180 c 0,0,1
268 296 m 0,26,27
 268 321 268 321 267 335 c 1,28,-1
 179 105 l 1,29,30
 189 59 189 59 218 59 c 0,31,32
 229 59 229 59 242 64 c 1,33,34
 268 165 268 165 268 296 c 0,26,27
174 194 m 2,35,-1
 174 180 l 1,36,-1
 259 398 l 1,37,38
 247 431 247 431 223 431 c 0,39,40
 212 431 212 431 199 426 c 1,41,42
 174 326 174 326 174 194 c 2,35,-1
EndSplineSet
EndChar

StartChar: ugrave
Encoding: 249 249 186
Width: 547
GlyphClass: 2
Flags: W
LayerCount: 2
Fore
SplineSet
309 158 m 1,0,1
 316 198 316 198 325 240 c 1,2,-1
 308 242 l 1,3,4
 273 86 273 86 226 30 c 0,5,6
 202 2 202 2 171 -15 c 1,7,8
 113 -15 113 -15 80.5 23 c 128,-1,9
 48 61 48 61 48 123 c 0,10,11
 48 162 48 162 59 259 c 128,-1,12
 70 356 70 356 70 395.5 c 128,-1,13
 70 435 70 435 68 455 c 1,14,15
 25 464 25 464 7 472 c 1,16,-1
 7 490 l 1,17,18
 161 490 161 490 242 505 c 1,19,-1
 249 492 l 1,20,21
 224 432 224 432 211 336 c 128,-1,22
 198 240 198 240 198 167 c 128,-1,23
 198 94 198 94 218 88 c 1,24,25
 251 131 251 131 278 238 c 128,-1,26
 305 345 305 345 305 396.5 c 128,-1,27
 305 448 305 448 297 490 c 1,28,29
 382 490 382 490 461 505 c 1,30,-1
 467 500 l 1,31,32
 447 431 447 431 447 244 c 0,33,34
 447 147 447 147 455 87 c 1,35,36
 490 131 490 131 526 248 c 1,37,-1
 542 244 l 1,38,39
 506 42 506 42 423 -15 c 1,40,41
 355 -15 355 -15 332 28.5 c 128,-1,42
 309 72 309 72 309 158 c 1,0,1
93 745 m 1,43,44
 104 747 104 747 118.5 747 c 128,-1,45
 133 747 133 747 147 746 c 1,46,47
 192 663 192 663 337 567 c 1,48,-1
 323 543 l 1,49,-1
 59 648 l 1,50,51
 60 664 60 664 71.5 699.5 c 128,-1,52
 83 735 83 735 93 745 c 1,43,44
EndSplineSet
EndChar

StartChar: uacute
Encoding: 250 250 187
Width: 547
GlyphClass: 2
Flags: W
LayerCount: 2
Fore
SplineSet
309 158 m 1,0,1
 316 198 316 198 325 240 c 1,2,-1
 308 242 l 1,3,4
 273 86 273 86 226 30 c 0,5,6
 202 2 202 2 171 -15 c 1,7,8
 113 -15 113 -15 80.5 23 c 128,-1,9
 48 61 48 61 48 123 c 0,10,11
 48 162 48 162 59 259 c 128,-1,12
 70 356 70 356 70 395.5 c 128,-1,13
 70 435 70 435 68 455 c 1,14,15
 25 464 25 464 7 472 c 1,16,-1
 7 490 l 1,17,18
 161 490 161 490 242 505 c 1,19,-1
 249 492 l 1,20,21
 224 432 224 432 211 336 c 128,-1,22
 198 240 198 240 198 167 c 128,-1,23
 198 94 198 94 218 88 c 1,24,25
 251 131 251 131 278 238 c 128,-1,26
 305 345 305 345 305 396.5 c 128,-1,27
 305 448 305 448 297 490 c 1,28,29
 382 490 382 490 461 505 c 1,30,-1
 467 500 l 1,31,32
 447 431 447 431 447 244 c 0,33,34
 447 147 447 147 455 87 c 1,35,36
 490 131 490 131 526 248 c 1,37,-1
 542 244 l 1,38,39
 506 42 506 42 423 -15 c 1,40,41
 355 -15 355 -15 332 28.5 c 128,-1,42
 309 72 309 72 309 158 c 1,0,1
397 746 m 1,43,44
 411 747 411 747 425.5 747 c 128,-1,45
 440 747 440 747 451 745 c 1,46,47
 461 735 461 735 472.5 699.5 c 128,-1,48
 484 664 484 664 485 648 c 1,49,-1
 221 543 l 1,50,-1
 207 567 l 1,51,52
 352 663 352 663 397 746 c 1,43,44
EndSplineSet
EndChar

StartChar: ucircumflex
Encoding: 251 251 188
Width: 547
GlyphClass: 2
Flags: W
LayerCount: 2
Fore
SplineSet
309 158 m 1,0,1
 316 198 316 198 325 240 c 1,2,-1
 308 242 l 1,3,4
 273 86 273 86 226 30 c 0,5,6
 202 2 202 2 171 -15 c 1,7,8
 113 -15 113 -15 80.5 23 c 128,-1,9
 48 61 48 61 48 123 c 0,10,11
 48 162 48 162 59 259 c 128,-1,12
 70 356 70 356 70 395.5 c 128,-1,13
 70 435 70 435 68 455 c 1,14,15
 25 464 25 464 7 472 c 1,16,-1
 7 490 l 1,17,18
 161 490 161 490 242 505 c 1,19,-1
 249 492 l 1,20,21
 224 432 224 432 211 336 c 128,-1,22
 198 240 198 240 198 167 c 128,-1,23
 198 94 198 94 218 88 c 1,24,25
 251 131 251 131 278 238 c 128,-1,26
 305 345 305 345 305 396.5 c 128,-1,27
 305 448 305 448 297 490 c 1,28,29
 382 490 382 490 461 505 c 1,30,-1
 467 500 l 1,31,32
 447 431 447 431 447 244 c 0,33,34
 447 147 447 147 455 87 c 1,35,36
 490 131 490 131 526 248 c 1,37,-1
 542 244 l 1,38,39
 506 42 506 42 423 -15 c 1,40,41
 355 -15 355 -15 332 28.5 c 128,-1,42
 309 72 309 72 309 158 c 1,0,1
475 543 m 1,43,-1
 272 623 l 1,44,-1
 89 543 l 1,45,-1
 75 567 l 1,46,47
 218 657 218 657 275 746 c 1,48,-1
 319 746 l 1,49,50
 376 642 376 642 489 567 c 1,51,-1
 475 543 l 1,43,-1
EndSplineSet
EndChar

StartChar: udieresis
Encoding: 252 252 189
Width: 547
GlyphClass: 2
Flags: W
LayerCount: 2
Fore
SplineSet
309 158 m 1,0,1
 316 198 316 198 325 240 c 1,2,-1
 308 242 l 1,3,4
 273 86 273 86 226 30 c 0,5,6
 202 2 202 2 171 -15 c 1,7,8
 113 -15 113 -15 80.5 23 c 128,-1,9
 48 61 48 61 48 123 c 0,10,11
 48 162 48 162 59 259 c 128,-1,12
 70 356 70 356 70 395.5 c 128,-1,13
 70 435 70 435 68 455 c 1,14,15
 25 464 25 464 7 472 c 1,16,-1
 7 490 l 1,17,18
 161 490 161 490 242 505 c 1,19,-1
 249 492 l 1,20,21
 224 432 224 432 211 336 c 128,-1,22
 198 240 198 240 198 167 c 128,-1,23
 198 94 198 94 218 88 c 1,24,25
 251 131 251 131 278 238 c 128,-1,26
 305 345 305 345 305 396.5 c 128,-1,27
 305 448 305 448 297 490 c 1,28,29
 382 490 382 490 461 505 c 1,30,-1
 467 500 l 1,31,32
 447 431 447 431 447 244 c 0,33,34
 447 147 447 147 455 87 c 1,35,36
 490 131 490 131 526 248 c 1,37,-1
 542 244 l 1,38,39
 506 42 506 42 423 -15 c 1,40,41
 355 -15 355 -15 332 28.5 c 128,-1,42
 309 72 309 72 309 158 c 1,0,1
253 652 m 1,43,44
 238 629 238 629 208.5 597 c 128,-1,45
 179 565 179 565 158 550 c 1,46,47
 118 580 118 580 83 652 c 1,48,49
 94 672 94 672 123 697 c 128,-1,50
 152 722 152 722 176 734 c 1,51,52
 215 709 215 709 253 652 c 1,43,44
474 652 m 1,53,54
 459 629 459 629 429.5 597 c 128,-1,55
 400 565 400 565 379 550 c 1,56,57
 339 580 339 580 304 652 c 1,58,59
 315 672 315 672 344 697 c 128,-1,60
 373 722 373 722 397 734 c 1,61,62
 436 709 436 709 474 652 c 1,53,54
EndSplineSet
EndChar

StartChar: yacute
Encoding: 253 253 190
Width: 512
GlyphClass: 2
Flags: W
LayerCount: 2
Fore
SplineSet
468 500 m 1,0,1
 448 431 448 431 448 244.5 c 128,-1,2
 448 58 448 58 491 -65 c 1,3,4
 425 -111 425 -111 360 -215 c 1,5,-1
 329 -200 l 2,6,7
 277 -175 277 -175 206.5 -155.5 c 128,-1,8
 136 -136 136 -136 84 -136 c 0,9,10
 3 -136 3 -136 -53 -195 c 1,11,-1
 -69 -184 l 1,12,13
 2 -90 2 -90 156 -14 c 1,14,15
 105 -9 105 -9 77 28 c 128,-1,16
 49 65 49 65 49 113.5 c 128,-1,17
 49 162 49 162 60 259 c 128,-1,18
 71 356 71 356 71 395.5 c 128,-1,19
 71 435 71 435 69 455 c 1,20,21
 26 464 26 464 8 472 c 1,22,-1
 8 490 l 1,23,24
 162 490 162 490 243 505 c 1,25,-1
 250 492 l 1,26,27
 225 432 225 432 212 336 c 128,-1,28
 199 240 199 240 199 167 c 128,-1,29
 199 94 199 94 219 88 c 1,30,31
 252 131 252 131 279 238 c 128,-1,32
 306 345 306 345 306 396.5 c 128,-1,33
 306 448 306 448 298 490 c 1,34,35
 383 490 383 490 462 505 c 1,36,-1
 468 500 l 1,0,1
310 158 m 1,37,38
 317 198 317 198 326 240 c 1,39,-1
 309 242 l 1,40,41
 287 135 287 135 253 71 c 128,-1,42
 219 7 219 7 167 -32 c 1,43,44
 200 -32 200 -32 277.5 -50 c 128,-1,45
 355 -68 355 -68 386.5 -68 c 128,-1,46
 418 -68 418 -68 431 -57 c 1,47,48
 378 -25 378 -25 344 35.5 c 128,-1,49
 310 96 310 96 310 158 c 1,37,38
399 746 m 1,50,51
 413 747 413 747 427.5 747 c 128,-1,52
 442 747 442 747 453 745 c 1,53,54
 463 735 463 735 474.5 699.5 c 128,-1,55
 486 664 486 664 487 648 c 1,56,-1
 223 543 l 1,57,-1
 209 567 l 1,58,59
 354 663 354 663 399 746 c 1,50,51
EndSplineSet
EndChar

StartChar: thorn
Encoding: 254 254 191
Width: 505
GlyphClass: 2
Flags: W
LayerCount: 2
Fore
SplineSet
7 656 m 1,0,1
 158 656 158 656 268 703 c 1,2,-1
 276 690 l 1,3,4
 232 620 232 620 228 489 c 1,5,-1
 219 334 l 1,6,-1
 201 254 l 1,7,-1
 217 253 l 1,8,9
 237 345 237 345 267 409 c 128,-1,10
 297 473 297 473 355 505 c 1,11,12
 485 493 485 493 485 357 c 0,13,14
 485 236 485 236 418.5 139.5 c 128,-1,15
 352 43 352 43 237 -15 c 1,16,-1
 205 -7 l 1,17,18
 206 -24 206 -24 222 -133 c 1,19,-1
 228 -170 l 1,20,21
 123 -180 123 -180 34 -215 c 1,22,-1
 25 -200 l 1,23,24
 54 -154 54 -154 63.5 -128.5 c 128,-1,25
 73 -103 73 -103 74 -57 c 2,26,-1
 76 11 l 1,27,28
 52 9 52 9 35 3 c 1,29,-1
 25 14 l 1,30,31
 40 43 40 43 77 87 c 1,32,-1
 79 412 l 2,33,34
 79 544 79 544 67 621 c 1,35,36
 34 627 34 627 7 638 c 1,37,-1
 7 656 l 1,0,1
219 86 m 1,38,39
 248 61 248 61 266.5 61 c 128,-1,40
 285 61 285 61 290 65 c 1,41,42
 305 112 305 112 316 192 c 128,-1,43
 327 272 327 272 327 329.5 c 128,-1,44
 327 387 327 387 308 402 c 1,45,46
 273 355 273 355 250 268.5 c 128,-1,47
 227 182 227 182 219 100 c 1,48,-1
 219 86 l 1,38,39
EndSplineSet
EndChar

StartChar: ydieresis
Encoding: 255 255 192
Width: 512
GlyphClass: 2
Flags: W
LayerCount: 2
Fore
SplineSet
468 500 m 1,0,1
 448 431 448 431 448 244.5 c 128,-1,2
 448 58 448 58 491 -65 c 1,3,4
 425 -111 425 -111 360 -215 c 1,5,-1
 329 -200 l 2,6,7
 277 -175 277 -175 206.5 -155.5 c 128,-1,8
 136 -136 136 -136 84 -136 c 0,9,10
 3 -136 3 -136 -53 -195 c 1,11,-1
 -69 -184 l 1,12,13
 2 -90 2 -90 156 -14 c 1,14,15
 105 -9 105 -9 77 28 c 128,-1,16
 49 65 49 65 49 113.5 c 128,-1,17
 49 162 49 162 60 259 c 128,-1,18
 71 356 71 356 71 395.5 c 128,-1,19
 71 435 71 435 69 455 c 1,20,21
 26 464 26 464 8 472 c 1,22,-1
 8 490 l 1,23,24
 162 490 162 490 243 505 c 1,25,-1
 250 492 l 1,26,27
 225 432 225 432 212 336 c 128,-1,28
 199 240 199 240 199 167 c 128,-1,29
 199 94 199 94 219 88 c 1,30,31
 252 131 252 131 279 238 c 128,-1,32
 306 345 306 345 306 396.5 c 128,-1,33
 306 448 306 448 298 490 c 1,34,35
 383 490 383 490 462 505 c 1,36,-1
 468 500 l 1,0,1
310 158 m 1,37,38
 317 198 317 198 326 240 c 1,39,-1
 309 242 l 1,40,41
 287 135 287 135 253 71 c 128,-1,42
 219 7 219 7 167 -32 c 1,43,44
 200 -32 200 -32 277.5 -50 c 128,-1,45
 355 -68 355 -68 386.5 -68 c 128,-1,46
 418 -68 418 -68 431 -57 c 1,47,48
 378 -25 378 -25 344 35.5 c 128,-1,49
 310 96 310 96 310 158 c 1,37,38
255 652 m 1,50,51
 240 629 240 629 210.5 597 c 128,-1,52
 181 565 181 565 160 550 c 1,53,54
 120 580 120 580 85 652 c 1,55,56
 96 672 96 672 125 697 c 128,-1,57
 154 722 154 722 178 734 c 1,58,59
 217 709 217 709 255 652 c 1,50,51
476 652 m 1,60,61
 461 629 461 629 431.5 597 c 128,-1,62
 402 565 402 565 381 550 c 1,63,64
 341 580 341 580 306 652 c 1,65,66
 317 672 317 672 346 697 c 128,-1,67
 375 722 375 722 399 734 c 1,68,69
 438 709 438 709 476 652 c 1,60,61
EndSplineSet
EndChar

StartChar: hbar
Encoding: 295 295 193
Width: 534
GlyphClass: 2
Flags: W
LayerCount: 2
Fore
SplineSet
466 387 m 0,0,1
 466 334 466 334 447.5 235 c 128,-1,2
 429 136 429 136 429 82 c 1,3,4
 477 136 477 136 513 248 c 1,5,-1
 529 244 l 1,6,7
 493 50 493 50 395 -15 c 1,8,9
 285 -15 285 -15 285 76 c 0,10,11
 285 113 285 113 300.5 207.5 c 128,-1,12
 316 302 316 302 316 347 c 128,-1,13
 316 392 316 392 306 402 c 1,14,15
 269 361 269 361 239 253 c 128,-1,16
 209 145 209 145 209 93.5 c 128,-1,17
 209 42 209 42 217 0 c 1,18,19
 132 0 132 0 53 -15 c 1,20,-1
 47 -10 l 1,21,22
 67 59 67 59 67 255.5 c 128,-1,23
 67 452 67 452 63 525 c 1,24,-1
 -18 518 l 1,25,-1
 -26 524 l 1,26,27
 -3 545 -3 545 9 573 c 1,28,29
 44 573 44 573 60 574 c 1,30,31
 53 655 53 655 36 700 c 1,32,-1
 55 707 l 1,33,34
 71 691 71 691 126 616 c 1,35,36
 160 659 160 659 212 695 c 128,-1,37
 264 731 264 731 317 750 c 1,38,-1
 326 734 l 1,39,40
 249 685 249 685 225 584 c 1,41,-1
 273 588 l 2,42,43
 338 594 338 594 379 602 c 1,44,-1
 385 597 l 1,45,46
 372 577 372 577 360 551 c 1,47,-1
 218 538 l 1,48,49
 214 511 214 511 214 475 c 1,50,-1
 210 334 l 1,51,52
 204 300 204 300 192 254 c 1,53,-1
 208 253 l 1,54,55
 251 449 251 449 353 505 c 1,56,57
 466 505 466 505 466 387 c 0,0,1
EndSplineSet
EndChar

StartChar: Itilde
Encoding: 296 296 194
Width: 327
GlyphClass: 2
Flags: W
LayerCount: 2
Fore
SplineSet
248 453 m 128,-1,1
 236 308 236 308 236 188 c 128,-1,2
 236 68 236 68 251 0 c 1,3,4
 118 -4 118 -4 64 -15 c 1,5,-1
 58 -10 l 1,6,7
 72 49 72 49 82.5 190 c 128,-1,8
 93 331 93 331 93 444 c 128,-1,9
 93 557 93 557 88 616 c 1,10,11
 54 622 54 622 31 633 c 1,12,-1
 32 651 l 1,13,14
 183 651 183 651 269 664 c 1,15,-1
 275 659 l 1,16,0
 260 598 260 598 248 453 c 128,-1,1
282 832 m 0,17,18
 331 832 331 832 365 867 c 1,19,-1
 389 850 l 1,20,21
 325 762 325 762 249 731 c 1,22,23
 224 731 224 731 157.5 755 c 128,-1,24
 91 779 91 779 66 779 c 0,25,26
 18 779 18 779 -15 744 c 1,27,-1
 -40 761 l 1,28,29
 -14 797 -14 797 34.5 830.5 c 128,-1,30
 83 864 83 864 132 880 c 1,31,32
 205 832 205 832 282 832 c 0,17,18
EndSplineSet
EndChar

StartChar: itilde
Encoding: 297 297 195
Width: 299
GlyphClass: 2
Flags: W
LayerCount: 2
Fore
SplineSet
7 490 m 1,0,1
 161 490 161 490 242 505 c 1,2,-1
 249 492 l 1,3,4
 230 450 230 450 218 347 c 128,-1,5
 206 244 206 244 206 178 c 128,-1,6
 206 112 206 112 207 87 c 1,7,8
 242 131 242 131 278 248 c 1,9,-1
 294 244 l 1,10,11
 258 42 258 42 175 -15 c 1,12,13
 111 -15 111 -15 84 14.5 c 128,-1,14
 57 44 57 44 57 110 c 0,15,16
 57 136 57 136 64 238.5 c 128,-1,17
 71 341 71 341 71 385.5 c 128,-1,18
 71 430 71 430 68 455 c 1,19,20
 25 464 25 464 7 472 c 1,21,-1
 7 490 l 1,0,1
133 720 m 1,22,23
 206 672 206 672 259 672 c 128,-1,24
 312 672 312 672 346 707 c 1,25,-1
 370 690 l 1,26,27
 306 602 306 602 230 571 c 1,28,29
 205 571 205 571 148.5 595 c 128,-1,30
 92 619 92 619 67 619 c 0,31,32
 19 619 19 619 -14 584 c 1,33,-1
 -39 601 l 1,34,35
 -13 637 -13 637 35.5 670.5 c 128,-1,36
 84 704 84 704 133 720 c 1,22,23
EndSplineSet
EndChar

StartChar: dotlessi
Encoding: 305 305 196
Width: 299
GlyphClass: 2
Flags: W
LayerCount: 2
Fore
SplineSet
249 492 m 1,0,1
 230 450 230 450 218 347 c 128,-1,2
 206 244 206 244 206 178 c 128,-1,3
 206 112 206 112 207 87 c 1,4,5
 242 131 242 131 278 248 c 1,6,-1
 294 244 l 1,7,8
 258 42 258 42 175 -15 c 1,9,10
 111 -15 111 -15 84 14.5 c 128,-1,11
 57 44 57 44 57 110 c 0,12,13
 57 136 57 136 64 238.5 c 128,-1,14
 71 341 71 341 71 385.5 c 128,-1,15
 71 430 71 430 68 455 c 1,16,17
 25 464 25 464 7 472 c 1,18,-1
 7 490 l 1,19,20
 161 490 161 490 242 505 c 1,21,-1
 249 492 l 1,0,1
EndSplineSet
EndChar

StartChar: IJ
Encoding: 306 306 197
Width: 652
GlyphClass: 2
Flags: W
LayerCount: 2
Fore
SplineSet
248 453 m 128,-1,1
 236 308 236 308 236 188 c 128,-1,2
 236 68 236 68 251 0 c 1,3,4
 118 -4 118 -4 64 -15 c 1,5,-1
 58 -10 l 1,6,7
 72 49 72 49 82.5 190 c 128,-1,8
 93 331 93 331 93 444 c 128,-1,9
 93 557 93 557 88 616 c 1,10,11
 54 622 54 622 31 633 c 1,12,-1
 32 651 l 1,13,14
 183 651 183 651 269 664 c 1,15,-1
 275 659 l 1,16,0
 260 598 260 598 248 453 c 128,-1,1
572.5 443 m 128,-1,18
 561 301 561 301 561 195.5 c 128,-1,19
 561 90 561 90 581 13 c 1,20,21
 529 -49 529 -49 452 -106 c 128,-1,22
 375 -163 375 -163 294 -201 c 1,23,-1
 282 -185 l 1,24,25
 348 -122 348 -122 374 -42 c 0,26,27
 418 95 418 95 418 457 c 0,28,29
 418 557 418 557 413 616 c 1,30,31
 378 622 378 622 356 633 c 1,32,-1
 357 651 l 1,33,34
 508 651 508 651 594 664 c 1,35,-1
 600 659 l 1,36,17
 584 585 584 585 572.5 443 c 128,-1,18
EndSplineSet
EndChar

StartChar: ij
Encoding: 307 307 198
Width: 575
GlyphClass: 2
Flags: W
LayerCount: 2
Fore
SplineSet
7 490 m 1,0,1
 161 490 161 490 242 505 c 1,2,-1
 249 492 l 1,3,4
 230 450 230 450 218 347 c 128,-1,5
 206 244 206 244 206 178 c 128,-1,6
 206 112 206 112 207 87 c 1,7,8
 242 131 242 131 278 248 c 1,9,-1
 294 244 l 1,10,11
 258 42 258 42 175 -15 c 1,12,13
 111 -15 111 -15 84 14.5 c 128,-1,14
 57 44 57 44 57 110 c 0,15,16
 57 136 57 136 64 238.5 c 128,-1,17
 71 341 71 341 71 385.5 c 128,-1,18
 71 430 71 430 68 455 c 1,19,20
 25 464 25 464 7 472 c 1,21,-1
 7 490 l 1,0,1
245 645 m 1,22,23
 230 622 230 622 200.5 590 c 128,-1,24
 171 558 171 558 150 543 c 1,25,26
 110 573 110 573 75 645 c 1,27,28
 86 665 86 665 115 690 c 128,-1,29
 144 715 144 715 168 727 c 1,30,31
 207 702 207 702 245 645 c 1,22,23
508 275 m 0,32,33
 508 62 508 62 524 0 c 1,34,35
 384 -79 384 -79 367 -202 c 1,36,-1
 345 -200 l 1,37,38
 343 -187 343 -187 343 -166.5 c 128,-1,39
 343 -146 343 -146 354 -2 c 0,40,41
 367 157 367 157 367 265.5 c 128,-1,42
 367 374 367 374 358 455 c 1,43,44
 315 464 315 464 297 472 c 1,45,-1
 297 490 l 1,46,47
 446 490 446 490 527 505 c 1,48,-1
 534 492 l 1,49,50
 523 468 523 468 515.5 399 c 128,-1,51
 508 330 508 330 508 275 c 0,32,33
535 645 m 1,52,53
 520 622 520 622 490.5 590 c 128,-1,54
 461 558 461 558 440 543 c 1,55,56
 400 573 400 573 365 645 c 1,57,58
 376 665 376 665 405 690 c 128,-1,59
 434 715 434 715 458 727 c 1,60,61
 497 702 497 702 535 645 c 1,52,53
EndSplineSet
EndChar

StartChar: Jcircumflex
Encoding: 308 308 199
Width: 325
GlyphClass: 2
Flags: W
LayerCount: 2
Fore
SplineSet
245.5 443 m 128,-1,1
 234 301 234 301 234 195.5 c 128,-1,2
 234 90 234 90 254 13 c 1,3,4
 202 -49 202 -49 125 -106 c 128,-1,5
 48 -163 48 -163 -33 -201 c 1,6,-1
 -45 -185 l 1,7,8
 21 -122 21 -122 47 -42 c 0,9,10
 91 95 91 95 91 457 c 0,11,12
 91 557 91 557 86 616 c 1,13,14
 51 622 51 622 29 633 c 1,15,-1
 30 651 l 1,16,17
 181 651 181 651 267 664 c 1,18,-1
 273 659 l 1,19,0
 257 585 257 585 245.5 443 c 128,-1,1
375 726 m 1,20,-1
 169 786 l 1,21,-1
 -17 726 l 1,22,-1
 -28 751 l 1,23,24
 120 828 120 828 166 906 c 1,25,-1
 212 906 l 1,26,27
 267 813 267 813 386 751 c 1,28,-1
 375 726 l 1,20,-1
EndSplineSet
EndChar

StartChar: jcircumflex
Encoding: 309 309 200
Width: 275
GlyphClass: 2
Flags: W
LayerCount: 2
Fore
SplineSet
208 275 m 0,0,1
 208 62 208 62 224 0 c 1,2,3
 84 -79 84 -79 67 -202 c 1,4,-1
 45 -200 l 1,5,6
 43 -187 43 -187 43 -166.5 c 128,-1,7
 43 -146 43 -146 54 -2 c 0,8,9
 67 157 67 157 67 265.5 c 128,-1,10
 67 374 67 374 58 455 c 1,11,12
 15 464 15 464 -3 472 c 1,13,-1
 -3 490 l 1,14,15
 146 490 146 490 227 505 c 1,16,-1
 234 492 l 1,17,18
 223 468 223 468 215.5 399 c 128,-1,19
 208 330 208 330 208 275 c 0,0,1
325 543 m 1,20,-1
 122 623 l 1,21,-1
 -61 543 l 1,22,-1
 -75 567 l 1,23,24
 68 657 68 657 125 746 c 1,25,-1
 169 746 l 1,26,27
 226 642 226 642 339 567 c 1,28,-1
 325 543 l 1,20,-1
EndSplineSet
EndChar

StartChar: kcommaaccent
Encoding: 311 311 201
Width: 532
GlyphClass: 2
Flags: W
LayerCount: 2
Fore
SplineSet
67 303 m 2,0,-1
 67 412 l 2,1,2
 67 544 67 544 55 621 c 1,3,4
 22 627 22 627 -5 638 c 1,5,-1
 -5 656 l 1,6,7
 146 656 146 656 256 703 c 1,8,-1
 264 690 l 1,9,10
 220 620 220 620 216 489 c 2,11,-1
 212 334 l 1,12,-1
 194 254 l 1,13,-1
 210 253 l 1,14,15
 253 449 253 449 355 505 c 1,16,17
 468 505 468 505 468 391 c 0,18,19
 468 302 468 302 378 254 c 1,20,21
 408 108 408 108 435 92 c 1,22,23
 482 145 482 145 515 248 c 1,24,-1
 531 244 l 1,25,26
 495 50 495 50 397 -15 c 1,27,28
 347 -15 347 -15 320.5 6.5 c 128,-1,29
 294 28 294 28 286 76 c 0,30,31
 273 154 273 154 267 228 c 1,32,-1
 267 238 l 1,33,34
 292 240 292 240 304.5 256 c 128,-1,35
 317 272 317 272 319.5 290 c 128,-1,36
 322 308 322 308 322 348 c 128,-1,37
 322 388 322 388 308 402 c 1,38,39
 271 361 271 361 241 253 c 128,-1,40
 211 145 211 145 211 93.5 c 128,-1,41
 211 42 211 42 219 0 c 1,42,43
 132 0 132 0 53 -15 c 1,44,-1
 47 -10 l 1,45,46
 67 59 67 59 67 303 c 2,0,-1
329 -104 m 1,47,48
 321 -153 321 -153 277 -191 c 128,-1,49
 233 -229 233 -229 174 -251 c 1,50,-1
 161 -231 l 1,51,52
 209 -198 209 -198 221 -164 c 1,53,54
 196 -132 196 -132 185 -104 c 1,55,56
 193 -87 193 -87 218 -66 c 128,-1,57
 243 -45 243 -45 263 -34 c 1,58,59
 296 -54 296 -54 329 -104 c 1,47,48
EndSplineSet
EndChar

StartChar: kgreenlandic
Encoding: 312 312 202
Width: 516
GlyphClass: 2
Flags: W
LayerCount: 2
Fore
SplineSet
242 234 m 1,0,1
 217 158 217 158 217 100 c 128,-1,2
 217 42 217 42 225 0 c 1,3,4
 140 0 140 0 61 -15 c 1,5,-1
 55 -10 l 1,6,7
 75 59 75 59 75 224 c 128,-1,8
 75 389 75 389 66 455 c 1,9,10
 23 464 23 464 5 472 c 1,11,-1
 5 490 l 1,12,13
 154 490 154 490 235 505 c 1,14,-1
 242 492 l 1,15,16
 218 430 218 430 218 334 c 1,17,18
 212 300 212 300 200 254 c 1,19,-1
 216 253 l 1,20,21
 232 321 232 321 279 395 c 128,-1,22
 326 469 326 469 380 505 c 1,23,24
 399 498 399 498 442.5 492 c 128,-1,25
 486 486 486 486 509 486 c 1,26,-1
 515 471 l 1,27,28
 490 438 490 438 466 383 c 128,-1,29
 442 328 442 328 440 290 c 1,30,-1
 422 290 l 1,31,32
 417 309 417 309 411 340 c 1,33,34
 404 353 404 353 336 394 c 1,35,36
 323 381 323 381 310 363 c 1,37,-1
 334 298 l 1,38,39
 402 117 402 117 428 102 c 1,40,41
 473 169 473 169 495 248 c 1,42,-1
 513 244 l 1,43,44
 475 40 475 40 399 -15 c 1,45,46
 352 -15 352 -15 328.5 6 c 128,-1,47
 305 27 305 27 285 84.5 c 128,-1,48
 265 142 265 142 242 234 c 1,0,1
EndSplineSet
EndChar

StartChar: Ldotaccent
Encoding: 319 319 203
Width: 439
GlyphClass: 2
Flags: W
LayerCount: 2
Fore
SplineSet
248 457 m 128,-1,1
 236 317 236 317 236 219.5 c 128,-1,2
 236 122 236 122 244 66 c 1,3,4
 270 62 270 62 323.5 62 c 128,-1,5
 377 62 377 62 429 81 c 1,6,-1
 434 75 l 1,7,8
 420 32 420 32 417 -13 c 1,9,10
 342 0 342 0 239 0 c 128,-1,11
 136 0 136 0 64 -15 c 1,12,-1
 58 -10 l 1,13,14
 72 49 72 49 82.5 190 c 128,-1,15
 93 331 93 331 93 444 c 128,-1,16
 93 557 93 557 88 616 c 1,17,18
 54 622 54 622 31 633 c 1,19,-1
 32 651 l 1,20,21
 183 651 183 651 269 664 c 1,22,-1
 275 659 l 1,23,0
 260 597 260 597 248 457 c 128,-1,1
446 363 m 1,24,25
 431 340 431 340 401.5 308 c 128,-1,26
 372 276 372 276 351 261 c 1,27,28
 311 291 311 291 276 363 c 1,29,30
 287 383 287 383 316 408 c 128,-1,31
 345 433 345 433 369 445 c 1,32,33
 408 420 408 420 446 363 c 1,24,25
EndSplineSet
EndChar

StartChar: ldot
Encoding: 320 320 204
Width: 435
GlyphClass: 2
Flags: W
LayerCount: 2
Fore
SplineSet
200 118 m 0,0,1
 200 102 200 102 200 87 c 1,2,3
 235 131 235 131 271 248 c 1,4,-1
 287 244 l 1,5,6
 251 42 251 42 168 -15 c 1,7,8
 104 -15 104 -15 77 14.5 c 128,-1,9
 50 44 50 44 50 99.5 c 128,-1,10
 50 155 50 155 60.5 285 c 128,-1,11
 71 415 71 415 71 474.5 c 128,-1,12
 71 534 71 534 59 621 c 1,13,14
 26 627 26 627 -1 638 c 1,15,-1
 -1 656 l 1,16,17
 60 656 60 656 134.5 668 c 128,-1,18
 209 680 209 680 263 703 c 1,19,-1
 271 690 l 1,20,21
 229 624 229 624 214.5 442 c 128,-1,22
 200 260 200 260 200 118 c 0,0,1
414 414 m 1,23,24
 399 391 399 391 369.5 359 c 128,-1,25
 340 327 340 327 319 312 c 1,26,27
 279 342 279 342 244 414 c 1,28,29
 255 434 255 434 284 459 c 128,-1,30
 313 484 313 484 337 496 c 1,31,32
 376 471 376 471 414 414 c 1,23,24
EndSplineSet
EndChar

